SplineFontDB: 3.2
FontName: FiraSans-ThinItalic
FullName: Fira Sans Thin Italic
FamilyName: Fira Sans Thin
Weight: Light
Copyright: Digitized data copyright 2012-2016, The Mozilla Foundation and Telefonica S.A.
Version: 4.203
ItalicAngle: -8
UnderlinePosition: -100
UnderlineWidth: 50
Ascent: 800
Descent: 200
InvalidEm: 0
sfntRevision: 0x000433f7
LayerCount: 2
Layer: 0 1 "Back" 1
Layer: 1 1 "Fore" 0
XUID: [1021 862 2080032337 12598172]
StyleMap: 0x0001
FSType: 0
OS2Version: 4
OS2_WeightWidthSlopeOnly: 0
OS2_UseTypoMetrics: 1
CreationTime: 1476948552
ModificationTime: 1480667555
PfmFamily: 17
TTFWeight: 250
TTFWidth: 5
LineGap: 0
VLineGap: 0
Panose: 2 11 3 3 5 0 0 2 0 4
OS2TypoAscent: 935
OS2TypoAOffset: 0
OS2TypoDescent: -265
OS2TypoDOffset: 0
OS2TypoLinegap: 0
OS2WinAscent: 935
OS2WinAOffset: 0
OS2WinDescent: 265
OS2WinDOffset: 0
HheadAscent: 935
HheadAOffset: 0
HheadDescent: -265
HheadDOffset: 0
OS2SubXSize: 650
OS2SubYSize: 600
OS2SubXOff: -11
OS2SubYOff: 75
OS2SupXSize: 650
OS2SupYSize: 600
OS2SupXOff: 49
OS2SupYOff: 350
OS2StrikeYSize: 50
OS2StrikeYPos: 311
OS2CapHeight: 681
OS2XHeight: 519
OS2Vendor: 'CTDB'
OS2CodePages: 2000019f.00000000
OS2UnicodeRanges: 600002ff.00000001.00000000.00000000
Lookup: 1 0 0 "'aalt' Access All Alternates lookup 0" { "'aalt' Access All Alternates lookup 0 subtable"  } ['aalt' ('DFLT' <'dflt' > 'cyrl' <'dflt' > 'grek' <'dflt' > 'latn' <'AFK ' 'CAT ' 'EWE ' 'MOL ' 'PLK ' 'ROM ' 'TRK ' 'dflt' > ) ]
Lookup: 3 0 0 "'aalt' Access All Alternates lookup 1" { "'aalt' Access All Alternates lookup 1 subtable"  } ['aalt' ('DFLT' <'dflt' > 'cyrl' <'dflt' > 'grek' <'dflt' > 'latn' <'AFK ' 'CAT ' 'EWE ' 'MOL ' 'PLK ' 'ROM ' 'TRK ' 'dflt' > ) ]
Lookup: 1 0 0 "'locl' Localized Forms in Latin lookup 2" { "'locl' Localized Forms in Latin lookup 2 subtable"  } ['locl' ('latn' <'TAT ' > ) ]
Lookup: 1 0 0 "'locl' Localized Forms in Latin lookup 3" { "'locl' Localized Forms in Latin lookup 3 subtable"  } ['locl' ('latn' <'TRK ' > ) ]

StartChar: .notdef
Encoding: 65536 -1 0
Width: 666
GlyphClass: 1
Flags: W
LayerCount: 2
Fore
SplineSet
654 1050 m 1,0,-1
 456 -350 l 1,1,-1
 36 -350 l 1,2,-1
 234 1050 l 1,3,-1
 654 1050 l 1,0,-1
610 1012 m 1,4,-1
 269 1012 l 1,5,-1
 81 -312 l 1,6,-1
 422 -312 l 1,7,-1
 610 1012 l 1,4,-1
424 426.5 m 128,-1,9
 447 402 447 402 447 361 c 0,10,11
 447 353 447 353 445 335 c 0,12,13
 438 282 438 282 412 253.5 c 128,-1,14
 386 225 386 225 335 218 c 1,15,-1
 328 172 l 2,16,17
 327 161 327 161 318.5 155 c 128,-1,18
 310 149 310 149 301 149 c 0,19,20
 290 149 290 149 283.5 156 c 128,-1,21
 277 163 277 163 278 174 c 2,22,-1
 289 257 l 1,23,24
 342 260 342 260 364 277 c 128,-1,25
 386 294 386 294 392 335 c 0,26,27
 393 342 393 342 393 355 c 0,28,29
 393 378 393 378 381.5 390.5 c 128,-1,30
 370 403 370 403 341 403 c 256,31,32
 312 403 312 403 288 391 c 1,33,-1
 275 389 l 2,34,35
 263 389 263 389 257 396 c 128,-1,36
 251 403 251 403 253 413 c 0,37,38
 255 432 255 432 285.5 441.5 c 128,-1,39
 316 451 316 451 350 451 c 0,40,8
 401 451 401 451 424 426.5 c 128,-1,9
316.5 111.5 m 128,-1,42
 325 103 325 103 325 89 c 0,43,44
 325 72 325 72 314 60 c 128,-1,45
 303 48 303 48 287 48 c 256,46,47
 271 48 271 48 262.5 59 c 128,-1,48
 254 70 254 70 256 86 c 0,49,50
 257 101 257 101 268 110.5 c 128,-1,51
 279 120 279 120 294 120 c 0,52,41
 308 120 308 120 316.5 111.5 c 128,-1,42
EndSplineSet
EndChar

StartChar: A
Encoding: 65 65 3
Width: 557
GlyphClass: 2
Flags: W
AnchorPoint: "Anchor-18" 0 0 basechar 0
AnchorPoint: "Anchor-17" 0 0 basechar 0
AnchorPoint: "Anchor-16" 338 681 basechar 0
AnchorPoint: "Anchor-15" 502 0 basechar 0
AnchorPoint: "Anchor-14" 242 0 basechar 0
LayerCount: 2
Fore
SplineSet
469 0 m 1,0,-1
 428 203 l 1,1,-1
 113 203 l 1,2,-1
 15 0 l 1,3,-1
 -9 0 l 1,4,-1
 324 681 l 1,5,-1
 351 681 l 1,6,-1
 493 0 l 1,7,-1
 469 0 l 1,0,-1
123 224 m 1,8,-1
 424 224 l 1,9,-1
 335 662 l 1,10,-1
 123 224 l 1,8,-1
EndSplineSet
Substitution2: "Single Substitution lookup 44 subtable" ordfeminine
Substitution2: "'c2sc' Capitals to Small Capitals lookup 27 subtable" a.sc
AlternateSubs2: "'aalt' Access All Alternates lookup 1 subtable" ordfeminine a.sc
Position2: "'cpsp' Capital Spacing lookup 0 subtable" dx=5 dy=0 dh=10 dv=0
EndChar

StartChar: uni1EAE
Encoding: 7854 7854 6
Width: 557
GlyphClass: 2
Flags: W
AnchorPoint: "Anchor-18" 0 0 basechar 0
AnchorPoint: "Anchor-17" 0 0 basechar 0
AnchorPoint: "Anchor-16" 360 817 basechar 0
AnchorPoint: "Anchor-15" 502 0 basechar 0
AnchorPoint: "Anchor-14" 0 0 basechar 0
LayerCount: 2
Fore
SplineSet
465 939 m 1,0,-1
 347 829 l 1,1,-1
 336 841 l 1,2,-1
 449 958 l 1,3,-1
 465 939 l 1,0,-1
280 759.5 m 128,-1,5
 253 782 253 782 249 814 c 1,6,-1
 266 816 l 1,7,8
 271 790 271 790 293 774 c 128,-1,9
 315 758 315 758 349 758 c 0,10,11
 384 758 384 758 410 774 c 128,-1,12
 436 790 436 790 449 817 c 1,13,-1
 466 812 l 1,14,15
 454 780 454 780 422.5 758.5 c 128,-1,16
 391 737 391 737 349 737 c 256,17,4
 307 737 307 737 280 759.5 c 128,-1,5
469 0 m 1,18,-1
 428 203 l 1,19,-1
 113 203 l 1,20,-1
 15 0 l 1,21,-1
 -9 0 l 1,22,-1
 324 681 l 1,23,-1
 351 681 l 1,24,-1
 493 0 l 1,25,-1
 469 0 l 1,18,-1
123 224 m 1,26,-1
 424 224 l 1,27,-1
 335 662 l 1,28,-1
 123 224 l 1,26,-1
EndSplineSet
Substitution2: "'c2sc' Capitals to Small Capitals lookup 27 subtable" uni1EAF.sc
Substitution2: "'aalt' Access All Alternates lookup 0 subtable" uni1EAF.sc
Position2: "'cpsp' Capital Spacing lookup 0 subtable" dx=5 dy=0 dh=10 dv=0
EndChar

StartChar: uni1EB0
Encoding: 7856 7856 8
Width: 557
GlyphClass: 2
Flags: W
AnchorPoint: "Anchor-18" 0 0 basechar 0
AnchorPoint: "Anchor-17" 0 0 basechar 0
AnchorPoint: "Anchor-16" 360 817 basechar 0
AnchorPoint: "Anchor-15" 502 0 basechar 0
AnchorPoint: "Anchor-14" 0 0 basechar 0
LayerCount: 2
Fore
SplineSet
369 839 m 1,0,-1
 355 829 l 1,1,-1
 268 942 l 1,2,-1
 288 958 l 1,3,-1
 369 839 l 1,0,-1
280 759.5 m 128,-1,5
 253 782 253 782 249 814 c 1,6,-1
 266 816 l 1,7,8
 271 790 271 790 293 774 c 128,-1,9
 315 758 315 758 349 758 c 0,10,11
 384 758 384 758 410 774 c 128,-1,12
 436 790 436 790 449 817 c 1,13,-1
 466 812 l 1,14,15
 454 780 454 780 422.5 758.5 c 128,-1,16
 391 737 391 737 349 737 c 256,17,4
 307 737 307 737 280 759.5 c 128,-1,5
469 0 m 1,18,-1
 428 203 l 1,19,-1
 113 203 l 1,20,-1
 15 0 l 1,21,-1
 -9 0 l 1,22,-1
 324 681 l 1,23,-1
 351 681 l 1,24,-1
 493 0 l 1,25,-1
 469 0 l 1,18,-1
123 224 m 1,26,-1
 424 224 l 1,27,-1
 335 662 l 1,28,-1
 123 224 l 1,26,-1
EndSplineSet
Substitution2: "'c2sc' Capitals to Small Capitals lookup 27 subtable" uni1EB1.sc
Substitution2: "'aalt' Access All Alternates lookup 0 subtable" uni1EB1.sc
Position2: "'cpsp' Capital Spacing lookup 0 subtable" dx=5 dy=0 dh=10 dv=0
EndChar

StartChar: uni1EB4
Encoding: 7860 7860 10
Width: 557
GlyphClass: 2
Flags: W
AnchorPoint: "Anchor-18" 0 0 basechar 0
AnchorPoint: "Anchor-17" 0 0 basechar 0
AnchorPoint: "Anchor-16" 366 920 basechar 0
AnchorPoint: "Anchor-15" 502 0 basechar 0
AnchorPoint: "Anchor-14" 0 0 basechar 0
LayerCount: 2
Fore
SplineSet
275.5 891.5 m 128,-1,1
 263 884 263 884 242 863 c 1,2,-1
 229 873 l 1,3,4
 249 896 249 896 268 907.5 c 128,-1,5
 287 919 287 919 307 919 c 0,6,7
 321 919 321 919 332.5 914 c 128,-1,8
 344 909 344 909 364 898 c 0,9,10
 380 887 380 887 393 881.5 c 128,-1,11
 406 876 406 876 420 876 c 0,12,13
 436 876 436 876 451 885.5 c 128,-1,14
 466 895 466 895 484 917 c 1,15,-1
 498 908 l 1,16,17
 478 880 478 880 459.5 868 c 128,-1,18
 441 856 441 856 420 856 c 0,19,20
 404 856 404 856 391 861.5 c 128,-1,21
 378 867 378 867 357 879 c 0,22,23
 341 889 341 889 330 894 c 128,-1,24
 319 899 319 899 307 899 c 0,25,0
 288 899 288 899 275.5 891.5 c 128,-1,1
409 774 m 128,-1,27
 435 790 435 790 448 817 c 1,28,-1
 465 812 l 1,29,30
 453 780 453 780 421.5 758.5 c 128,-1,31
 390 737 390 737 348 737 c 256,32,33
 306 737 306 737 279 759.5 c 128,-1,34
 252 782 252 782 248 814 c 1,35,-1
 265 816 l 1,36,37
 270 790 270 790 292 774 c 128,-1,38
 314 758 314 758 348 758 c 0,39,26
 383 758 383 758 409 774 c 128,-1,27
324 681 m 1,40,-1
 351 681 l 1,41,-1
 493 0 l 1,42,-1
 469 0 l 1,43,-1
 428 203 l 1,44,-1
 113 203 l 1,45,-1
 15 0 l 1,46,-1
 -9 0 l 1,47,-1
 324 681 l 1,40,-1
123 224 m 1,48,-1
 424 224 l 1,49,-1
 335 662 l 1,50,-1
 123 224 l 1,48,-1
EndSplineSet
Substitution2: "'c2sc' Capitals to Small Capitals lookup 27 subtable" uni1EB5.sc
Substitution2: "'aalt' Access All Alternates lookup 0 subtable" uni1EB5.sc
Position2: "'cpsp' Capital Spacing lookup 0 subtable" dx=5 dy=0 dh=10 dv=0
EndChar

StartChar: uni1EA4
Encoding: 7844 7844 13
Width: 557
GlyphClass: 2
Flags: W
AnchorPoint: "Anchor-18" 0 0 basechar 0
AnchorPoint: "Anchor-17" 418 692 basechar 0
AnchorPoint: "Anchor-16" 358 840 basechar 0
AnchorPoint: "Anchor-15" 502 0 basechar 0
AnchorPoint: "Anchor-14" 0 0 basechar 0
LayerCount: 2
Fore
SplineSet
556 934 m 1,0,-1
 438 824 l 1,1,-1
 427 836 l 1,2,-1
 540 953 l 1,3,-1
 556 934 l 1,0,-1
357 816 m 1,4,-1
 230 737 l 1,5,-1
 220 751 l 1,6,-1
 352 840 l 1,7,-1
 364 840 l 1,8,-1
 471 750 l 1,9,-1
 459 737 l 1,10,-1
 357 816 l 1,4,-1
324 681 m 1,11,-1
 351 681 l 1,12,-1
 493 0 l 1,13,-1
 469 0 l 1,14,-1
 428 203 l 1,15,-1
 113 203 l 1,16,-1
 15 0 l 1,17,-1
 -9 0 l 1,18,-1
 324 681 l 1,11,-1
123 224 m 1,19,-1
 424 224 l 1,20,-1
 335 662 l 1,21,-1
 123 224 l 1,19,-1
EndSplineSet
Substitution2: "'c2sc' Capitals to Small Capitals lookup 27 subtable" uni1EA5.sc
Substitution2: "'aalt' Access All Alternates lookup 0 subtable" uni1EA5.sc
Position2: "'cpsp' Capital Spacing lookup 0 subtable" dx=5 dy=0 dh=10 dv=0
EndChar

StartChar: uni1EA6
Encoding: 7846 7846 15
Width: 557
GlyphClass: 2
Flags: W
AnchorPoint: "Anchor-18" 0 0 basechar 0
AnchorPoint: "Anchor-17" 415 692 basechar 0
AnchorPoint: "Anchor-16" 355 840 basechar 0
AnchorPoint: "Anchor-15" 502 0 basechar 0
AnchorPoint: "Anchor-14" 0 0 basechar 0
LayerCount: 2
Fore
SplineSet
277 834 m 1,0,-1
 263 824 l 1,1,-1
 176 937 l 1,2,-1
 196 953 l 1,3,-1
 277 834 l 1,0,-1
227 737 m 1,4,-1
 217 751 l 1,5,-1
 349 840 l 1,6,-1
 361 840 l 1,7,-1
 468 750 l 1,8,-1
 456 737 l 1,9,-1
 354 816 l 1,10,-1
 227 737 l 1,4,-1
469 0 m 1,11,-1
 428 203 l 1,12,-1
 113 203 l 1,13,-1
 15 0 l 1,14,-1
 -9 0 l 1,15,-1
 324 681 l 1,16,-1
 351 681 l 1,17,-1
 493 0 l 1,18,-1
 469 0 l 1,11,-1
123 224 m 1,19,-1
 424 224 l 1,20,-1
 335 662 l 1,21,-1
 123 224 l 1,19,-1
EndSplineSet
Substitution2: "'c2sc' Capitals to Small Capitals lookup 27 subtable" uni1EA7.sc
Substitution2: "'aalt' Access All Alternates lookup 0 subtable" uni1EA7.sc
Position2: "'cpsp' Capital Spacing lookup 0 subtable" dx=5 dy=0 dh=10 dv=0
EndChar

StartChar: uni1EAA
Encoding: 7850 7850 17
Width: 557
GlyphClass: 2
Flags: W
AnchorPoint: "Anchor-18" 0 0 basechar 0
AnchorPoint: "Anchor-17" 415 692 basechar 0
AnchorPoint: "Anchor-16" 367 943 basechar 0
AnchorPoint: "Anchor-15" 502 0 basechar 0
AnchorPoint: "Anchor-14" 0 0 basechar 0
LayerCount: 2
Fore
SplineSet
276.5 914.5 m 128,-1,1
 264 907 264 907 243 886 c 1,2,-1
 230 896 l 1,3,4
 250 919 250 919 269 930.5 c 128,-1,5
 288 942 288 942 308 942 c 0,6,7
 322 942 322 942 333.5 937 c 128,-1,8
 345 932 345 932 365 921 c 0,9,10
 381 910 381 910 394 904.5 c 128,-1,11
 407 899 407 899 421 899 c 0,12,13
 437 899 437 899 452 908.5 c 128,-1,14
 467 918 467 918 485 940 c 1,15,-1
 499 931 l 1,16,17
 479 903 479 903 460.5 891 c 128,-1,18
 442 879 442 879 421 879 c 0,19,20
 405 879 405 879 392 884.5 c 128,-1,21
 379 890 379 890 358 902 c 0,22,23
 342 912 342 912 331 917 c 128,-1,24
 320 922 320 922 308 922 c 0,25,0
 289 922 289 922 276.5 914.5 c 128,-1,1
354 816 m 1,26,-1
 227 737 l 1,27,-1
 217 751 l 1,28,-1
 349 840 l 1,29,-1
 361 840 l 1,30,-1
 468 750 l 1,31,-1
 456 737 l 1,32,-1
 354 816 l 1,26,-1
324 681 m 1,33,-1
 351 681 l 1,34,-1
 493 0 l 1,35,-1
 469 0 l 1,36,-1
 428 203 l 1,37,-1
 113 203 l 1,38,-1
 15 0 l 1,39,-1
 -9 0 l 1,40,-1
 324 681 l 1,33,-1
123 224 m 1,41,-1
 424 224 l 1,42,-1
 335 662 l 1,43,-1
 123 224 l 1,41,-1
EndSplineSet
Substitution2: "'c2sc' Capitals to Small Capitals lookup 27 subtable" uni1EAB.sc
Substitution2: "'aalt' Access All Alternates lookup 0 subtable" uni1EAB.sc
Position2: "'cpsp' Capital Spacing lookup 0 subtable" dx=5 dy=0 dh=10 dv=0
EndChar

StartChar: uni2C6D
Encoding: 11373 11373 27
Width: 661
GlyphClass: 2
Flags: W
AnchorPoint: "Anchor-18" 0 0 basechar 0
AnchorPoint: "Anchor-17" 0 0 basechar 0
AnchorPoint: "Anchor-16" 389 681 basechar 0
AnchorPoint: "Anchor-15" 0 0 basechar 0
AnchorPoint: "Anchor-14" 293 0 basechar 0
LayerCount: 2
Fore
SplineSet
509 68 m 0,1,2
 509 44 509 44 517 29.5 c 128,-1,3
 525 15 525 15 545 7 c 1,4,-1
 538 -10 l 1,5,6
 488 8 488 8 488 69 c 0,7,8
 488 76 488 76 490 96 c 1,9,10
 412 -10 412 -10 294 -10 c 0,11,12
 198 -10 198 -10 140 59 c 128,-1,13
 82 128 82 128 82 257 c 0,14,15
 82 362 82 362 119.5 462.5 c 128,-1,16
 157 563 157 563 228 627 c 128,-1,17
 299 691 299 691 394 691 c 0,18,19
 503 691 503 691 559 596 c 1,20,-1
 573 681 l 1,21,-1
 593 681 l 1,22,-1
 513 111 l 2,23,0
 509 77 509 77 509 68 c 0,1,2
554 569 m 1,24,25
 524 620 524 620 485.5 645 c 128,-1,26
 447 670 447 670 394 670 c 0,27,28
 305 670 305 670 239.5 608 c 128,-1,29
 174 546 174 546 140 450 c 128,-1,30
 106 354 106 354 106 256 c 0,31,32
 106 137 106 137 157 74.5 c 128,-1,33
 208 12 208 12 294 12 c 0,34,35
 355 12 355 12 404 40.5 c 128,-1,36
 453 69 453 69 494 131 c 1,37,-1
 554 569 l 1,24,25
EndSplineSet
Substitution2: "'c2sc' Capitals to Small Capitals lookup 27 subtable" uni2C6D.sc
Substitution2: "'aalt' Access All Alternates lookup 0 subtable" uni2C6D.sc
Position2: "'cpsp' Capital Spacing lookup 0 subtable" dx=5 dy=0 dh=10 dv=0
EndChar

StartChar: Aogonek
Encoding: 260 260 29
Width: 557
GlyphClass: 2
Flags: W
AnchorPoint: "Anchor-18" 0 0 basechar 0
AnchorPoint: "Anchor-17" 0 0 basechar 0
AnchorPoint: "Anchor-16" 338 681 basechar 0
AnchorPoint: "Anchor-15" 502 0 basechar 0
AnchorPoint: "Anchor-14" 242 0 basechar 0
LayerCount: 2
Fore
SplineSet
413 -181 m 0,1,2
 437 -181 437 -181 468 -174 c 1,3,-1
 463 -196 l 1,4,5
 435 -203 435 -203 410 -203 c 0,6,7
 369 -203 369 -203 347.5 -184.5 c 128,-1,8
 326 -166 326 -166 326 -135 c 0,9,10
 326 -87 326 -87 361.5 -55 c 128,-1,11
 397 -23 397 -23 468 6 c 1,12,-1
 428 203 l 1,13,-1
 113 203 l 1,14,-1
 15 0 l 1,15,-1
 -9 0 l 1,16,-1
 324 681 l 1,17,-1
 351 681 l 1,18,-1
 493 0 l 1,19,20
 421 -29 421 -29 385.5 -57.5 c 128,-1,21
 350 -86 350 -86 350 -126 c 0,22,0
 350 -181 350 -181 413 -181 c 0,1,2
123 224 m 1,23,-1
 424 224 l 1,24,-1
 335 662 l 1,25,-1
 123 224 l 1,23,-1
EndSplineSet
Substitution2: "'c2sc' Capitals to Small Capitals lookup 27 subtable" aogonek.sc
Substitution2: "'aalt' Access All Alternates lookup 0 subtable" aogonek.sc
Position2: "'cpsp' Capital Spacing lookup 0 subtable" dx=5 dy=0 dh=10 dv=0
EndChar

StartChar: uni023A
Encoding: 570 570 32
Width: 557
GlyphClass: 2
Flags: W
AnchorPoint: "Anchor-18" 0 0 basechar 0
AnchorPoint: "Anchor-17" 0 0 basechar 0
AnchorPoint: "Anchor-16" 338 681 basechar 0
AnchorPoint: "Anchor-15" 0 0 basechar 0
AnchorPoint: "Anchor-14" 242 0 basechar 0
LayerCount: 2
Fore
SplineSet
469 0 m 1,0,-1
 428 203 l 1,1,-1
 248 203 l 1,2,-1
 140 -66 l 1,3,-1
 123 -62 l 1,4,-1
 229 203 l 1,5,-1
 113 203 l 1,6,-1
 15 0 l 1,7,-1
 -9 0 l 1,8,-1
 324 681 l 1,9,-1
 351 681 l 1,10,-1
 375 565 l 1,11,-1
 444 737 l 1,12,-1
 461 732 l 1,13,-1
 382 534 l 1,14,-1
 493 0 l 1,15,-1
 469 0 l 1,0,-1
123 224 m 1,16,-1
 238 224 l 1,17,-1
 361 531 l 1,18,-1
 335 662 l 1,19,-1
 123 224 l 1,16,-1
257 224 m 1,20,-1
 424 224 l 1,21,-1
 368 500 l 1,22,-1
 257 224 l 1,20,-1
EndSplineSet
Substitution2: "'c2sc' Capitals to Small Capitals lookup 27 subtable" uni2C65.sc
Substitution2: "'aalt' Access All Alternates lookup 0 subtable" uni2C65.sc
Position2: "'cpsp' Capital Spacing lookup 0 subtable" dx=5 dy=0 dh=10 dv=0
EndChar

StartChar: AE
Encoding: 198 198 34
Width: 755
GlyphClass: 2
Flags: W
AnchorPoint: "Anchor-18" 0 0 basechar 0
AnchorPoint: "Anchor-17" 0 0 basechar 0
AnchorPoint: "Anchor-16" 505 681 basechar 0
AnchorPoint: "Anchor-15" 0 0 basechar 0
AnchorPoint: "Anchor-14" 341 0 basechar 0
LayerCount: 2
Fore
SplineSet
712 660 m 1,0,-1
 369 660 l 1,1,-1
 405 370 l 1,2,-1
 666 370 l 1,3,-1
 664 349 l 1,4,-1
 407 349 l 1,5,-1
 448 21 l 1,6,-1
 679 21 l 1,7,-1
 675 0 l 1,8,-1
 428 0 l 1,9,-1
 404 196 l 1,10,-1
 103 196 l 1,11,-1
 0 0 l 1,12,-1
 -24 0 l 1,13,-1
 334 681 l 1,14,-1
 718 681 l 1,15,-1
 712 660 l 1,0,-1
402 217 m 1,16,-1
 348 663 l 1,17,-1
 114 217 l 1,18,-1
 402 217 l 1,16,-1
EndSplineSet
Substitution2: "'c2sc' Capitals to Small Capitals lookup 27 subtable" ae.sc
Substitution2: "'aalt' Access All Alternates lookup 0 subtable" ae.sc
Position2: "'cpsp' Capital Spacing lookup 0 subtable" dx=5 dy=0 dh=10 dv=0
EndChar

StartChar: B
Encoding: 66 66 37
Width: 587
GlyphClass: 2
Flags: W
AnchorPoint: "Anchor-18" 0 0 basechar 0
AnchorPoint: "Anchor-17" 0 0 basechar 0
AnchorPoint: "Anchor-16" 338 681 basechar 0
AnchorPoint: "Anchor-15" 0 0 basechar 0
AnchorPoint: "Anchor-14" 267 0 basechar 0
LayerCount: 2
Fore
SplineSet
477 318.5 m 128,-1,1
 517 282 517 282 517 215 c 0,2,3
 517 160 517 160 493 111.5 c 128,-1,4
 469 63 469 63 412 31.5 c 128,-1,5
 355 0 355 0 263 0 c 2,6,-1
 86 0 l 1,7,-1
 182 681 l 1,8,-1
 329 681 l 2,9,10
 424 681 424 681 475.5 644.5 c 128,-1,11
 527 608 527 608 527 536 c 0,12,13
 527 465 527 465 484 417.5 c 128,-1,14
 441 370 441 370 371 361 c 1,15,0
 437 355 437 355 477 318.5 c 128,-1,1
161 370 m 1,16,-1
 327 370 l 2,17,18
 381 370 381 370 421 392 c 128,-1,19
 461 414 461 414 483 451.5 c 128,-1,20
 505 489 505 489 505 535 c 0,21,22
 505 598 505 598 460 629 c 128,-1,23
 415 660 415 660 331 660 c 2,24,-1
 202 660 l 1,25,-1
 161 370 l 1,16,-1
441 77.5 m 128,-1,27
 494 134 494 134 494 216 c 0,28,29
 494 281 494 281 450 315.5 c 128,-1,30
 406 350 406 350 331 350 c 2,31,-1
 158 350 l 1,32,-1
 112 21 l 1,33,-1
 266 21 l 2,34,26
 388 21 388 21 441 77.5 c 128,-1,27
EndSplineSet
Substitution2: "'c2sc' Capitals to Small Capitals lookup 27 subtable" b.sc
Substitution2: "'aalt' Access All Alternates lookup 0 subtable" b.sc
Position2: "'cpsp' Capital Spacing lookup 0 subtable" dx=5 dy=0 dh=10 dv=0
EndChar

StartChar: uniA7B4
Encoding: 42932 42932 40
Width: 587
GlyphClass: 2
Flags: W
AnchorPoint: "Anchor-18" 0 0 basechar 0
AnchorPoint: "Anchor-17" 0 0 basechar 0
AnchorPoint: "Anchor-16" 353 681 basechar 0
AnchorPoint: "Anchor-15" 0 0 basechar 0
AnchorPoint: "Anchor-14" 0 0 basechar 0
LayerCount: 2
Fore
SplineSet
478.5 322.5 m 128,-1,1
 518 288 518 288 518 221 c 256,2,3
 518 154 518 154 487.5 104 c 128,-1,4
 457 54 457 54 402 27 c 128,-1,5
 347 0 347 0 275 0 c 0,6,7
 228 0 228 0 189.5 7 c 128,-1,8
 151 14 151 14 113 30 c 1,9,-1
 82 -192 l 1,10,-1
 59 -192 l 1,11,-1
 182 681 l 1,12,-1
 329 681 l 2,13,14
 424 681 424 681 475.5 643.5 c 128,-1,15
 527 606 527 606 527 532 c 0,16,17
 527 462 527 462 485.5 417 c 128,-1,18
 444 372 444 372 376 361 c 1,19,0
 439 357 439 357 478.5 322.5 c 128,-1,1
434.5 75 m 128,-1,21
 495 129 495 129 495 221 c 0,22,23
 495 285 495 285 451.5 317.5 c 128,-1,24
 408 350 408 350 334 350 c 2,25,-1
 245 350 l 1,26,-1
 251 370 l 1,27,-1
 331 370 l 2,28,29
 411 370 411 370 458 415.5 c 128,-1,30
 505 461 505 461 505 532 c 0,31,32
 505 597 505 597 460 628.5 c 128,-1,33
 415 660 415 660 331 660 c 2,34,-1
 202 660 l 1,35,-1
 116 50 l 1,36,37
 187 21 187 21 275 21 c 0,38,20
 374 21 374 21 434.5 75 c 128,-1,21
EndSplineSet
Substitution2: "'c2sc' Capitals to Small Capitals lookup 27 subtable" uniA7B4.sc
Substitution2: "'aalt' Access All Alternates lookup 0 subtable" uniA7B4.sc
Position2: "'cpsp' Capital Spacing lookup 0 subtable" dx=5 dy=0 dh=10 dv=0
EndChar

StartChar: uni0181
Encoding: 385 385 41
Width: 630
GlyphClass: 2
Flags: W
AnchorPoint: "Anchor-18" 0 0 basechar 0
AnchorPoint: "Anchor-17" 0 0 basechar 0
AnchorPoint: "Anchor-16" 381 681 basechar 0
AnchorPoint: "Anchor-15" 0 0 basechar 0
AnchorPoint: "Anchor-14" 310 0 basechar 0
LayerCount: 2
Fore
SplineSet
520 318.5 m 128,-1,1
 560 282 560 282 560 215 c 0,2,3
 560 160 560 160 536 111.5 c 128,-1,4
 512 63 512 63 455 31.5 c 128,-1,5
 398 0 398 0 306 0 c 2,6,-1
 129 0 l 1,7,-1
 222 661 l 1,8,-1
 190 661 l 2,9,10
 140 661 140 661 115 635.5 c 128,-1,11
 90 610 90 610 90 569 c 0,12,13
 90 550 90 550 94 537 c 128,-1,14
 98 524 98 524 106 507 c 1,15,-1
 87 498 l 1,16,17
 77 517 77 517 72.5 532 c 128,-1,18
 68 547 68 547 68 569 c 0,19,20
 68 619 68 619 100.5 650 c 128,-1,21
 133 681 133 681 193 681 c 2,22,-1
 372 681 l 2,23,24
 467 681 467 681 518.5 644.5 c 128,-1,25
 570 608 570 608 570 536 c 0,26,27
 570 465 570 465 527 417.5 c 128,-1,28
 484 370 484 370 414 361 c 1,29,0
 480 355 480 355 520 318.5 c 128,-1,1
204 370 m 1,30,-1
 370 370 l 2,31,32
 424 370 424 370 464 392 c 128,-1,33
 504 414 504 414 526 451.5 c 128,-1,34
 548 489 548 489 548 535 c 0,35,36
 548 598 548 598 503 629 c 128,-1,37
 458 660 458 660 374 660 c 2,38,-1
 245 660 l 1,39,-1
 204 370 l 1,30,-1
484 77.5 m 128,-1,41
 537 134 537 134 537 216 c 0,42,43
 537 281 537 281 493 315.5 c 128,-1,44
 449 350 449 350 374 350 c 2,45,-1
 201 350 l 1,46,-1
 155 21 l 1,47,-1
 309 21 l 2,48,40
 431 21 431 21 484 77.5 c 128,-1,41
EndSplineSet
Substitution2: "'ss02' Style Set 2 lookup 35 subtable" uni0181.ss02
Substitution2: "'c2sc' Capitals to Small Capitals lookup 27 subtable" uni0253.sc
AlternateSubs2: "'aalt' Access All Alternates lookup 1 subtable" uni0253.sc uni0181.ss02
Position2: "'cpsp' Capital Spacing lookup 0 subtable" dx=5 dy=0 dh=10 dv=0
EndChar

StartChar: uni0243
Encoding: 579 579 42
Width: 591
GlyphClass: 2
Flags: W
AnchorPoint: "Anchor-18" 0 0 basechar 0
AnchorPoint: "Anchor-17" 0 0 basechar 0
AnchorPoint: "Anchor-16" 342 681 basechar 0
AnchorPoint: "Anchor-15" 0 0 basechar 0
AnchorPoint: "Anchor-14" 271 0 basechar 0
LayerCount: 2
Fore
SplineSet
481 318.5 m 128,-1,1
 521 282 521 282 521 215 c 0,2,3
 521 160 521 160 497 111.5 c 128,-1,4
 473 63 473 63 416 31.5 c 128,-1,5
 359 0 359 0 267 0 c 2,6,-1
 90 0 l 1,7,-1
 116 183 l 1,8,-1
 26 183 l 1,9,-1
 29 204 l 1,10,-1
 119 204 l 1,11,-1
 186 681 l 1,12,-1
 333 681 l 2,13,14
 428 681 428 681 479.5 644.5 c 128,-1,15
 531 608 531 608 531 536 c 0,16,17
 531 465 531 465 488 417.5 c 128,-1,18
 445 370 445 370 375 361 c 1,19,0
 441 355 441 355 481 318.5 c 128,-1,1
165 370 m 1,20,-1
 331 370 l 2,21,22
 385 370 385 370 425 392 c 128,-1,23
 465 414 465 414 487 451.5 c 128,-1,24
 509 489 509 489 509 535 c 0,25,26
 509 598 509 598 464 629 c 128,-1,27
 419 660 419 660 335 660 c 2,28,-1
 206 660 l 1,29,-1
 165 370 l 1,20,-1
445 77.5 m 128,-1,31
 498 134 498 134 498 216 c 0,32,33
 498 281 498 281 454 315.5 c 128,-1,34
 410 350 410 350 335 350 c 2,35,-1
 162 350 l 1,36,-1
 142 204 l 1,37,-1
 335 204 l 1,38,-1
 332 183 l 1,39,-1
 139 183 l 1,40,-1
 116 21 l 1,41,-1
 270 21 l 2,42,30
 392 21 392 21 445 77.5 c 128,-1,31
EndSplineSet
Substitution2: "'c2sc' Capitals to Small Capitals lookup 27 subtable" uni0180.sc
Substitution2: "'aalt' Access All Alternates lookup 0 subtable" uni0180.sc
Position2: "'cpsp' Capital Spacing lookup 0 subtable" dx=5 dy=0 dh=10 dv=0
EndChar

StartChar: C
Encoding: 67 67 44
Width: 538
GlyphClass: 2
Flags: W
AnchorPoint: "Anchor-18" 0 0 basechar 0
AnchorPoint: "Anchor-17" 0 0 basechar 0
AnchorPoint: "Anchor-16" 401 681 basechar 0
AnchorPoint: "Anchor-15" 0 0 basechar 0
AnchorPoint: "Anchor-14" 304 0 basechar 0
LayerCount: 2
Fore
SplineSet
490.5 676.5 m 128,-1,1
 526 662 526 662 556 633 c 1,2,-1
 542 617 l 1,3,4
 511 645 511 645 480.5 657.5 c 128,-1,5
 450 670 450 670 404 670 c 0,6,7
 300 670 300 670 233 605.5 c 128,-1,8
 166 541 166 541 136 446.5 c 128,-1,9
 106 352 106 352 106 258 c 0,10,11
 106 139 106 139 160 75.5 c 128,-1,12
 214 12 214 12 306 12 c 0,13,14
 359 12 359 12 396.5 27.5 c 128,-1,15
 434 43 434 43 471 71 c 1,16,-1
 484 53 l 1,17,18
 403 -10 403 -10 305 -10 c 0,19,20
 204 -10 204 -10 143.5 59.5 c 128,-1,21
 83 129 83 129 83 257 c 0,22,23
 83 357 83 357 115.5 456.5 c 128,-1,24
 148 556 148 556 220 623.5 c 128,-1,25
 292 691 292 691 403 691 c 0,26,0
 455 691 455 691 490.5 676.5 c 128,-1,1
EndSplineSet
Substitution2: "'c2sc' Capitals to Small Capitals lookup 27 subtable" c.sc
Substitution2: "'aalt' Access All Alternates lookup 0 subtable" c.sc
Position2: "'cpsp' Capital Spacing lookup 0 subtable" dx=5 dy=0 dh=10 dv=0
EndChar

StartChar: Ccedilla
Encoding: 199 199 47
Width: 538
GlyphClass: 2
Flags: W
AnchorPoint: "Anchor-18" 0 0 basechar 0
AnchorPoint: "Anchor-17" 0 0 basechar 0
AnchorPoint: "Anchor-16" 401 681 basechar 0
AnchorPoint: "Anchor-15" 0 0 basechar 0
AnchorPoint: "Anchor-14" 304 -212 basechar 0
LayerCount: 2
Fore
SplineSet
233 605.5 m 128,-1,1
 166 541 166 541 136 446.5 c 128,-1,2
 106 352 106 352 106 258 c 0,3,4
 106 139 106 139 160 75.5 c 128,-1,5
 214 12 214 12 306 12 c 0,6,7
 359 12 359 12 396.5 27.5 c 128,-1,8
 434 43 434 43 471 71 c 1,9,-1
 484 53 l 1,10,11
 404 -9 404 -9 310 -10 c 1,12,-1
 298 -74 l 1,13,14
 341 -77 341 -77 361.5 -92.5 c 128,-1,15
 382 -108 382 -108 382 -138 c 0,16,17
 382 -172 382 -172 356 -192 c 128,-1,18
 330 -212 330 -212 289 -212 c 0,19,20
 249 -212 249 -212 222 -194 c 1,21,-1
 232 -178 l 1,22,23
 255 -192 255 -192 289 -192 c 0,24,25
 321 -192 321 -192 340 -178 c 128,-1,26
 359 -164 359 -164 359 -138 c 0,27,28
 359 -113 359 -113 340 -102.5 c 128,-1,29
 321 -92 321 -92 276 -91 c 1,30,-1
 292 -10 l 1,31,32
 196 -5 196 -5 139.5 64.5 c 128,-1,33
 83 134 83 134 83 257 c 0,34,35
 83 357 83 357 115.5 456.5 c 128,-1,36
 148 556 148 556 220 623.5 c 128,-1,37
 292 691 292 691 403 691 c 0,38,39
 455 691 455 691 490.5 676.5 c 128,-1,40
 526 662 526 662 556 633 c 1,41,-1
 542 617 l 1,42,43
 511 645 511 645 480.5 657.5 c 128,-1,44
 450 670 450 670 404 670 c 0,45,0
 300 670 300 670 233 605.5 c 128,-1,1
EndSplineSet
Substitution2: "'c2sc' Capitals to Small Capitals lookup 27 subtable" ccedilla.sc
Substitution2: "'aalt' Access All Alternates lookup 0 subtable" ccedilla.sc
Position2: "'cpsp' Capital Spacing lookup 0 subtable" dx=5 dy=0 dh=10 dv=0
EndChar

StartChar: uniA7B3
Encoding: 42931 42931 50
Width: 478
GlyphClass: 2
Flags: W
AnchorPoint: "Anchor-18" 0 0 basechar 0
AnchorPoint: "Anchor-17" 0 0 basechar 0
AnchorPoint: "Anchor-16" 297 681 basechar 0
AnchorPoint: "Anchor-15" 0 0 basechar 0
AnchorPoint: "Anchor-14" 0 0 basechar 0
LayerCount: 2
Fore
SplineSet
489 681 m 1,0,-1
 258 322 l 1,1,-1
 412 -99 l 1,2,-1
 387 -99 l 1,3,-1
 244 308 l 1,4,-1
 -8 -99 l 1,5,-1
 -34 -99 l 1,6,-1
 231 321 l 1,7,-1
 100 681 l 1,8,-1
 124 681 l 1,9,-1
 246 335 l 1,10,-1
 463 681 l 1,11,-1
 489 681 l 1,0,-1
EndSplineSet
Substitution2: "'c2sc' Capitals to Small Capitals lookup 27 subtable" uniA7B3.sc
Substitution2: "'aalt' Access All Alternates lookup 0 subtable" uniA7B3.sc
Position2: "'cpsp' Capital Spacing lookup 0 subtable" dx=5 dy=0 dh=10 dv=0
EndChar

StartChar: uni0187
Encoding: 391 391 51
Width: 538
GlyphClass: 2
Flags: W
AnchorPoint: "Anchor-18" 0 0 basechar 0
AnchorPoint: "Anchor-17" 0 0 basechar 0
AnchorPoint: "Anchor-16" 328 681 basechar 0
AnchorPoint: "Anchor-15" 0 0 basechar 0
AnchorPoint: "Anchor-14" 233 0 basechar 0
LayerCount: 2
Fore
SplineSet
742 783 m 1,1,-1
 729 769 l 1,2,3
 699 794 699 794 657 794 c 0,4,5
 622 794 622 794 597.5 771.5 c 128,-1,6
 573 749 573 749 567 702 c 2,7,-1
 556 633 l 1,8,-1
 544 619 l 1,9,10
 512 645 512 645 480 657.5 c 128,-1,11
 448 670 448 670 403 670 c 0,12,13
 300 670 300 670 233 605.5 c 128,-1,14
 166 541 166 541 136 446.5 c 128,-1,15
 106 352 106 352 106 258 c 0,16,17
 106 139 106 139 160 75.5 c 128,-1,18
 214 12 214 12 306 12 c 0,19,20
 359 12 359 12 396.5 27.5 c 128,-1,21
 434 43 434 43 471 71 c 1,22,-1
 484 53 l 1,23,24
 403 -10 403 -10 305 -10 c 0,25,26
 203 -10 203 -10 143 59.5 c 128,-1,27
 83 129 83 129 83 257 c 0,28,29
 83 357 83 357 115.5 456.5 c 128,-1,30
 148 556 148 556 220 623.5 c 128,-1,31
 292 691 292 691 403 691 c 0,32,33
 482 691 482 691 537 648 c 1,34,-1
 545 704 l 2,35,36
 552 758 552 758 582 786 c 128,-1,37
 612 814 612 814 656 814 c 0,38,0
 705 814 705 814 742 783 c 1,1,-1
EndSplineSet
Substitution2: "'c2sc' Capitals to Small Capitals lookup 27 subtable" uni0188.sc
Substitution2: "'aalt' Access All Alternates lookup 0 subtable" uni0188.sc
Position2: "'cpsp' Capital Spacing lookup 0 subtable" dx=5 dy=0 dh=10 dv=0
EndChar

StartChar: uni023B
Encoding: 571 571 52
Width: 538
GlyphClass: 2
Flags: W
AnchorPoint: "Anchor-18" 0 0 basechar 0
AnchorPoint: "Anchor-17" 0 0 basechar 0
AnchorPoint: "Anchor-16" 328 681 basechar 0
AnchorPoint: "Anchor-15" 0 0 basechar 0
AnchorPoint: "Anchor-14" 232 0 basechar 0
LayerCount: 2
Fore
SplineSet
457 665 m 1,1,-1
 205 38 l 1,2,3
 249 12 249 12 306 12 c 0,4,5
 359 12 359 12 396.5 27.5 c 128,-1,6
 434 43 434 43 471 71 c 1,7,-1
 484 53 l 1,8,9
 403 -10 403 -10 305 -10 c 0,10,11
 243 -10 243 -10 196 16 c 1,12,-1
 163 -66 l 1,13,-1
 146 -62 l 1,14,-1
 181 26 l 1,15,16
 134 57 134 57 108.5 116 c 128,-1,17
 83 175 83 175 83 257 c 0,18,19
 83 357 83 357 115.5 456.5 c 128,-1,20
 148 556 148 556 220 623.5 c 128,-1,21
 292 691 292 691 403 691 c 0,22,23
 427 691 427 691 447 688 c 1,24,-1
 467 737 l 1,25,-1
 484 732 l 1,26,-1
 465 684 l 1,27,28
 515 672 515 672 556 633 c 1,29,-1
 542 617 l 1,30,0
 500 655 500 655 457 665 c 1,1,-1
439 668 m 1,31,32
 417 670 417 670 404 670 c 0,33,34
 300 670 300 670 233 605.5 c 128,-1,35
 166 541 166 541 136 446.5 c 128,-1,36
 106 352 106 352 106 258 c 0,37,38
 106 183 106 183 127.5 130 c 128,-1,39
 149 77 149 77 190 47 c 1,40,-1
 439 668 l 1,31,32
EndSplineSet
Substitution2: "'c2sc' Capitals to Small Capitals lookup 27 subtable" uni023C.sc
Substitution2: "'aalt' Access All Alternates lookup 0 subtable" uni023C.sc
Position2: "'cpsp' Capital Spacing lookup 0 subtable" dx=5 dy=0 dh=10 dv=0
EndChar

StartChar: D
Encoding: 68 68 53
Width: 619
GlyphClass: 2
Flags: W
AnchorPoint: "Anchor-18" 326 341 basechar 0
AnchorPoint: "Anchor-17" 0 0 basechar 0
AnchorPoint: "Anchor-16" 354 681 basechar 0
AnchorPoint: "Anchor-15" 0 0 basechar 0
AnchorPoint: "Anchor-14" 252 0 basechar 0
LayerCount: 2
Fore
SplineSet
489 627 m 128,-1,1
 560 573 560 573 560 431 c 0,2,3
 560 319 560 319 525.5 221.5 c 128,-1,4
 491 124 491 124 413 62 c 128,-1,5
 335 0 335 0 213 0 c 2,6,-1
 86 0 l 1,7,-1
 182 681 l 1,8,-1
 303 681 l 2,9,0
 418 681 418 681 489 627 c 128,-1,1
202 660 m 1,10,-1
 112 21 l 1,11,-1
 216 21 l 2,12,13
 330 21 330 21 402 80.5 c 128,-1,14
 474 140 474 140 505.5 233 c 128,-1,15
 537 326 537 326 537 432 c 0,16,17
 537 565 537 565 471.5 612.5 c 128,-1,18
 406 660 406 660 299 660 c 2,19,-1
 202 660 l 1,10,-1
EndSplineSet
Substitution2: "'c2sc' Capitals to Small Capitals lookup 27 subtable" d.sc
Substitution2: "'aalt' Access All Alternates lookup 0 subtable" d.sc
Position2: "'cpsp' Capital Spacing lookup 0 subtable" dx=5 dy=0 dh=10 dv=0
EndChar

StartChar: Eth
Encoding: 208 208 57
Width: 621
GlyphClass: 2
Flags: W
AnchorPoint: "Anchor-18" 327 341 basechar 0
AnchorPoint: "Anchor-17" 0 0 basechar 0
AnchorPoint: "Anchor-16" 355 681 basechar 0
AnchorPoint: "Anchor-15" 0 0 basechar 0
AnchorPoint: "Anchor-14" 253 0 basechar 0
LayerCount: 2
Fore
SplineSet
490 627 m 128,-1,1
 561 573 561 573 561 431 c 0,2,3
 561 319 561 319 526.5 221.5 c 128,-1,4
 492 124 492 124 414 62 c 128,-1,5
 336 0 336 0 214 0 c 2,6,-1
 87 0 l 1,7,-1
 135 343 l 1,8,-1
 48 343 l 1,9,-1
 51 363 l 1,10,-1
 138 363 l 1,11,-1
 183 681 l 1,12,-1
 304 681 l 2,13,0
 419 681 419 681 490 627 c 128,-1,1
403 80.5 m 128,-1,15
 475 140 475 140 506.5 233 c 128,-1,16
 538 326 538 326 538 432 c 0,17,18
 538 565 538 565 472.5 612.5 c 128,-1,19
 407 660 407 660 300 660 c 2,20,-1
 203 660 l 1,21,-1
 161 363 l 1,22,-1
 357 363 l 1,23,-1
 354 343 l 1,24,-1
 158 343 l 1,25,-1
 113 21 l 1,26,-1
 217 21 l 2,27,14
 331 21 331 21 403 80.5 c 128,-1,15
EndSplineSet
Substitution2: "'c2sc' Capitals to Small Capitals lookup 27 subtable" eth.sc
Substitution2: "'aalt' Access All Alternates lookup 0 subtable" eth.sc
Position2: "'cpsp' Capital Spacing lookup 0 subtable" dx=5 dy=0 dh=10 dv=0
EndChar

StartChar: uni018A
Encoding: 394 394 63
Width: 663
GlyphClass: 2
Flags: W
AnchorPoint: "Anchor-18" 369 341 basechar 0
AnchorPoint: "Anchor-17" 0 0 basechar 0
AnchorPoint: "Anchor-16" 397 681 basechar 0
AnchorPoint: "Anchor-15" 0 0 basechar 0
AnchorPoint: "Anchor-14" 295 0 basechar 0
LayerCount: 2
Fore
SplineSet
532 627 m 128,-1,1
 603 573 603 573 603 431 c 0,2,3
 603 319 603 319 568.5 221.5 c 128,-1,4
 534 124 534 124 456 62 c 128,-1,5
 378 0 378 0 256 0 c 2,6,-1
 129 0 l 1,7,-1
 222 661 l 1,8,-1
 190 661 l 2,9,10
 140 661 140 661 115 635.5 c 128,-1,11
 90 610 90 610 90 569 c 0,12,13
 90 550 90 550 94 537 c 128,-1,14
 98 524 98 524 106 507 c 1,15,-1
 87 498 l 1,16,17
 77 517 77 517 72.5 532 c 128,-1,18
 68 547 68 547 68 569 c 0,19,20
 68 619 68 619 100.5 650 c 128,-1,21
 133 681 133 681 193 681 c 2,22,-1
 346 681 l 2,23,0
 461 681 461 681 532 627 c 128,-1,1
445 80.5 m 128,-1,25
 517 140 517 140 548.5 233 c 128,-1,26
 580 326 580 326 580 432 c 0,27,28
 580 565 580 565 514.5 612.5 c 128,-1,29
 449 660 449 660 342 660 c 2,30,-1
 245 660 l 1,31,-1
 155 21 l 1,32,-1
 259 21 l 2,33,24
 373 21 373 21 445 80.5 c 128,-1,25
EndSplineSet
Substitution2: "'c2sc' Capitals to Small Capitals lookup 27 subtable" uni0257.sc
Substitution2: "'aalt' Access All Alternates lookup 0 subtable" uni0257.sc
Position2: "'cpsp' Capital Spacing lookup 0 subtable" dx=5 dy=0 dh=10 dv=0
EndChar

StartChar: uni018B
Encoding: 395 395 65
Width: 563
GlyphClass: 2
Flags: W
AnchorPoint: "Anchor-18" 0 0 basechar 0
AnchorPoint: "Anchor-17" 0 0 basechar 0
AnchorPoint: "Anchor-16" 342 681 basechar 0
AnchorPoint: "Anchor-15" 0 0 basechar 0
AnchorPoint: "Anchor-14" 246 0 basechar 0
LayerCount: 2
Fore
SplineSet
403 0 m 1,0,-1
 243 0 l 2,1,2
 154 0 154 0 102.5 45 c 128,-1,3
 51 90 51 90 51 181 c 0,4,5
 51 250 51 250 83 300.5 c 128,-1,6
 115 351 115 351 174 378 c 128,-1,7
 233 405 233 405 311 405 c 2,8,-1
 438 405 l 1,9,-1
 473 660 l 1,10,-1
 183 660 l 1,11,-1
 186 681 l 1,12,-1
 499 681 l 1,13,-1
 403 0 l 1,0,-1
435 384 m 1,14,-1
 309 384 l 2,15,16
 200 384 200 384 136.5 329 c 128,-1,17
 73 274 73 274 73 181 c 0,18,19
 73 98 73 98 118.5 59.5 c 128,-1,20
 164 21 164 21 247 21 c 2,21,-1
 384 21 l 1,22,-1
 435 384 l 1,14,-1
EndSplineSet
Substitution2: "'c2sc' Capitals to Small Capitals lookup 27 subtable" uni018C.sc
Substitution2: "'aalt' Access All Alternates lookup 0 subtable" uni018C.sc
Position2: "'cpsp' Capital Spacing lookup 0 subtable" dx=5 dy=0 dh=10 dv=0
EndChar

StartChar: E
Encoding: 69 69 68
Width: 494
GlyphClass: 2
Flags: W
AnchorPoint: "Anchor-18" 0 0 basechar 0
AnchorPoint: "Anchor-17" 0 0 basechar 0
AnchorPoint: "Anchor-16" 346 681 basechar 0
AnchorPoint: "Anchor-15" 398 0 basechar 0
AnchorPoint: "Anchor-14" 247 0 basechar 0
LayerCount: 2
Fore
SplineSet
503 681 m 1,0,-1
 497 660 l 1,1,-1
 202 660 l 1,2,-1
 161 370 l 1,3,-1
 416 370 l 1,4,-1
 413 349 l 1,5,-1
 158 349 l 1,6,-1
 112 21 l 1,7,-1
 418 21 l 1,8,-1
 414 0 l 1,9,-1
 86 0 l 1,10,-1
 182 681 l 1,11,-1
 503 681 l 1,0,-1
EndSplineSet
Substitution2: "'c2sc' Capitals to Small Capitals lookup 27 subtable" e.sc
Substitution2: "'aalt' Access All Alternates lookup 0 subtable" e.sc
Position2: "'cpsp' Capital Spacing lookup 0 subtable" dx=5 dy=0 dh=10 dv=0
EndChar

StartChar: uni0228
Encoding: 552 552 72
Width: 494
GlyphClass: 2
Flags: W
AnchorPoint: "Anchor-18" 0 0 basechar 0
AnchorPoint: "Anchor-17" 0 0 basechar 0
AnchorPoint: "Anchor-16" 346 681 basechar 0
AnchorPoint: "Anchor-15" 398 0 basechar 0
AnchorPoint: "Anchor-14" 247 0 basechar 0
LayerCount: 2
Fore
SplineSet
202 660 m 1,0,-1
 161 370 l 1,1,-1
 416 370 l 1,2,-1
 413 349 l 1,3,-1
 158 349 l 1,4,-1
 112 21 l 1,5,-1
 418 21 l 1,6,-1
 414 0 l 1,7,-1
 255 0 l 1,8,-1
 241 -74 l 1,9,10
 284 -77 284 -77 304.5 -92 c 128,-1,11
 325 -107 325 -107 325 -137 c 0,12,13
 325 -171 325 -171 298.5 -191.5 c 128,-1,14
 272 -212 272 -212 232 -212 c 256,15,16
 192 -212 192 -212 165 -194 c 1,17,-1
 175 -178 l 1,18,19
 198 -192 198 -192 232 -192 c 0,20,21
 264 -192 264 -192 283 -177.5 c 128,-1,22
 302 -163 302 -163 302 -138 c 256,23,24
 302 -113 302 -113 283 -102.5 c 128,-1,25
 264 -92 264 -92 219 -91 c 1,26,-1
 238 0 l 1,27,-1
 86 0 l 1,28,-1
 182 681 l 1,29,-1
 503 681 l 1,30,-1
 497 660 l 1,31,-1
 202 660 l 1,0,-1
EndSplineSet
Substitution2: "'c2sc' Capitals to Small Capitals lookup 27 subtable" uni0229.sc
Substitution2: "'aalt' Access All Alternates lookup 0 subtable" uni0229.sc
Position2: "'cpsp' Capital Spacing lookup 0 subtable" dx=5 dy=0 dh=10 dv=0
EndChar

StartChar: uni1EBE
Encoding: 7870 7870 74
Width: 494
GlyphClass: 2
Flags: W
AnchorPoint: "Anchor-18" 0 0 basechar 0
AnchorPoint: "Anchor-17" 426 692 basechar 0
AnchorPoint: "Anchor-16" 366 840 basechar 0
AnchorPoint: "Anchor-15" 398 0 basechar 0
AnchorPoint: "Anchor-14" 0 0 basechar 0
LayerCount: 2
Fore
SplineSet
548 953 m 1,0,-1
 564 934 l 1,1,-1
 446 824 l 1,2,-1
 435 836 l 1,3,-1
 548 953 l 1,0,-1
238 737 m 1,4,-1
 228 751 l 1,5,-1
 360 840 l 1,6,-1
 372 840 l 1,7,-1
 479 750 l 1,8,-1
 467 737 l 1,9,-1
 365 816 l 1,10,-1
 238 737 l 1,4,-1
503 681 m 1,11,-1
 497 660 l 1,12,-1
 202 660 l 1,13,-1
 161 370 l 1,14,-1
 416 370 l 1,15,-1
 413 349 l 1,16,-1
 158 349 l 1,17,-1
 112 21 l 1,18,-1
 418 21 l 1,19,-1
 414 0 l 1,20,-1
 86 0 l 1,21,-1
 182 681 l 1,22,-1
 503 681 l 1,11,-1
EndSplineSet
Substitution2: "'c2sc' Capitals to Small Capitals lookup 27 subtable" uni1EBF.sc
Substitution2: "'aalt' Access All Alternates lookup 0 subtable" uni1EBF.sc
Position2: "'cpsp' Capital Spacing lookup 0 subtable" dx=5 dy=0 dh=10 dv=0
EndChar

StartChar: uni1EC0
Encoding: 7872 7872 76
Width: 494
GlyphClass: 2
Flags: W
AnchorPoint: "Anchor-18" 0 0 basechar 0
AnchorPoint: "Anchor-17" 423 692 basechar 0
AnchorPoint: "Anchor-16" 363 840 basechar 0
AnchorPoint: "Anchor-15" 398 0 basechar 0
AnchorPoint: "Anchor-14" 0 0 basechar 0
LayerCount: 2
Fore
SplineSet
204 953 m 1,0,-1
 285 834 l 1,1,-1
 271 824 l 1,2,-1
 184 937 l 1,3,-1
 204 953 l 1,0,-1
235 737 m 1,4,-1
 225 751 l 1,5,-1
 357 840 l 1,6,-1
 369 840 l 1,7,-1
 476 750 l 1,8,-1
 464 737 l 1,9,-1
 362 816 l 1,10,-1
 235 737 l 1,4,-1
503 681 m 1,11,-1
 497 660 l 1,12,-1
 202 660 l 1,13,-1
 161 370 l 1,14,-1
 416 370 l 1,15,-1
 413 349 l 1,16,-1
 158 349 l 1,17,-1
 112 21 l 1,18,-1
 418 21 l 1,19,-1
 414 0 l 1,20,-1
 86 0 l 1,21,-1
 182 681 l 1,22,-1
 503 681 l 1,11,-1
EndSplineSet
Substitution2: "'c2sc' Capitals to Small Capitals lookup 27 subtable" uni1EC1.sc
Substitution2: "'aalt' Access All Alternates lookup 0 subtable" uni1EC1.sc
Position2: "'cpsp' Capital Spacing lookup 0 subtable" dx=5 dy=0 dh=10 dv=0
EndChar

StartChar: uni1EC4
Encoding: 7876 7876 78
Width: 494
GlyphClass: 2
Flags: W
AnchorPoint: "Anchor-18" 0 0 basechar 0
AnchorPoint: "Anchor-17" 423 692 basechar 0
AnchorPoint: "Anchor-16" 375 943 basechar 0
AnchorPoint: "Anchor-15" 398 0 basechar 0
AnchorPoint: "Anchor-14" 0 0 basechar 0
LayerCount: 2
Fore
SplineSet
400 884.5 m 128,-1,1
 387 890 387 890 366 902 c 0,2,3
 350 912 350 912 339 917 c 128,-1,4
 328 922 328 922 316 922 c 0,5,6
 297 922 297 922 284.5 914.5 c 128,-1,7
 272 907 272 907 251 886 c 1,8,-1
 238 896 l 1,9,10
 258 919 258 919 277 930.5 c 128,-1,11
 296 942 296 942 316 942 c 0,12,13
 330 942 330 942 341.5 937 c 128,-1,14
 353 932 353 932 373 921 c 0,15,16
 389 910 389 910 402 904.5 c 128,-1,17
 415 899 415 899 429 899 c 0,18,19
 445 899 445 899 460 908.5 c 128,-1,20
 475 918 475 918 493 940 c 1,21,-1
 507 931 l 1,22,23
 487 903 487 903 468.5 891 c 128,-1,24
 450 879 450 879 429 879 c 0,25,0
 413 879 413 879 400 884.5 c 128,-1,1
235 737 m 1,26,-1
 225 751 l 1,27,-1
 357 840 l 1,28,-1
 369 840 l 1,29,-1
 476 750 l 1,30,-1
 464 737 l 1,31,-1
 362 816 l 1,32,-1
 235 737 l 1,26,-1
503 681 m 1,33,-1
 497 660 l 1,34,-1
 202 660 l 1,35,-1
 161 370 l 1,36,-1
 416 370 l 1,37,-1
 413 349 l 1,38,-1
 158 349 l 1,39,-1
 112 21 l 1,40,-1
 418 21 l 1,41,-1
 414 0 l 1,42,-1
 86 0 l 1,43,-1
 182 681 l 1,44,-1
 503 681 l 1,33,-1
EndSplineSet
Substitution2: "'c2sc' Capitals to Small Capitals lookup 27 subtable" uni1EC5.sc
Substitution2: "'aalt' Access All Alternates lookup 0 subtable" uni1EC5.sc
Position2: "'cpsp' Capital Spacing lookup 0 subtable" dx=5 dy=0 dh=10 dv=0
EndChar

StartChar: Eogonek
Encoding: 280 280 87
Width: 494
GlyphClass: 2
Flags: W
AnchorPoint: "Anchor-18" 0 0 basechar 0
AnchorPoint: "Anchor-17" 0 0 basechar 0
AnchorPoint: "Anchor-16" 346 681 basechar 0
AnchorPoint: "Anchor-15" 398 0 basechar 0
AnchorPoint: "Anchor-14" 247 0 basechar 0
LayerCount: 2
Fore
SplineSet
202 660 m 1,0,-1
 161 370 l 1,1,-1
 416 370 l 1,2,-1
 413 349 l 1,3,-1
 158 349 l 1,4,-1
 112 21 l 1,5,-1
 418 21 l 1,6,-1
 414 0 l 1,7,-1
 389 0 l 1,8,9
 317 -29 317 -29 281.5 -57.5 c 128,-1,10
 246 -86 246 -86 246 -126 c 0,11,12
 246 -181 246 -181 309 -181 c 0,13,14
 333 -181 333 -181 364 -174 c 1,15,-1
 359 -196 l 1,16,17
 331 -203 331 -203 306 -203 c 0,18,19
 265 -203 265 -203 243.5 -184.5 c 128,-1,20
 222 -166 222 -166 222 -135 c 0,21,22
 222 -89 222 -89 254.5 -58 c 128,-1,23
 287 -27 287 -27 350 0 c 1,24,-1
 86 0 l 1,25,-1
 182 681 l 1,26,-1
 503 681 l 1,27,-1
 497 660 l 1,28,-1
 202 660 l 1,0,-1
EndSplineSet
Substitution2: "'c2sc' Capitals to Small Capitals lookup 27 subtable" eogonek.sc
Substitution2: "'aalt' Access All Alternates lookup 0 subtable" eogonek.sc
Position2: "'cpsp' Capital Spacing lookup 0 subtable" dx=5 dy=0 dh=10 dv=0
EndChar

StartChar: uni0190
Encoding: 400 400 88
Width: 517
GlyphClass: 2
Flags: W
AnchorPoint: "Anchor-18" 0 0 basechar 0
AnchorPoint: "Anchor-17" 0 0 basechar 0
AnchorPoint: "Anchor-16" 334 681 basechar 0
AnchorPoint: "Anchor-15" 0 0 basechar 0
AnchorPoint: "Anchor-14" 239 0 basechar 0
LayerCount: 2
Fore
SplineSet
428 670.5 m 128,-1,1
 471 650 471 650 510 607 c 1,2,-1
 494 594 l 1,3,4
 461 631 461 631 420 650.5 c 128,-1,5
 379 670 379 670 324 670 c 0,6,7
 272 670 272 670 230.5 649.5 c 128,-1,8
 189 629 189 629 165.5 591.5 c 128,-1,9
 142 554 142 554 142 506 c 0,10,11
 142 446 142 446 183 413 c 128,-1,12
 224 380 224 380 293 380 c 2,13,-1
 348 380 l 1,14,-1
 343 359 l 1,15,-1
 287 360 l 2,16,17
 190 361 190 361 132 308 c 128,-1,18
 74 255 74 255 74 166 c 0,19,20
 74 92 74 92 119 52 c 128,-1,21
 164 12 164 12 240 12 c 0,22,23
 298 12 298 12 348 33.5 c 128,-1,24
 398 55 398 55 444 97 c 1,25,-1
 459 82 l 1,26,27
 407 36 407 36 354 13 c 128,-1,28
 301 -10 301 -10 240 -10 c 0,29,30
 154 -10 154 -10 102 37 c 128,-1,31
 50 84 50 84 50 166 c 0,32,33
 50 255 50 255 102.5 309.5 c 128,-1,34
 155 364 155 364 236 371 c 1,35,36
 183 381 183 381 151 414.5 c 128,-1,37
 119 448 119 448 119 505 c 0,38,39
 119 559 119 559 145 601.5 c 128,-1,40
 171 644 171 644 218 667.5 c 128,-1,41
 265 691 265 691 324 691 c 0,42,0
 385 691 385 691 428 670.5 c 128,-1,1
EndSplineSet
Substitution2: "'c2sc' Capitals to Small Capitals lookup 27 subtable" uni025B.sc
Substitution2: "'aalt' Access All Alternates lookup 0 subtable" uni025B.sc
Position2: "'cpsp' Capital Spacing lookup 0 subtable" dx=5 dy=0 dh=10 dv=0
EndChar

StartChar: uni018E
Encoding: 398 398 89
Width: 494
GlyphClass: 2
Flags: W
LayerCount: 2
Fore
SplineSet
109 681 m 1,0,-1
 429 681 l 1,1,-1
 334 0 l 1,2,-1
 6 0 l 1,3,-1
 10 21 l 1,4,-1
 315 21 l 1,5,-1
 361 349 l 1,6,-1
 106 349 l 1,7,-1
 109 370 l 1,8,-1
 363 370 l 1,9,-1
 404 660 l 1,10,-1
 106 660 l 1,11,-1
 109 681 l 1,0,-1
EndSplineSet
Substitution2: "'c2sc' Capitals to Small Capitals lookup 27 subtable" uni0258.sc
Substitution2: "'aalt' Access All Alternates lookup 0 subtable" uni0258.sc
Position2: "'cpsp' Capital Spacing lookup 0 subtable" dx=5 dy=0 dh=10 dv=0
EndChar

StartChar: uni0246
Encoding: 582 582 91
Width: 494
GlyphClass: 2
Flags: W
AnchorPoint: "Anchor-18" 0 0 basechar 0
AnchorPoint: "Anchor-17" 0 0 basechar 0
AnchorPoint: "Anchor-16" 306 681 basechar 0
AnchorPoint: "Anchor-15" 398 0 basechar 0
AnchorPoint: "Anchor-14" 210 0 basechar 0
LayerCount: 2
Fore
SplineSet
497 660 m 1,0,-1
 437 660 l 1,1,-1
 320 370 l 1,2,-1
 416 370 l 1,3,-1
 413 349 l 1,4,-1
 312 349 l 1,5,-1
 180 21 l 1,6,-1
 418 21 l 1,7,-1
 414 0 l 1,8,-1
 172 0 l 1,9,-1
 145 -66 l 1,10,-1
 128 -62 l 1,11,-1
 153 0 l 1,12,-1
 86 0 l 1,13,-1
 182 681 l 1,14,-1
 427 681 l 1,15,-1
 450 737 l 1,16,-1
 466 732 l 1,17,-1
 445 681 l 1,18,-1
 503 681 l 1,19,-1
 497 660 l 1,0,-1
302 370 m 1,20,-1
 419 660 l 1,21,-1
 202 660 l 1,22,-1
 161 370 l 1,23,-1
 302 370 l 1,20,-1
161 21 m 1,24,-1
 294 349 l 1,25,-1
 158 349 l 1,26,-1
 112 21 l 1,27,-1
 161 21 l 1,24,-1
EndSplineSet
Substitution2: "'c2sc' Capitals to Small Capitals lookup 27 subtable" uni0247.sc
Substitution2: "'aalt' Access All Alternates lookup 0 subtable" uni0247.sc
Position2: "'cpsp' Capital Spacing lookup 0 subtable" dx=5 dy=0 dh=10 dv=0
EndChar

StartChar: uni01B7
Encoding: 439 439 93
Width: 473
GlyphClass: 2
Flags: W
AnchorPoint: "Anchor-18" 0 0 basechar 0
AnchorPoint: "Anchor-17" 0 0 basechar 0
AnchorPoint: "Anchor-16" 275 681 basechar 0
AnchorPoint: "Anchor-15" 0 0 basechar 0
AnchorPoint: "Anchor-14" 200 0 basechar 0
LayerCount: 2
Fore
SplineSet
451 662 m 1,0,-1
 173 373 l 1,1,-1
 221 373 l 2,2,3
 316 373 316 373 365 332.5 c 128,-1,4
 414 292 414 292 414 217 c 0,5,6
 414 151 414 151 384.5 99.5 c 128,-1,7
 355 48 355 48 301.5 19 c 128,-1,8
 248 -10 248 -10 180 -10 c 0,9,10
 116 -10 116 -10 72.5 11 c 128,-1,11
 29 32 29 32 -3 73 c 1,12,-1
 12 85 l 1,13,14
 45 47 45 47 83 29.5 c 128,-1,15
 121 12 121 12 179 12 c 0,16,17
 243 12 243 12 291 38 c 128,-1,18
 339 64 339 64 365 110.5 c 128,-1,19
 391 157 391 157 391 217 c 0,20,21
 391 286 391 286 347 319 c 128,-1,22
 303 352 303 352 221 352 c 2,23,-1
 142 352 l 1,24,-1
 145 373 l 1,25,-1
 420 661 l 1,26,-1
 93 661 l 1,27,-1
 96 681 l 1,28,-1
 454 681 l 1,29,-1
 451 662 l 1,0,-1
EndSplineSet
Substitution2: "'c2sc' Capitals to Small Capitals lookup 27 subtable" uni0292.sc
Substitution2: "'aalt' Access All Alternates lookup 0 subtable" uni0292.sc
Position2: "'cpsp' Capital Spacing lookup 0 subtable" dx=5 dy=0 dh=10 dv=0
EndChar

StartChar: uni01B8
Encoding: 440 440 95
Width: 474
GlyphClass: 2
Flags: W
AnchorPoint: "Anchor-18" 0 0 basechar 0
AnchorPoint: "Anchor-17" 0 0 basechar 0
AnchorPoint: "Anchor-16" 296 681 basechar 0
AnchorPoint: "Anchor-15" 0 0 basechar 0
AnchorPoint: "Anchor-14" 200 0 basechar 0
LayerCount: 2
Fore
SplineSet
493 661 m 1,0,-1
 163 661 l 1,1,-1
 360 374 l 1,2,-1
 358 352 l 1,3,-1
 280 352 l 2,4,5
 178 352 178 352 119.5 299.5 c 128,-1,6
 61 247 61 247 61 157 c 0,7,8
 61 89 61 89 102 50.5 c 128,-1,9
 143 12 143 12 215 12 c 0,10,11
 277 12 277 12 322 29.5 c 128,-1,12
 367 47 367 47 411 86 c 1,13,-1
 425 71 l 1,14,15
 379 30 379 30 330.5 10 c 128,-1,16
 282 -10 282 -10 215 -10 c 0,17,18
 135 -10 135 -10 86.5 35.5 c 128,-1,19
 38 81 38 81 38 157 c 0,20,21
 38 223 38 223 68.5 271.5 c 128,-1,22
 99 320 99 320 154 346.5 c 128,-1,23
 209 373 209 373 283 373 c 2,24,-1
 336 373 l 1,25,-1
 134 662 l 1,26,-1
 137 681 l 1,27,-1
 496 681 l 1,28,-1
 493 661 l 1,0,-1
EndSplineSet
Substitution2: "'c2sc' Capitals to Small Capitals lookup 27 subtable" uni01B9.sc
Substitution2: "'aalt' Access All Alternates lookup 0 subtable" uni01B9.sc
Position2: "'cpsp' Capital Spacing lookup 0 subtable" dx=5 dy=0 dh=10 dv=0
EndChar

StartChar: F
Encoding: 70 70 96
Width: 471
GlyphClass: 2
Flags: W
AnchorPoint: "Anchor-18" 0 0 basechar 0
AnchorPoint: "Anchor-17" 0 0 basechar 0
AnchorPoint: "Anchor-16" 340 681 basechar 0
AnchorPoint: "Anchor-15" 0 0 basechar 0
AnchorPoint: "Anchor-14" 98 0 basechar 0
LayerCount: 2
Fore
SplineSet
498 681 m 1,0,-1
 492 660 l 1,1,-1
 202 660 l 1,2,-1
 159 356 l 1,3,-1
 410 356 l 1,4,-1
 407 335 l 1,5,-1
 156 335 l 1,6,-1
 109 0 l 1,7,-1
 86 0 l 1,8,-1
 182 681 l 1,9,-1
 498 681 l 1,0,-1
EndSplineSet
Substitution2: "'c2sc' Capitals to Small Capitals lookup 27 subtable" f.sc
Substitution2: "'aalt' Access All Alternates lookup 0 subtable" f.sc
Position2: "'cpsp' Capital Spacing lookup 0 subtable" dx=5 dy=0 dh=10 dv=0
EndChar

StartChar: uni0191
Encoding: 401 401 98
Width: 471
GlyphClass: 2
Flags: W
AnchorPoint: "Anchor-18" 0 0 basechar 0
AnchorPoint: "Anchor-17" 0 0 basechar 0
AnchorPoint: "Anchor-16" 340 681 basechar 0
AnchorPoint: "Anchor-15" 0 0 basechar 0
AnchorPoint: "Anchor-14" 98 0 basechar 0
LayerCount: 2
Fore
SplineSet
202 660 m 1,0,-1
 159 356 l 1,1,-1
 410 356 l 1,2,-1
 407 335 l 1,3,-1
 156 335 l 1,4,-1
 109 0 l 1,5,-1
 97 -87 l 2,6,7
 89 -141 89 -141 58.5 -169 c 128,-1,8
 28 -197 28 -197 -16 -197 c 0,9,10
 -44 -197 -44 -197 -63.5 -188.5 c 128,-1,11
 -83 -180 -83 -180 -101 -166 c 1,12,-1
 -88 -151 l 1,13,14
 -73 -163 -73 -163 -56.5 -169.5 c 128,-1,15
 -40 -176 -40 -176 -16 -176 c 0,16,17
 18 -176 18 -176 42.5 -154 c 128,-1,18
 67 -132 67 -132 74 -84 c 2,19,-1
 86 0 l 1,20,-1
 182 681 l 1,21,-1
 498 681 l 1,22,-1
 492 660 l 1,23,-1
 202 660 l 1,0,-1
EndSplineSet
Substitution2: "'c2sc' Capitals to Small Capitals lookup 27 subtable" uni0191.sc
Substitution2: "'aalt' Access All Alternates lookup 0 subtable" uni0191.sc
Position2: "'cpsp' Capital Spacing lookup 0 subtable" dx=5 dy=0 dh=10 dv=0
EndChar

StartChar: G
Encoding: 71 71 99
Width: 605
GlyphClass: 2
Flags: W
AnchorPoint: "Anchor-18" 0 0 basechar 0
AnchorPoint: "Anchor-17" 0 0 basechar 0
AnchorPoint: "Anchor-16" 404 681 basechar 0
AnchorPoint: "Anchor-15" 0 0 basechar 0
AnchorPoint: "Anchor-14" 300 0 basechar 0
LayerCount: 2
Fore
SplineSet
493.5 676.5 m 128,-1,1
 532 662 532 662 568 632 c 1,2,-1
 554 617 l 1,3,4
 521 644 521 644 486 657 c 128,-1,5
 451 670 451 670 405 670 c 0,6,7
 308 670 308 670 241 609 c 128,-1,8
 174 548 174 548 140.5 453 c 128,-1,9
 107 358 107 358 107 257 c 0,10,11
 107 136 107 136 162 74 c 128,-1,12
 217 12 217 12 316 12 c 0,13,14
 364 12 364 12 403 22.5 c 128,-1,15
 442 33 442 33 480 53 c 1,16,-1
 520 333 l 1,17,-1
 375 333 l 1,18,-1
 375 354 l 1,19,-1
 546 354 l 1,20,-1
 502 40 l 1,21,22
 409 -10 409 -10 316 -10 c 0,23,24
 207 -10 207 -10 145 59 c 128,-1,25
 83 128 83 128 83 259 c 0,26,27
 83 365 83 365 120 464.5 c 128,-1,28
 157 564 157 564 230 627.5 c 128,-1,29
 303 691 303 691 405 691 c 0,30,0
 455 691 455 691 493.5 676.5 c 128,-1,1
EndSplineSet
Substitution2: "'c2sc' Capitals to Small Capitals lookup 27 subtable" g.sc
Substitution2: "'aalt' Access All Alternates lookup 0 subtable" g.sc
Position2: "'cpsp' Capital Spacing lookup 0 subtable" dx=5 dy=0 dh=10 dv=0
EndChar

StartChar: uni0194
Encoding: 404 404 101
Width: 534
GlyphClass: 2
Flags: W
AnchorPoint: "Anchor-18" 0 0 basechar 0
AnchorPoint: "Anchor-17" 0 0 basechar 0
AnchorPoint: "Anchor-16" 326 681 basechar 0
AnchorPoint: "Anchor-15" 0 0 basechar 0
AnchorPoint: "Anchor-14" 0 0 basechar 0
LayerCount: 2
Fore
SplineSet
251 54 m 1,0,1
 271 -14 271 -14 278.5 -44 c 128,-1,2
 286 -74 286 -74 286 -102 c 0,3,4
 286 -145 286 -145 264.5 -171 c 128,-1,5
 243 -197 243 -197 205 -197 c 0,6,7
 175 -197 175 -197 159 -180 c 128,-1,8
 143 -163 143 -163 143 -134 c 0,9,10
 143 -101 143 -101 161.5 -60.5 c 128,-1,11
 180 -20 180 -20 225 57 c 1,12,-1
 87 681 l 1,13,-1
 110 681 l 1,14,-1
 240 75 l 1,15,-1
 541 681 l 1,16,-1
 565 681 l 1,17,-1
 251 54 l 1,0,1
258 -48.5 m 128,-1,19
 252 -22 252 -22 235 37 c 1,20,21
 198 -28 198 -28 181.5 -65.5 c 128,-1,22
 165 -103 165 -103 165 -134 c 0,23,24
 165 -177 165 -177 205 -177 c 0,25,26
 234 -177 234 -177 249 -156.5 c 128,-1,27
 264 -136 264 -136 264 -102 c 0,28,18
 264 -75 264 -75 258 -48.5 c 128,-1,19
EndSplineSet
Substitution2: "'c2sc' Capitals to Small Capitals lookup 27 subtable" uni0194.sc
Substitution2: "'aalt' Access All Alternates lookup 0 subtable" uni0194.sc
Position2: "'cpsp' Capital Spacing lookup 0 subtable" dx=5 dy=0 dh=10 dv=0
EndChar

StartChar: uni0193
Encoding: 403 403 107
Width: 550
GlyphClass: 2
Flags: W
AnchorPoint: "Anchor-18" 0 0 basechar 0
AnchorPoint: "Anchor-17" 0 0 basechar 0
AnchorPoint: "Anchor-16" 334 681 basechar 0
AnchorPoint: "Anchor-15" 0 0 basechar 0
AnchorPoint: "Anchor-14" 239 0 basechar 0
LayerCount: 2
Fore
SplineSet
754 783 m 1,1,-1
 741 769 l 1,2,3
 711 794 711 794 669 794 c 0,4,5
 634 794 634 794 609.5 771.5 c 128,-1,6
 585 749 585 749 579 702 c 2,7,-1
 568 632 l 1,8,-1
 556 619 l 1,9,10
 521 645 521 645 485.5 657.5 c 128,-1,11
 450 670 450 670 405 670 c 0,12,13
 308 670 308 670 241 609 c 128,-1,14
 174 548 174 548 140.5 453 c 128,-1,15
 107 358 107 358 107 257 c 0,16,17
 107 136 107 136 162 74 c 128,-1,18
 217 12 217 12 316 12 c 0,19,20
 364 12 364 12 403 22.5 c 128,-1,21
 442 33 442 33 480 53 c 1,22,-1
 520 333 l 1,23,-1
 375 333 l 1,24,-1
 375 354 l 1,25,-1
 546 354 l 1,26,-1
 502 40 l 1,27,28
 409 -10 409 -10 316 -10 c 0,29,30
 207 -10 207 -10 145 59 c 128,-1,31
 83 128 83 128 83 259 c 0,32,33
 83 365 83 365 120 464.5 c 128,-1,34
 157 564 157 564 230 627.5 c 128,-1,35
 303 691 303 691 405 691 c 0,36,37
 493 691 493 691 549 647 c 1,38,-1
 557 704 l 2,39,40
 564 758 564 758 594 786 c 128,-1,41
 624 814 624 814 668 814 c 0,42,0
 717 814 717 814 754 783 c 1,1,-1
EndSplineSet
Substitution2: "'c2sc' Capitals to Small Capitals lookup 27 subtable" uni0260.sc
Substitution2: "'aalt' Access All Alternates lookup 0 subtable" uni0260.sc
Position2: "'cpsp' Capital Spacing lookup 0 subtable" dx=5 dy=0 dh=10 dv=0
EndChar

StartChar: uni0241
Encoding: 577 577 108
Width: 453
GlyphClass: 2
Flags: W
AnchorPoint: "Anchor-18" 0 0 basechar 0
AnchorPoint: "Anchor-17" 0 0 basechar 0
AnchorPoint: "Anchor-16" 286 681 basechar 0
AnchorPoint: "Anchor-15" 0 0 basechar 0
AnchorPoint: "Anchor-14" 141 0 basechar 0
LayerCount: 2
Fore
SplineSet
170 289 m 1,0,-1
 236 305 l 2,1,2
 331 327 331 327 378 379 c 128,-1,3
 425 431 425 431 425 520 c 0,4,5
 425 590 425 590 386.5 630 c 128,-1,6
 348 670 348 670 275 670 c 0,7,8
 223 670 223 670 176.5 650 c 128,-1,9
 130 630 130 630 84 593 c 1,10,-1
 71 609 l 1,11,12
 121 650 121 650 170 670.5 c 128,-1,13
 219 691 219 691 276 691 c 0,14,15
 358 691 358 691 403.5 644.5 c 128,-1,16
 449 598 449 598 449 520 c 0,17,18
 449 423 449 423 396.5 366.5 c 128,-1,19
 344 310 344 310 242 285 c 2,20,-1
 191 273 l 1,21,-1
 152 0 l 1,22,-1
 129 0 l 1,23,-1
 170 289 l 1,0,-1
EndSplineSet
Substitution2: "'c2sc' Capitals to Small Capitals lookup 27 subtable" uni0294.sc
Substitution2: "'aalt' Access All Alternates lookup 0 subtable" uni0294.sc
Position2: "'cpsp' Capital Spacing lookup 0 subtable" dx=5 dy=0 dh=10 dv=0
EndChar

StartChar: uni01E4
Encoding: 484 484 109
Width: 620
GlyphClass: 2
Flags: W
AnchorPoint: "Anchor-18" 0 0 basechar 0
AnchorPoint: "Anchor-17" 0 0 basechar 0
AnchorPoint: "Anchor-16" 369 681 basechar 0
AnchorPoint: "Anchor-15" 0 0 basechar 0
AnchorPoint: "Anchor-14" 273 0 basechar 0
LayerCount: 2
Fore
SplineSet
607 212 m 1,0,-1
 526 212 l 1,1,-1
 502 40 l 1,2,3
 409 -10 409 -10 316 -10 c 0,4,5
 207 -10 207 -10 145 59 c 128,-1,6
 83 128 83 128 83 259 c 0,7,8
 83 365 83 365 120 464.5 c 128,-1,9
 157 564 157 564 230 627.5 c 128,-1,10
 303 691 303 691 405 691 c 0,11,12
 455 691 455 691 493.5 676.5 c 128,-1,13
 532 662 532 662 568 632 c 1,14,-1
 553 617 l 1,15,16
 521 644 521 644 486 657 c 128,-1,17
 451 670 451 670 405 670 c 0,18,19
 308 670 308 670 241 609 c 128,-1,20
 174 548 174 548 140.5 453 c 128,-1,21
 107 358 107 358 107 257 c 0,22,23
 107 136 107 136 162 74 c 128,-1,24
 217 12 217 12 316 12 c 0,25,26
 364 12 364 12 403 22.5 c 128,-1,27
 442 33 442 33 480 53 c 1,28,-1
 503 212 l 1,29,-1
 363 212 l 1,30,-1
 366 233 l 1,31,-1
 506 233 l 1,32,-1
 520 333 l 1,33,-1
 375 333 l 1,34,-1
 375 354 l 1,35,-1
 546 354 l 1,36,-1
 529 233 l 1,37,-1
 610 233 l 1,38,-1
 607 212 l 1,0,-1
EndSplineSet
Substitution2: "'c2sc' Capitals to Small Capitals lookup 27 subtable" uni01E5.sc
Substitution2: "'aalt' Access All Alternates lookup 0 subtable" uni01E5.sc
Position2: "'cpsp' Capital Spacing lookup 0 subtable" dx=5 dy=0 dh=10 dv=0
EndChar

StartChar: uni021C
Encoding: 540 540 110
Width: 494
GlyphClass: 2
Flags: W
AnchorPoint: "Anchor-18" 0 0 basechar 0
AnchorPoint: "Anchor-17" 0 0 basechar 0
AnchorPoint: "Anchor-16" 306 681 basechar 0
AnchorPoint: "Anchor-15" 0 0 basechar 0
AnchorPoint: "Anchor-14" 0 0 basechar 0
LayerCount: 2
Fore
SplineSet
407.5 651 m 128,-1,1
 450 611 450 611 450 542 c 0,2,3
 450 467 450 467 405.5 420.5 c 128,-1,4
 361 374 361 374 289 361 c 1,5,6
 353 355 353 355 390 322 c 128,-1,7
 427 289 427 289 427 225 c 0,8,9
 427 101 427 101 320 31.5 c 128,-1,10
 213 -38 213 -38 21 -80 c 1,11,-1
 21 -60 l 1,12,13
 200 -20 200 -20 301.5 46 c 128,-1,14
 403 112 403 112 403 224 c 0,15,16
 403 352 403 352 236 350 c 2,17,-1
 176 349 l 1,18,-1
 182 370 l 1,19,-1
 233 370 l 2,20,21
 290 370 290 370 334 392 c 128,-1,22
 378 414 378 414 402.5 453 c 128,-1,23
 427 492 427 492 427 542 c 0,24,25
 427 603 427 603 391 636.5 c 128,-1,26
 355 670 355 670 292 670 c 0,27,28
 237 670 237 670 189.5 650 c 128,-1,29
 142 630 142 630 95 593 c 1,30,-1
 82 609 l 1,31,32
 133 650 133 650 183 670.5 c 128,-1,33
 233 691 233 691 292 691 c 0,34,0
 365 691 365 691 407.5 651 c 128,-1,1
EndSplineSet
Substitution2: "'c2sc' Capitals to Small Capitals lookup 27 subtable" uni021D.sc
Substitution2: "'aalt' Access All Alternates lookup 0 subtable" uni021D.sc
Position2: "'cpsp' Capital Spacing lookup 0 subtable" dx=5 dy=0 dh=10 dv=0
EndChar

StartChar: H
Encoding: 72 72 111
Width: 660
GlyphClass: 2
Flags: W
AnchorPoint: "Anchor-18" 339 341 basechar 0
AnchorPoint: "Anchor-17" 0 0 basechar 0
AnchorPoint: "Anchor-16" 387 681 basechar 0
AnchorPoint: "Anchor-15" 0 0 basechar 0
AnchorPoint: "Anchor-14" 293 0 basechar 0
LayerCount: 2
Fore
SplineSet
109 0 m 1,0,-1
 86 0 l 1,1,-1
 182 681 l 1,2,-1
 205 681 l 1,3,-1
 161 372 l 1,4,-1
 530 372 l 1,5,-1
 573 681 l 1,6,-1
 596 681 l 1,7,-1
 500 0 l 1,8,-1
 477 0 l 1,9,-1
 527 351 l 1,10,-1
 158 351 l 1,11,-1
 109 0 l 1,0,-1
EndSplineSet
Substitution2: "'c2sc' Capitals to Small Capitals lookup 27 subtable" h.sc
Substitution2: "'aalt' Access All Alternates lookup 0 subtable" h.sc
Position2: "'cpsp' Capital Spacing lookup 0 subtable" dx=5 dy=0 dh=10 dv=0
EndChar

StartChar: Hbar
Encoding: 294 294 112
Width: 657
GlyphClass: 2
Flags: W
AnchorPoint: "Anchor-18" 341 341 basechar 0
AnchorPoint: "Anchor-17" 0 0 basechar 0
AnchorPoint: "Anchor-16" 389 681 basechar 0
AnchorPoint: "Anchor-15" 0 0 basechar 0
AnchorPoint: "Anchor-14" 295 0 basechar 0
LayerCount: 2
Fore
SplineSet
634 538 m 1,0,-1
 631 520 l 1,1,-1
 575 520 l 1,2,-1
 502 0 l 1,3,-1
 479 0 l 1,4,-1
 529 351 l 1,5,-1
 160 351 l 1,6,-1
 111 0 l 1,7,-1
 88 0 l 1,8,-1
 161 520 l 1,9,-1
 102 520 l 1,10,-1
 105 538 l 1,11,-1
 164 538 l 1,12,-1
 184 681 l 1,13,-1
 207 681 l 1,14,-1
 187 538 l 1,15,-1
 555 538 l 1,16,-1
 575 681 l 1,17,-1
 598 681 l 1,18,-1
 578 538 l 1,19,-1
 634 538 l 1,0,-1
532 372 m 1,20,-1
 553 520 l 1,21,-1
 184 520 l 1,22,-1
 163 372 l 1,23,-1
 532 372 l 1,20,-1
EndSplineSet
Substitution2: "'c2sc' Capitals to Small Capitals lookup 27 subtable" hbar.sc
Substitution2: "'aalt' Access All Alternates lookup 0 subtable" hbar.sc
Position2: "'cpsp' Capital Spacing lookup 0 subtable" dx=5 dy=0 dh=10 dv=0
EndChar

StartChar: uniA7AA
Encoding: 42922 42922 116
Width: 703
GlyphClass: 2
Flags: W
AnchorPoint: "Anchor-18" 382 341 basechar 0
AnchorPoint: "Anchor-17" 0 0 basechar 0
AnchorPoint: "Anchor-16" 430 681 basechar 0
AnchorPoint: "Anchor-15" 0 0 basechar 0
AnchorPoint: "Anchor-14" 336 0 basechar 0
LayerCount: 2
Fore
SplineSet
639 681 m 1,0,-1
 543 0 l 1,1,-1
 520 0 l 1,2,-1
 570 351 l 1,3,-1
 201 351 l 1,4,-1
 152 0 l 1,5,-1
 129 0 l 1,6,-1
 222 661 l 1,7,-1
 190 661 l 2,8,9
 140 661 140 661 115 635.5 c 128,-1,10
 90 610 90 610 90 569 c 0,11,12
 90 550 90 550 94 537 c 128,-1,13
 98 524 98 524 106 507 c 1,14,-1
 87 498 l 1,15,16
 77 517 77 517 72.5 532 c 128,-1,17
 68 547 68 547 68 569 c 0,18,19
 68 619 68 619 100.5 650 c 128,-1,20
 133 681 133 681 193 681 c 2,21,-1
 248 681 l 1,22,-1
 204 372 l 1,23,-1
 573 372 l 1,24,-1
 616 681 l 1,25,-1
 639 681 l 1,0,-1
EndSplineSet
Substitution2: "'c2sc' Capitals to Small Capitals lookup 27 subtable" uniA7AA.sc
Substitution2: "'aalt' Access All Alternates lookup 0 subtable" uniA7AA.sc
Position2: "'cpsp' Capital Spacing lookup 0 subtable" dx=5 dy=0 dh=10 dv=0
EndChar

StartChar: uni01F6
Encoding: 502 502 118
Width: 958
GlyphClass: 2
Flags: W
AnchorPoint: "Anchor-18" 0 0 basechar 0
AnchorPoint: "Anchor-17" 0 0 basechar 0
AnchorPoint: "Anchor-16" 538 681 basechar 0
AnchorPoint: "Anchor-15" 0 0 basechar 0
AnchorPoint: "Anchor-14" 442 0 basechar 0
LayerCount: 2
Fore
SplineSet
532.5 27.5 m 128,-1,1
 498 65 498 65 498 125 c 0,2,3
 498 145 498 145 500 156 c 2,4,-1
 527 351 l 1,5,-1
 158 351 l 1,6,-1
 109 0 l 1,7,-1
 86 0 l 1,8,-1
 182 681 l 1,9,-1
 205 681 l 1,10,-1
 161 372 l 1,11,-1
 530 372 l 1,12,-1
 573 681 l 1,13,-1
 596 681 l 1,14,-1
 522 156 l 2,15,16
 520 145 520 145 520 125 c 0,17,18
 520 71 520 71 549.5 41 c 128,-1,19
 579 11 579 11 635 11 c 0,20,21
 758 11 758 11 806 133.5 c 128,-1,22
 854 256 854 256 854 425 c 0,23,24
 854 465 854 465 852 519 c 1,25,-1
 874 519 l 1,26,27
 876 463 876 463 876 425 c 0,28,29
 876 244 876 244 823 117 c 128,-1,30
 770 -10 770 -10 632 -10 c 0,31,0
 567 -10 567 -10 532.5 27.5 c 128,-1,1
EndSplineSet
Substitution2: "'c2sc' Capitals to Small Capitals lookup 27 subtable" uni01F6.sc
Substitution2: "'aalt' Access All Alternates lookup 0 subtable" uni01F6.sc
Position2: "'cpsp' Capital Spacing lookup 0 subtable" dx=5 dy=0 dh=10 dv=0
EndChar

StartChar: I
Encoding: 73 73 119
Width: 268
GlyphClass: 2
Flags: W
AnchorPoint: "Anchor-18" 0 0 basechar 0
AnchorPoint: "Anchor-17" 0 0 basechar 0
AnchorPoint: "Anchor-16" 194 681 basechar 0
AnchorPoint: "Anchor-15" 118 0 basechar 0
AnchorPoint: "Anchor-14" 98 0 basechar 0
LayerCount: 2
Fore
SplineSet
205 681 m 1,0,-1
 109 0 l 1,1,-1
 86 0 l 1,2,-1
 182 681 l 1,3,-1
 205 681 l 1,0,-1
EndSplineSet
Substitution2: "'c2sc' Capitals to Small Capitals lookup 27 subtable" i.sc
Substitution2: "'aalt' Access All Alternates lookup 0 subtable" i.sc
Position2: "'cpsp' Capital Spacing lookup 0 subtable" dx=5 dy=0 dh=10 dv=0
EndChar

StartChar: Iogonek
Encoding: 302 302 134
Width: 268
GlyphClass: 2
Flags: W
AnchorPoint: "Anchor-18" 0 0 basechar 0
AnchorPoint: "Anchor-17" 0 0 basechar 0
AnchorPoint: "Anchor-16" 194 681 basechar 0
AnchorPoint: "Anchor-15" 118 0 basechar 0
AnchorPoint: "Anchor-14" 98 0 basechar 0
LayerCount: 2
Fore
SplineSet
1.5 -57.5 m 128,-1,1
 -34 -86 -34 -86 -34 -126 c 0,2,3
 -34 -181 -34 -181 29 -181 c 0,4,5
 53 -181 53 -181 84 -174 c 1,6,-1
 79 -196 l 1,7,8
 51 -203 51 -203 26 -203 c 0,9,10
 -15 -203 -15 -203 -36.5 -184.5 c 128,-1,11
 -58 -166 -58 -166 -58 -135 c 0,12,13
 -58 -86 -58 -86 -22 -54 c 128,-1,14
 14 -22 14 -22 87 7 c 1,15,-1
 182 681 l 1,16,-1
 205 681 l 1,17,-1
 109 0 l 1,18,0
 37 -29 37 -29 1.5 -57.5 c 128,-1,1
EndSplineSet
Substitution2: "'c2sc' Capitals to Small Capitals lookup 27 subtable" iogonek.sc
Substitution2: "'aalt' Access All Alternates lookup 0 subtable" iogonek.sc
Position2: "'cpsp' Capital Spacing lookup 0 subtable" dx=5 dy=0 dh=10 dv=0
EndChar

StartChar: uni0196
Encoding: 406 406 135
Width: 314
GlyphClass: 2
Flags: W
AnchorPoint: "Anchor-18" 0 0 basechar 0
AnchorPoint: "Anchor-17" 0 0 basechar 0
AnchorPoint: "Anchor-16" 184 681 basechar 0
AnchorPoint: "Anchor-15" 0 0 basechar 0
AnchorPoint: "Anchor-14" 121 0 basechar 0
LayerCount: 2
Fore
SplineSet
265 19 m 1,0,1
 224 -10 224 -10 173 -10 c 0,2,3
 134 -10 134 -10 111.5 12 c 128,-1,4
 89 34 89 34 89 76 c 0,5,6
 89 84 89 84 91 102 c 2,7,-1
 102 187 l 1,8,-1
 103 187 l 1,9,-1
 172 681 l 1,10,-1
 195 681 l 1,11,-1
 125 187 l 1,12,-1
 113 101 l 2,13,14
 112 93 112 93 112 79 c 0,15,16
 112 11 112 11 173 11 c 0,17,18
 218 11 218 11 255 36 c 1,19,-1
 265 19 l 1,0,1
EndSplineSet
Substitution2: "'c2sc' Capitals to Small Capitals lookup 27 subtable" uni0196.sc
Substitution2: "'aalt' Access All Alternates lookup 0 subtable" uni0196.sc
Position2: "'cpsp' Capital Spacing lookup 0 subtable" dx=5 dy=0 dh=10 dv=0
EndChar

StartChar: uni0197
Encoding: 407 407 136
Width: 325
GlyphClass: 2
Flags: W
AnchorPoint: "Anchor-18" 0 0 basechar 0
AnchorPoint: "Anchor-17" 0 0 basechar 0
AnchorPoint: "Anchor-16" 226 681 basechar 0
AnchorPoint: "Anchor-15" 150 0 basechar 0
AnchorPoint: "Anchor-14" 130 0 basechar 0
LayerCount: 2
Fore
SplineSet
300 371 m 1,0,-1
 297 350 l 1,1,-1
 190 350 l 1,2,-1
 141 0 l 1,3,-1
 118 0 l 1,4,-1
 167 350 l 1,5,-1
 54 350 l 1,6,-1
 57 371 l 1,7,-1
 170 371 l 1,8,-1
 214 681 l 1,9,-1
 237 681 l 1,10,-1
 193 371 l 1,11,-1
 300 371 l 1,0,-1
EndSplineSet
Substitution2: "'c2sc' Capitals to Small Capitals lookup 27 subtable" uni0268.sc
Substitution2: "'aalt' Access All Alternates lookup 0 subtable" uni0268.sc
Position2: "'cpsp' Capital Spacing lookup 0 subtable" dx=5 dy=0 dh=10 dv=0
EndChar

StartChar: J
Encoding: 74 74 138
Width: 278
GlyphClass: 2
Flags: W
AnchorPoint: "Anchor-18" 0 0 basechar 0
AnchorPoint: "Anchor-17" 0 0 basechar 0
AnchorPoint: "Anchor-16" 207 681 basechar 0
AnchorPoint: "Anchor-15" 0 0 basechar 0
AnchorPoint: "Anchor-14" 0 0 basechar 0
LayerCount: 2
Fore
SplineSet
137 87 m 2,0,1
 129 34 129 34 114.5 2.5 c 128,-1,2
 100 -29 100 -29 69 -52.5 c 128,-1,3
 38 -76 38 -76 -20 -100 c 1,4,-1
 -26 -83 l 1,5,6
 24 -61 24 -61 52 -39 c 128,-1,7
 80 -17 80 -17 93.5 12.5 c 128,-1,8
 107 42 107 42 114 90 c 2,9,-1
 197 681 l 1,10,-1
 220 681 l 1,11,-1
 137 87 l 2,0,1
EndSplineSet
Substitution2: "'c2sc' Capitals to Small Capitals lookup 27 subtable" j.sc
Substitution2: "'aalt' Access All Alternates lookup 0 subtable" j.sc
Position2: "'cpsp' Capital Spacing lookup 0 subtable" dx=5 dy=0 dh=10 dv=0
EndChar

StartChar: uniA7B2
Encoding: 42930 42930 140
Width: 291
GlyphClass: 2
Flags: W
AnchorPoint: "Anchor-18" 0 0 basechar 0
AnchorPoint: "Anchor-17" 0 0 basechar 0
AnchorPoint: "Anchor-16" 217 681 basechar 0
AnchorPoint: "Anchor-15" 0 0 basechar 0
AnchorPoint: "Anchor-14" 0 0 basechar 0
LayerCount: 2
Fore
SplineSet
127 -29 m 1,0,1
 165 -40 165 -40 216 -63 c 1,2,-1
 206 -80 l 1,3,4
 166 -60 166 -60 124 -49 c 1,5,6
 100 -197 100 -197 -24 -197 c 0,7,8
 -70 -197 -70 -197 -96.5 -174.5 c 128,-1,9
 -123 -152 -123 -152 -123 -115 c 0,10,11
 -123 -70 -123 -70 -86 -43 c 128,-1,12
 -49 -16 -49 -16 11 -16 c 0,13,14
 62 -16 62 -16 105 -25 c 1,15,-1
 205 681 l 1,16,-1
 228 681 l 1,17,-1
 127 -29 l 1,0,1
61.5 -144.5 m 128,-1,19
 91 -112 91 -112 102 -45 c 1,20,21
 61 -36 61 -36 11 -36 c 0,22,23
 -43 -36 -43 -36 -72 -57 c 128,-1,24
 -101 -78 -101 -78 -101 -115 c 0,25,26
 -101 -143 -101 -143 -81 -160 c 128,-1,27
 -61 -177 -61 -177 -24 -177 c 0,28,18
 32 -177 32 -177 61.5 -144.5 c 128,-1,19
EndSplineSet
Substitution2: "'c2sc' Capitals to Small Capitals lookup 27 subtable" uniA7B2.sc
Substitution2: "'aalt' Access All Alternates lookup 0 subtable" uniA7B2.sc
Position2: "'cpsp' Capital Spacing lookup 0 subtable" dx=5 dy=0 dh=10 dv=0
EndChar

StartChar: uni0248
Encoding: 584 584 141
Width: 293
GlyphClass: 2
Flags: W
AnchorPoint: "Anchor-18" 0 0 basechar 0
AnchorPoint: "Anchor-17" 0 0 basechar 0
AnchorPoint: "Anchor-16" 208 681 basechar 0
AnchorPoint: "Anchor-15" 0 0 basechar 0
AnchorPoint: "Anchor-14" 0 0 basechar 0
LayerCount: 2
Fore
SplineSet
281 332 m 1,0,-1
 172 332 l 1,1,-1
 138 87 l 2,2,3
 130 34 130 34 115.5 2.5 c 128,-1,4
 101 -29 101 -29 70 -52.5 c 128,-1,5
 39 -76 39 -76 -19 -100 c 1,6,-1
 -25 -83 l 1,7,8
 25 -61 25 -61 53 -39 c 128,-1,9
 81 -17 81 -17 94.5 12.5 c 128,-1,10
 108 42 108 42 115 90 c 2,11,-1
 149 332 l 1,12,-1
 38 332 l 1,13,-1
 41 353 l 1,14,-1
 152 353 l 1,15,-1
 198 681 l 1,16,-1
 221 681 l 1,17,-1
 175 353 l 1,18,-1
 284 353 l 1,19,-1
 281 332 l 1,0,-1
EndSplineSet
Substitution2: "'c2sc' Capitals to Small Capitals lookup 27 subtable" uni0249.sc
Substitution2: "'aalt' Access All Alternates lookup 0 subtable" uni0249.sc
Position2: "'cpsp' Capital Spacing lookup 0 subtable" dx=5 dy=0 dh=10 dv=0
EndChar

StartChar: K
Encoding: 75 75 142
Width: 510
GlyphClass: 2
Flags: W
AnchorPoint: "Anchor-18" 0 0 basechar 0
AnchorPoint: "Anchor-17" 0 0 basechar 0
AnchorPoint: "Anchor-16" 347 681 basechar 0
AnchorPoint: "Anchor-15" 0 0 basechar 0
AnchorPoint: "Anchor-14" 259 0 basechar 0
LayerCount: 2
Fore
SplineSet
86 0 m 1,0,-1
 182 681 l 1,1,-1
 205 681 l 1,2,-1
 109 0 l 1,3,-1
 86 0 l 1,0,-1
442 0 m 1,4,-1
 164 367 l 1,5,-1
 520 681 l 1,6,-1
 549 681 l 1,7,-1
 192 365 l 1,8,-1
 469 0 l 1,9,-1
 442 0 l 1,4,-1
EndSplineSet
Substitution2: "'c2sc' Capitals to Small Capitals lookup 27 subtable" k.sc
Substitution2: "'aalt' Access All Alternates lookup 0 subtable" k.sc
Position2: "'cpsp' Capital Spacing lookup 0 subtable" dx=5 dy=0 dh=10 dv=0
EndChar

StartChar: uni0198
Encoding: 408 408 145
Width: 546
GlyphClass: 2
Flags: W
AnchorPoint: "Anchor-18" 0 0 basechar 0
AnchorPoint: "Anchor-17" 0 0 basechar 0
AnchorPoint: "Anchor-16" 334 681 basechar 0
AnchorPoint: "Anchor-15" 0 0 basechar 0
AnchorPoint: "Anchor-14" 238 0 basechar 0
LayerCount: 2
Fore
SplineSet
164 367 m 1,0,-1
 401 621 l 2,1,2
 438 662 438 662 463 676.5 c 128,-1,3
 488 691 488 691 519 691 c 0,4,5
 564 691 564 691 597 654 c 1,6,-1
 582 641 l 1,7,8
 567 656 567 656 553.5 663.5 c 128,-1,9
 540 671 540 671 519 671 c 0,10,11
 494 671 494 671 473.5 658.5 c 128,-1,12
 453 646 453 646 414 605 c 2,13,-1
 191 367 l 1,14,-1
 469 0 l 1,15,-1
 441 0 l 1,16,-1
 164 367 l 1,0,-1
86 0 m 1,17,-1
 182 681 l 1,18,-1
 205 681 l 1,19,-1
 109 0 l 1,20,-1
 86 0 l 1,17,-1
EndSplineSet
Substitution2: "'c2sc' Capitals to Small Capitals lookup 27 subtable" uni0199.sc
Substitution2: "'aalt' Access All Alternates lookup 0 subtable" uni0199.sc
Position2: "'cpsp' Capital Spacing lookup 0 subtable" dx=5 dy=0 dh=10 dv=0
EndChar

StartChar: L
Encoding: 76 76 146
Width: 452
GlyphClass: 2
Flags: W
AnchorPoint: "Anchor-18" 364 354 basechar 0
AnchorPoint: "Anchor-17" 250 681 basechar 0
AnchorPoint: "Anchor-16" 194 681 basechar 0
AnchorPoint: "Anchor-15" 0 0 basechar 0
AnchorPoint: "Anchor-14" 240 0 basechar 0
LayerCount: 2
Fore
SplineSet
205 681 m 1,0,-1
 112 22 l 1,1,-1
 401 22 l 1,2,-1
 393 0 l 1,3,-1
 86 0 l 1,4,-1
 182 681 l 1,5,-1
 205 681 l 1,0,-1
EndSplineSet
Substitution2: "'c2sc' Capitals to Small Capitals lookup 27 subtable" l.sc
Substitution2: "'aalt' Access All Alternates lookup 0 subtable" l.sc
Position2: "'cpsp' Capital Spacing lookup 0 subtable" dx=5 dy=0 dh=10 dv=0
EndChar

StartChar: uni023D
Encoding: 573 573 149
Width: 478
GlyphClass: 2
Flags: W
AnchorPoint: "Anchor-18" 390 354 basechar 0
AnchorPoint: "Anchor-17" 276 681 basechar 0
AnchorPoint: "Anchor-16" 220 681 basechar 0
AnchorPoint: "Anchor-15" 0 0 basechar 0
AnchorPoint: "Anchor-14" 266 0 basechar 0
LayerCount: 2
Fore
SplineSet
138 22 m 1,0,-1
 427 22 l 1,1,-1
 419 0 l 1,2,-1
 112 0 l 1,3,-1
 162 352 l 1,4,-1
 55 352 l 1,5,-1
 58 373 l 1,6,-1
 165 373 l 1,7,-1
 208 681 l 1,8,-1
 231 681 l 1,9,-1
 188 373 l 1,10,-1
 301 373 l 1,11,-1
 298 352 l 1,12,-1
 185 352 l 1,13,-1
 138 22 l 1,0,-1
EndSplineSet
Substitution2: "'c2sc' Capitals to Small Capitals lookup 27 subtable" uni019A.sc
Substitution2: "'aalt' Access All Alternates lookup 0 subtable" uni019A.sc
Position2: "'cpsp' Capital Spacing lookup 0 subtable" dx=5 dy=0 dh=10 dv=0
EndChar

StartChar: uniA7AD
Encoding: 42925 42925 150
Width: 477
GlyphClass: 2
Flags: W
AnchorPoint: "Anchor-18" 389 354 basechar 0
AnchorPoint: "Anchor-17" 275 681 basechar 0
AnchorPoint: "Anchor-16" 219 681 basechar 0
AnchorPoint: "Anchor-15" 0 0 basechar 0
AnchorPoint: "Anchor-14" 265 0 basechar 0
LayerCount: 2
Fore
SplineSet
426 22 m 1,0,-1
 418 0 l 1,1,-1
 111 0 l 1,2,-1
 150 279 l 1,3,4
 99 279 99 279 71 299 c 128,-1,5
 43 319 43 319 43 358 c 256,6,7
 43 397 43 397 71.5 420 c 128,-1,8
 100 443 100 443 143 443 c 0,9,10
 157 443 157 443 173 441 c 1,11,-1
 207 681 l 1,12,-1
 230 681 l 1,13,-1
 176 299 l 1,14,15
 234 300 234 300 290 311 c 1,16,-1
 289 292 l 1,17,18
 238 282 238 282 173 279 c 1,19,-1
 137 22 l 1,20,-1
 426 22 l 1,0,-1
170 422 m 1,21,22
 156 424 156 424 142 424 c 0,23,24
 107 424 107 424 86 406 c 128,-1,25
 65 388 65 388 65 358 c 0,26,27
 65 327 65 327 86.5 313 c 128,-1,28
 108 299 108 299 153 299 c 1,29,-1
 170 422 l 1,21,22
EndSplineSet
Substitution2: "'c2sc' Capitals to Small Capitals lookup 27 subtable" uniA7AD.sc
Substitution2: "'aalt' Access All Alternates lookup 0 subtable" uniA7AD.sc
Position2: "'cpsp' Capital Spacing lookup 0 subtable" dx=5 dy=0 dh=10 dv=0
EndChar

StartChar: Lslash
Encoding: 321 321 157
Width: 464
GlyphClass: 2
Flags: W
AnchorPoint: "Anchor-18" 375 354 basechar 0
AnchorPoint: "Anchor-17" 261 681 basechar 0
AnchorPoint: "Anchor-16" 205 681 basechar 0
AnchorPoint: "Anchor-15" 0 0 basechar 0
AnchorPoint: "Anchor-14" 251 0 basechar 0
LayerCount: 2
Fore
SplineSet
123 22 m 1,0,-1
 412 22 l 1,1,-1
 404 0 l 1,2,-1
 97 0 l 1,3,-1
 140 308 l 1,4,-1
 62 262 l 1,5,-1
 52 280 l 1,6,-1
 144 333 l 1,7,-1
 193 681 l 1,8,-1
 216 681 l 1,9,-1
 169 347 l 1,10,-1
 384 471 l 1,11,-1
 394 453 l 1,12,-1
 165 323 l 1,13,-1
 123 22 l 1,0,-1
EndSplineSet
Substitution2: "'c2sc' Capitals to Small Capitals lookup 27 subtable" lslash.sc
Substitution2: "'aalt' Access All Alternates lookup 0 subtable" lslash.sc
Position2: "'cpsp' Capital Spacing lookup 0 subtable" dx=5 dy=0 dh=10 dv=0
EndChar

StartChar: M
Encoding: 77 77 158
Width: 762
GlyphClass: 2
Flags: W
AnchorPoint: "Anchor-18" 0 0 basechar 0
AnchorPoint: "Anchor-17" 0 0 basechar 0
AnchorPoint: "Anchor-16" 439 681 basechar 0
AnchorPoint: "Anchor-15" 0 0 basechar 0
AnchorPoint: "Anchor-14" 345 0 basechar 0
LayerCount: 2
Fore
SplineSet
647 0 m 1,0,-1
 625 0 l 1,1,-1
 635 346 l 2,2,3
 640 549 640 549 647 663 c 1,4,-1
 367 84 l 1,5,-1
 345 84 l 1,6,-1
 226 662 l 1,7,8
 218 625 218 625 181 476 c 0,9,10
 159 392 159 392 150 353 c 2,11,-1
 63 0 l 1,12,-1
 41 0 l 1,13,-1
 210 681 l 1,14,-1
 243 681 l 1,15,-1
 359 110 l 1,16,-1
 633 681 l 1,17,-1
 668 681 l 1,18,-1
 647 0 l 1,0,-1
EndSplineSet
Substitution2: "'c2sc' Capitals to Small Capitals lookup 27 subtable" m.sc
Substitution2: "'aalt' Access All Alternates lookup 0 subtable" m.sc
Position2: "'cpsp' Capital Spacing lookup 0 subtable" dx=5 dy=0 dh=10 dv=0
EndChar

StartChar: uni019C
Encoding: 412 412 161
Width: 923
GlyphClass: 2
Flags: W
AnchorPoint: "Anchor-18" 0 0 basechar 0
AnchorPoint: "Anchor-17" 0 0 basechar 0
AnchorPoint: "Anchor-16" 521 681 basechar 0
AnchorPoint: "Anchor-15" 0 0 basechar 0
AnchorPoint: "Anchor-14" 425 0 basechar 0
LayerCount: 2
Fore
SplineSet
859 681 m 1,0,-1
 764 0 l 1,1,-1
 744 0 l 1,2,-1
 757 110 l 1,3,4
 718 55 718 55 668 22.5 c 128,-1,5
 618 -10 618 -10 560 -10 c 256,6,7
 502 -10 502 -10 468.5 22.5 c 128,-1,8
 435 55 435 55 431 116 c 1,9,10
 340 -10 340 -10 228 -10 c 0,11,12
 166 -10 166 -10 132.5 26.5 c 128,-1,13
 99 63 99 63 99 132 c 0,14,15
 99 154 99 154 102 178 c 2,16,-1
 172 681 l 1,17,-1
 195 681 l 1,18,-1
 124 173 l 2,19,20
 121 151 121 151 121 131 c 0,21,22
 121 72 121 72 148.5 41.5 c 128,-1,23
 176 11 176 11 228 11 c 0,24,25
 287 11 287 11 337 46.5 c 128,-1,26
 387 82 387 82 431 145 c 1,27,28
 431 160 431 160 434 178 c 2,29,-1
 504 681 l 1,30,-1
 527 681 l 1,31,-1
 456 173 l 2,32,33
 453 151 453 151 453 131 c 0,34,35
 453 72 453 72 480.5 41.5 c 128,-1,36
 508 11 508 11 560 11 c 0,37,38
 671 11 671 11 761 144 c 1,39,-1
 836 681 l 1,40,-1
 859 681 l 1,0,-1
EndSplineSet
Substitution2: "'c2sc' Capitals to Small Capitals lookup 27 subtable" uni026F.sc
Substitution2: "'aalt' Access All Alternates lookup 0 subtable" uni026F.sc
Position2: "'cpsp' Capital Spacing lookup 0 subtable" dx=5 dy=0 dh=10 dv=0
EndChar

StartChar: N
Encoding: 78 78 162
Width: 661
GlyphClass: 2
Flags: W
AnchorPoint: "Anchor-18" 0 0 basechar 0
AnchorPoint: "Anchor-17" 0 0 basechar 0
AnchorPoint: "Anchor-16" 396 681 basechar 0
AnchorPoint: "Anchor-15" 0 0 basechar 0
AnchorPoint: "Anchor-14" 292 0 basechar 0
LayerCount: 2
Fore
SplineSet
502 0 m 1,0,-1
 474 0 l 1,1,-1
 197 658 l 1,2,3
 195 617 195 617 175 476 c 2,4,-1
 108 0 l 1,5,-1
 86 0 l 1,6,-1
 182 681 l 1,7,-1
 211 681 l 1,8,-1
 487 25 l 1,9,10
 494 103 494 103 509 205 c 2,11,-1
 575 681 l 1,12,-1
 597 681 l 1,13,-1
 502 0 l 1,0,-1
EndSplineSet
Substitution2: "'c2sc' Capitals to Small Capitals lookup 27 subtable" n.sc
Substitution2: "'aalt' Access All Alternates lookup 0 subtable" n.sc
Position2: "'cpsp' Capital Spacing lookup 0 subtable" dx=5 dy=0 dh=10 dv=0
EndChar

StartChar: Eng
Encoding: 330 330 171
Width: 661
GlyphClass: 2
Flags: W
AnchorPoint: "Anchor-18" 0 0 basechar 0
AnchorPoint: "Anchor-17" 0 0 basechar 0
AnchorPoint: "Anchor-16" 396 681 basechar 0
AnchorPoint: "Anchor-15" 0 0 basechar 0
AnchorPoint: "Anchor-14" 292 0 basechar 0
LayerCount: 2
Fore
SplineSet
597 681 m 1,0,-1
 502 0 l 1,1,-1
 490 -87 l 2,2,3
 482 -141 482 -141 451.5 -169 c 128,-1,4
 421 -197 421 -197 377 -197 c 0,5,6
 349 -197 349 -197 329.5 -188.5 c 128,-1,7
 310 -180 310 -180 292 -166 c 1,8,-1
 305 -151 l 1,9,10
 320 -163 320 -163 336.5 -169.5 c 128,-1,11
 353 -176 353 -176 377 -176 c 0,12,13
 411 -176 411 -176 435.5 -154 c 128,-1,14
 460 -132 460 -132 467 -84 c 2,15,-1
 479 0 l 1,16,-1
 474 0 l 1,17,-1
 197 658 l 1,18,19
 195 617 195 617 175 476 c 2,20,-1
 108 0 l 1,21,-1
 86 0 l 1,22,-1
 182 681 l 1,23,-1
 211 681 l 1,24,-1
 487 25 l 1,25,26
 494 103 494 103 509 205 c 2,27,-1
 575 681 l 1,28,-1
 597 681 l 1,0,-1
EndSplineSet
Substitution2: "'ss01' Style Set 1 lookup 34 subtable" Eng.ss01
Substitution2: "'salt' Stylistic Alternatives lookup 33 subtable" Eng.ss01
Substitution2: "'c2sc' Capitals to Small Capitals lookup 27 subtable" eng.sc
AlternateSubs2: "'aalt' Access All Alternates lookup 1 subtable" eng.sc Eng.ss01
Position2: "'cpsp' Capital Spacing lookup 0 subtable" dx=5 dy=0 dh=10 dv=0
EndChar

StartChar: uni019D
Encoding: 413 413 172
Width: 661
GlyphClass: 2
Flags: W
AnchorPoint: "Anchor-18" 0 0 basechar 0
AnchorPoint: "Anchor-17" 0 0 basechar 0
AnchorPoint: "Anchor-16" 396 681 basechar 0
AnchorPoint: "Anchor-15" 0 0 basechar 0
AnchorPoint: "Anchor-14" 292 0 basechar 0
LayerCount: 2
Fore
SplineSet
597 681 m 1,0,-1
 502 0 l 1,1,-1
 474 0 l 1,2,-1
 197 658 l 1,3,4
 195 617 195 617 175 476 c 2,5,-1
 108 0 l 1,6,-1
 96 -87 l 2,7,8
 88 -141 88 -141 58 -169 c 128,-1,9
 28 -197 28 -197 -16 -197 c 0,10,11
 -64 -197 -64 -197 -101 -166 c 1,12,-1
 -88 -152 l 1,13,14
 -74 -164 -74 -164 -57 -170 c 128,-1,15
 -40 -176 -40 -176 -16 -176 c 0,16,17
 18 -176 18 -176 42 -154 c 128,-1,18
 66 -132 66 -132 74 -84 c 2,19,-1
 86 0 l 1,20,-1
 182 681 l 1,21,-1
 211 681 l 1,22,-1
 487 25 l 1,23,24
 494 103 494 103 509 205 c 2,25,-1
 575 681 l 1,26,-1
 597 681 l 1,0,-1
EndSplineSet
Substitution2: "'ss01' Style Set 1 lookup 34 subtable" uni019D.ss01
Substitution2: "'salt' Stylistic Alternatives lookup 33 subtable" uni019D.ss01
Substitution2: "'c2sc' Capitals to Small Capitals lookup 27 subtable" uni0272.sc
AlternateSubs2: "'aalt' Access All Alternates lookup 1 subtable" uni0272.sc uni019D.ss01
Position2: "'cpsp' Capital Spacing lookup 0 subtable" dx=5 dy=0 dh=10 dv=0
EndChar

StartChar: uni0220
Encoding: 544 544 174
Width: 651
GlyphClass: 2
Flags: W
AnchorPoint: "Anchor-18" 0 0 basechar 0
AnchorPoint: "Anchor-17" 0 0 basechar 0
AnchorPoint: "Anchor-16" 385 681 basechar 0
AnchorPoint: "Anchor-15" 0 0 basechar 0
AnchorPoint: "Anchor-14" 0 0 basechar 0
LayerCount: 2
Fore
SplineSet
534 653.5 m 128,-1,1
 572 616 572 616 572 544 c 0,2,3
 572 531 572 531 568 497 c 2,4,-1
 472 -192 l 1,5,-1
 449 -192 l 1,6,-1
 545 495 l 2,7,8
 548 521 548 521 548 541 c 0,9,10
 548 606 548 606 516.5 638 c 128,-1,11
 485 670 485 670 426 670 c 0,12,13
 355 670 355 670 296.5 635 c 128,-1,14
 238 600 238 600 184 537 c 1,15,-1
 109 0 l 1,16,-1
 86 0 l 1,17,-1
 182 681 l 1,18,-1
 202 681 l 1,19,-1
 188 568 l 1,20,21
 297 691 297 691 427 691 c 0,22,0
 496 691 496 691 534 653.5 c 128,-1,1
EndSplineSet
Substitution2: "'c2sc' Capitals to Small Capitals lookup 27 subtable" uni0220.sc
Substitution2: "'aalt' Access All Alternates lookup 0 subtable" uni0220.sc
Position2: "'cpsp' Capital Spacing lookup 0 subtable" dx=5 dy=0 dh=10 dv=0
EndChar

StartChar: O
Encoding: 79 79 176
Width: 689
GlyphClass: 2
Flags: W
AnchorPoint: "Anchor-18" 0 0 basechar 0
AnchorPoint: "Anchor-17" 591 681 basechar 0
AnchorPoint: "Anchor-16" 403 681 basechar 0
AnchorPoint: "Anchor-15" 393 0 basechar 0
AnchorPoint: "Anchor-14" 308 0 basechar 0
LayerCount: 2
Fore
SplineSet
570 623 m 128,-1,1
 630 555 630 555 630 427 c 0,2,3
 630 328 630 328 598.5 228 c 128,-1,4
 567 128 567 128 494.5 59 c 128,-1,5
 422 -10 422 -10 308 -10 c 0,6,7
 203 -10 203 -10 143 59.5 c 128,-1,8
 83 129 83 129 83 257 c 0,9,10
 83 353 83 353 115.5 453 c 128,-1,11
 148 553 148 553 220.5 622 c 128,-1,12
 293 691 293 691 404 691 c 0,13,0
 510 691 510 691 570 623 c 128,-1,1
233 604.5 m 128,-1,15
 166 538 166 538 136 442.5 c 128,-1,16
 106 347 106 347 106 256 c 0,17,18
 106 138 106 138 159.5 75 c 128,-1,19
 213 12 213 12 308 12 c 0,20,21
 416 12 416 12 483 78.5 c 128,-1,22
 550 145 550 145 578 240 c 128,-1,23
 606 335 606 335 606 427 c 0,24,25
 606 546 606 546 553 608.5 c 128,-1,26
 500 671 500 671 404 671 c 0,27,14
 300 671 300 671 233 604.5 c 128,-1,15
EndSplineSet
Substitution2: "Single Substitution lookup 44 subtable" ordmasculine
Substitution2: "'c2sc' Capitals to Small Capitals lookup 27 subtable" o.sc
AlternateSubs2: "'aalt' Access All Alternates lookup 1 subtable" ordmasculine o.sc
Position2: "'cpsp' Capital Spacing lookup 0 subtable" dx=5 dy=0 dh=10 dv=0
EndChar

StartChar: uni0222
Encoding: 546 546 177
Width: 628
GlyphClass: 2
Flags: W
AnchorPoint: "Anchor-18" 0 0 basechar 0
AnchorPoint: "Anchor-17" 0 0 basechar 0
AnchorPoint: "Anchor-16" 374 681 basechar 0
AnchorPoint: "Anchor-15" 0 0 basechar 0
AnchorPoint: "Anchor-14" 278 0 basechar 0
LayerCount: 2
Fore
SplineSet
502.5 442 m 128,-1,1
 468 397 468 397 403 381 c 1,2,3
 473 367 473 367 508.5 325.5 c 128,-1,4
 544 284 544 284 544 219 c 0,5,6
 544 151 544 151 510 99 c 128,-1,7
 476 47 476 47 415.5 18.5 c 128,-1,8
 355 -10 355 -10 278 -10 c 0,9,10
 175 -10 175 -10 120.5 36.5 c 128,-1,11
 66 83 66 83 66 160 c 0,12,13
 66 246 66 246 119 305.5 c 128,-1,14
 172 365 172 365 261 382 c 1,15,16
 165 410 165 410 165 516 c 0,17,18
 165 536 165 536 168 557 c 2,19,-1
 186 681 l 1,20,-1
 208 681 l 1,21,-1
 191 556 l 2,22,23
 188 535 188 535 188 516 c 0,24,25
 188 452 188 452 223 421.5 c 128,-1,26
 258 391 258 391 332 391 c 0,27,28
 425 391 425 391 469 435.5 c 128,-1,29
 513 480 513 480 524 557 c 2,30,-1
 541 681 l 1,31,-1
 564 681 l 1,32,-1
 547 556 l 2,33,0
 537 487 537 487 502.5 442 c 128,-1,1
472.5 330.5 m 128,-1,35
 425 370 425 370 331 370 c 0,36,37
 259 370 259 370 204 343.5 c 128,-1,38
 149 317 149 317 119 269.5 c 128,-1,39
 89 222 89 222 89 160 c 0,40,41
 89 92 89 92 137 52 c 128,-1,42
 185 12 185 12 278 12 c 0,43,44
 389 12 389 12 454.5 68 c 128,-1,45
 520 124 520 124 520 219 c 0,46,34
 520 291 520 291 472.5 330.5 c 128,-1,35
EndSplineSet
Substitution2: "'c2sc' Capitals to Small Capitals lookup 27 subtable" uni0223.sc
Substitution2: "'aalt' Access All Alternates lookup 0 subtable" uni0223.sc
Position2: "'cpsp' Capital Spacing lookup 0 subtable" dx=5 dy=0 dh=10 dv=0
EndChar

StartChar: uni1ED0
Encoding: 7888 7888 183
Width: 689
GlyphClass: 2
Flags: W
AnchorPoint: "Anchor-18" 0 0 basechar 0
AnchorPoint: "Anchor-17" 483 692 basechar 0
AnchorPoint: "Anchor-16" 423 840 basechar 0
AnchorPoint: "Anchor-15" 393 0 basechar 0
AnchorPoint: "Anchor-14" 0 0 basechar 0
LayerCount: 2
Fore
SplineSet
605 953 m 1,0,-1
 621 934 l 1,1,-1
 503 824 l 1,2,-1
 492 836 l 1,3,-1
 605 953 l 1,0,-1
295 737 m 1,4,-1
 285 751 l 1,5,-1
 417 840 l 1,6,-1
 429 840 l 1,7,-1
 536 750 l 1,8,-1
 524 737 l 1,9,-1
 422 816 l 1,10,-1
 295 737 l 1,4,-1
570 623 m 128,-1,12
 630 555 630 555 630 427 c 0,13,14
 630 328 630 328 598.5 228 c 128,-1,15
 567 128 567 128 494.5 59 c 128,-1,16
 422 -10 422 -10 308 -10 c 0,17,18
 203 -10 203 -10 143 59.5 c 128,-1,19
 83 129 83 129 83 257 c 0,20,21
 83 353 83 353 115.5 453 c 128,-1,22
 148 553 148 553 220.5 622 c 128,-1,23
 293 691 293 691 404 691 c 0,24,11
 510 691 510 691 570 623 c 128,-1,12
233 604.5 m 128,-1,26
 166 538 166 538 136 442.5 c 128,-1,27
 106 347 106 347 106 256 c 0,28,29
 106 138 106 138 159.5 75 c 128,-1,30
 213 12 213 12 308 12 c 0,31,32
 416 12 416 12 483 78.5 c 128,-1,33
 550 145 550 145 578 240 c 128,-1,34
 606 335 606 335 606 427 c 0,35,36
 606 546 606 546 553 608.5 c 128,-1,37
 500 671 500 671 404 671 c 0,38,25
 300 671 300 671 233 604.5 c 128,-1,26
EndSplineSet
Substitution2: "'c2sc' Capitals to Small Capitals lookup 27 subtable" uni1ED1.sc
Substitution2: "'aalt' Access All Alternates lookup 0 subtable" uni1ED1.sc
Position2: "'cpsp' Capital Spacing lookup 0 subtable" dx=5 dy=0 dh=10 dv=0
EndChar

StartChar: uni1ED2
Encoding: 7890 7890 185
Width: 689
GlyphClass: 2
Flags: W
AnchorPoint: "Anchor-18" 0 0 basechar 0
AnchorPoint: "Anchor-17" 480 692 basechar 0
AnchorPoint: "Anchor-16" 420 840 basechar 0
AnchorPoint: "Anchor-15" 393 0 basechar 0
AnchorPoint: "Anchor-14" 0 0 basechar 0
LayerCount: 2
Fore
SplineSet
261 953 m 1,0,-1
 342 834 l 1,1,-1
 328 824 l 1,2,-1
 241 937 l 1,3,-1
 261 953 l 1,0,-1
292 737 m 1,4,-1
 282 751 l 1,5,-1
 414 840 l 1,6,-1
 426 840 l 1,7,-1
 533 750 l 1,8,-1
 521 737 l 1,9,-1
 419 816 l 1,10,-1
 292 737 l 1,4,-1
570 623 m 128,-1,12
 630 555 630 555 630 427 c 0,13,14
 630 328 630 328 598.5 228 c 128,-1,15
 567 128 567 128 494.5 59 c 128,-1,16
 422 -10 422 -10 308 -10 c 0,17,18
 203 -10 203 -10 143 59.5 c 128,-1,19
 83 129 83 129 83 257 c 0,20,21
 83 353 83 353 115.5 453 c 128,-1,22
 148 553 148 553 220.5 622 c 128,-1,23
 293 691 293 691 404 691 c 0,24,11
 510 691 510 691 570 623 c 128,-1,12
233 604.5 m 128,-1,26
 166 538 166 538 136 442.5 c 128,-1,27
 106 347 106 347 106 256 c 0,28,29
 106 138 106 138 159.5 75 c 128,-1,30
 213 12 213 12 308 12 c 0,31,32
 416 12 416 12 483 78.5 c 128,-1,33
 550 145 550 145 578 240 c 128,-1,34
 606 335 606 335 606 427 c 0,35,36
 606 546 606 546 553 608.5 c 128,-1,37
 500 671 500 671 404 671 c 0,38,25
 300 671 300 671 233 604.5 c 128,-1,26
EndSplineSet
Substitution2: "'c2sc' Capitals to Small Capitals lookup 27 subtable" uni1ED3.sc
Substitution2: "'aalt' Access All Alternates lookup 0 subtable" uni1ED3.sc
Position2: "'cpsp' Capital Spacing lookup 0 subtable" dx=5 dy=0 dh=10 dv=0
EndChar

StartChar: uni1ED6
Encoding: 7894 7894 187
Width: 689
GlyphClass: 2
Flags: W
AnchorPoint: "Anchor-18" 0 0 basechar 0
AnchorPoint: "Anchor-17" 480 692 basechar 0
AnchorPoint: "Anchor-16" 432 943 basechar 0
AnchorPoint: "Anchor-15" 393 0 basechar 0
AnchorPoint: "Anchor-14" 0 0 basechar 0
LayerCount: 2
Fore
SplineSet
457 884.5 m 128,-1,1
 444 890 444 890 423 902 c 0,2,3
 407 912 407 912 396 917 c 128,-1,4
 385 922 385 922 373 922 c 0,5,6
 354 922 354 922 341.5 914.5 c 128,-1,7
 329 907 329 907 308 886 c 1,8,-1
 295 896 l 1,9,10
 315 919 315 919 334 930.5 c 128,-1,11
 353 942 353 942 373 942 c 0,12,13
 387 942 387 942 398.5 937 c 128,-1,14
 410 932 410 932 430 921 c 0,15,16
 446 910 446 910 459 904.5 c 128,-1,17
 472 899 472 899 486 899 c 0,18,19
 502 899 502 899 517 908.5 c 128,-1,20
 532 918 532 918 550 940 c 1,21,-1
 564 931 l 1,22,23
 544 903 544 903 525.5 891 c 128,-1,24
 507 879 507 879 486 879 c 0,25,0
 470 879 470 879 457 884.5 c 128,-1,1
292 737 m 1,26,-1
 282 751 l 1,27,-1
 414 840 l 1,28,-1
 426 840 l 1,29,-1
 533 750 l 1,30,-1
 521 737 l 1,31,-1
 419 816 l 1,32,-1
 292 737 l 1,26,-1
570 623 m 128,-1,34
 630 555 630 555 630 427 c 0,35,36
 630 328 630 328 598.5 228 c 128,-1,37
 567 128 567 128 494.5 59 c 128,-1,38
 422 -10 422 -10 308 -10 c 0,39,40
 203 -10 203 -10 143 59.5 c 128,-1,41
 83 129 83 129 83 257 c 0,42,43
 83 353 83 353 115.5 453 c 128,-1,44
 148 553 148 553 220.5 622 c 128,-1,45
 293 691 293 691 404 691 c 0,46,33
 510 691 510 691 570 623 c 128,-1,34
233 604.5 m 128,-1,48
 166 538 166 538 136 442.5 c 128,-1,49
 106 347 106 347 106 256 c 0,50,51
 106 138 106 138 159.5 75 c 128,-1,52
 213 12 213 12 308 12 c 0,53,54
 416 12 416 12 483 78.5 c 128,-1,55
 550 145 550 145 578 240 c 128,-1,56
 606 335 606 335 606 427 c 0,57,58
 606 546 606 546 553 608.5 c 128,-1,59
 500 671 500 671 404 671 c 0,60,47
 300 671 300 671 233 604.5 c 128,-1,48
EndSplineSet
Substitution2: "'c2sc' Capitals to Small Capitals lookup 27 subtable" uni1ED7.sc
Substitution2: "'aalt' Access All Alternates lookup 0 subtable" uni1ED7.sc
Position2: "'cpsp' Capital Spacing lookup 0 subtable" dx=5 dy=0 dh=10 dv=0
EndChar

StartChar: Ohorn
Encoding: 416 416 196
Width: 689
GlyphClass: 2
Flags: W
AnchorPoint: "Anchor-18" 0 0 basechar 0
AnchorPoint: "Anchor-17" 643 681 basechar 0
AnchorPoint: "Anchor-16" 403 681 basechar 0
AnchorPoint: "Anchor-15" 393 0 basechar 0
AnchorPoint: "Anchor-14" 308 0 basechar 0
LayerCount: 2
Fore
SplineSet
642 643 m 128,-1,1
 623 619 623 619 580 611 c 1,2,3
 630 542 630 542 630 427 c 0,4,5
 630 328 630 328 598.5 228 c 128,-1,6
 567 128 567 128 494.5 59 c 128,-1,7
 422 -10 422 -10 308 -10 c 0,8,9
 203 -10 203 -10 143 59.5 c 128,-1,10
 83 129 83 129 83 257 c 0,11,12
 83 353 83 353 115.5 453 c 128,-1,13
 148 553 148 553 220.5 622 c 128,-1,14
 293 691 293 691 404 691 c 0,15,16
 509 691 509 691 568 626 c 1,17,18
 609 632 609 632 625 651.5 c 128,-1,19
 641 671 641 671 641 708 c 0,20,21
 641 739 641 739 634 759 c 1,22,-1
 652 764 l 1,23,24
 661 733 661 733 661 708 c 0,25,0
 661 667 661 667 642 643 c 128,-1,1
483 78.5 m 128,-1,27
 550 145 550 145 578 240 c 128,-1,28
 606 335 606 335 606 427 c 0,29,30
 606 546 606 546 553 608.5 c 128,-1,31
 500 671 500 671 404 671 c 0,32,33
 300 671 300 671 233 604.5 c 128,-1,34
 166 538 166 538 136 442.5 c 128,-1,35
 106 347 106 347 106 256 c 0,36,37
 106 138 106 138 159.5 75 c 128,-1,38
 213 12 213 12 308 12 c 0,39,26
 416 12 416 12 483 78.5 c 128,-1,27
EndSplineSet
Substitution2: "'c2sc' Capitals to Small Capitals lookup 27 subtable" ohorn.sc
Substitution2: "'aalt' Access All Alternates lookup 0 subtable" ohorn.sc
Position2: "'cpsp' Capital Spacing lookup 0 subtable" dx=5 dy=0 dh=10 dv=0
EndChar

StartChar: uni1EDA
Encoding: 7898 7898 197
Width: 689
GlyphClass: 2
Flags: W
AnchorPoint: "Anchor-18" 0 0 basechar 0
AnchorPoint: "Anchor-17" 643 681 basechar 0
AnchorPoint: "Anchor-16" 423 861 basechar 0
AnchorPoint: "Anchor-15" 393 0 basechar 0
AnchorPoint: "Anchor-14" 308 0 basechar 0
LayerCount: 2
Fore
SplineSet
508 836 m 1,0,-1
 319 764 l 1,1,-1
 313 779 l 1,2,-1
 499 861 l 1,3,-1
 508 836 l 1,0,-1
642 643 m 128,-1,5
 623 619 623 619 580 611 c 1,6,7
 630 542 630 542 630 427 c 0,8,9
 630 328 630 328 598.5 228 c 128,-1,10
 567 128 567 128 494.5 59 c 128,-1,11
 422 -10 422 -10 308 -10 c 0,12,13
 203 -10 203 -10 143 59.5 c 128,-1,14
 83 129 83 129 83 257 c 0,15,16
 83 353 83 353 115.5 453 c 128,-1,17
 148 553 148 553 220.5 622 c 128,-1,18
 293 691 293 691 404 691 c 0,19,20
 509 691 509 691 568 626 c 1,21,22
 609 632 609 632 625 651.5 c 128,-1,23
 641 671 641 671 641 708 c 0,24,25
 641 739 641 739 634 759 c 1,26,-1
 652 764 l 1,27,28
 661 733 661 733 661 708 c 0,29,4
 661 667 661 667 642 643 c 128,-1,5
483 78.5 m 128,-1,31
 550 145 550 145 578 240 c 128,-1,32
 606 335 606 335 606 427 c 0,33,34
 606 546 606 546 553 608.5 c 128,-1,35
 500 671 500 671 404 671 c 0,36,37
 300 671 300 671 233 604.5 c 128,-1,38
 166 538 166 538 136 442.5 c 128,-1,39
 106 347 106 347 106 256 c 0,40,41
 106 138 106 138 159.5 75 c 128,-1,42
 213 12 213 12 308 12 c 0,43,30
 416 12 416 12 483 78.5 c 128,-1,31
EndSplineSet
Substitution2: "'c2sc' Capitals to Small Capitals lookup 27 subtable" uni1EDB.sc
Substitution2: "'aalt' Access All Alternates lookup 0 subtable" uni1EDB.sc
Position2: "'cpsp' Capital Spacing lookup 0 subtable" dx=5 dy=0 dh=10 dv=0
EndChar

StartChar: uni1EE2
Encoding: 7906 7906 198
Width: 689
GlyphClass: 2
Flags: W
AnchorPoint: "Anchor-18" 0 0 basechar 0
AnchorPoint: "Anchor-17" 643 681 basechar 0
AnchorPoint: "Anchor-16" 403 681 basechar 0
AnchorPoint: "Anchor-15" 393 0 basechar 0
AnchorPoint: "Anchor-14" 292 -138 basechar 0
LayerCount: 2
Fore
SplineSet
642 643 m 128,-1,1
 623 619 623 619 580 611 c 1,2,3
 630 542 630 542 630 427 c 0,4,5
 630 328 630 328 598.5 228 c 128,-1,6
 567 128 567 128 494.5 59 c 128,-1,7
 422 -10 422 -10 308 -10 c 0,8,9
 203 -10 203 -10 143 59.5 c 128,-1,10
 83 129 83 129 83 257 c 0,11,12
 83 353 83 353 115.5 453 c 128,-1,13
 148 553 148 553 220.5 622 c 128,-1,14
 293 691 293 691 404 691 c 0,15,16
 509 691 509 691 568 626 c 1,17,18
 609 632 609 632 625 651.5 c 128,-1,19
 641 671 641 671 641 708 c 0,20,21
 641 739 641 739 634 759 c 1,22,-1
 652 764 l 1,23,24
 661 733 661 733 661 708 c 0,25,0
 661 667 661 667 642 643 c 128,-1,1
483 78.5 m 128,-1,27
 550 145 550 145 578 240 c 128,-1,28
 606 335 606 335 606 427 c 0,29,30
 606 546 606 546 553 608.5 c 128,-1,31
 500 671 500 671 404 671 c 0,32,33
 300 671 300 671 233 604.5 c 128,-1,34
 166 538 166 538 136 442.5 c 128,-1,35
 106 347 106 347 106 256 c 0,36,37
 106 138 106 138 159.5 75 c 128,-1,38
 213 12 213 12 308 12 c 0,39,26
 416 12 416 12 483 78.5 c 128,-1,27
307 -103.5 m 128,-1,41
 312 -108 312 -108 312 -116 c 0,42,43
 312 -125 312 -125 306 -131.5 c 128,-1,44
 300 -138 300 -138 291 -138 c 256,45,46
 282 -138 282 -138 277 -133 c 128,-1,47
 272 -128 272 -128 272 -120 c 256,48,49
 272 -112 272 -112 278.5 -105.5 c 128,-1,50
 285 -99 285 -99 294 -99 c 0,51,40
 302 -99 302 -99 307 -103.5 c 128,-1,41
EndSplineSet
Substitution2: "'c2sc' Capitals to Small Capitals lookup 27 subtable" uni1EE3.sc
Substitution2: "'aalt' Access All Alternates lookup 0 subtable" uni1EE3.sc
Position2: "'cpsp' Capital Spacing lookup 0 subtable" dx=5 dy=0 dh=10 dv=0
EndChar

StartChar: uni1EDC
Encoding: 7900 7900 199
Width: 689
GlyphClass: 2
Flags: W
AnchorPoint: "Anchor-18" 0 0 basechar 0
AnchorPoint: "Anchor-17" 643 681 basechar 0
AnchorPoint: "Anchor-16" 424 861 basechar 0
AnchorPoint: "Anchor-15" 393 0 basechar 0
AnchorPoint: "Anchor-14" 308 0 basechar 0
LayerCount: 2
Fore
SplineSet
510 779 m 1,0,-1
 502 764 l 1,1,-1
 335 836 l 1,2,-1
 347 860 l 1,3,-1
 510 779 l 1,0,-1
642 643 m 128,-1,5
 623 619 623 619 580 611 c 1,6,7
 630 542 630 542 630 427 c 0,8,9
 630 328 630 328 598.5 228 c 128,-1,10
 567 128 567 128 494.5 59 c 128,-1,11
 422 -10 422 -10 308 -10 c 0,12,13
 203 -10 203 -10 143 59.5 c 128,-1,14
 83 129 83 129 83 257 c 0,15,16
 83 353 83 353 115.5 453 c 128,-1,17
 148 553 148 553 220.5 622 c 128,-1,18
 293 691 293 691 404 691 c 0,19,20
 509 691 509 691 568 626 c 1,21,22
 609 632 609 632 625 651.5 c 128,-1,23
 641 671 641 671 641 708 c 0,24,25
 641 739 641 739 634 759 c 1,26,-1
 652 764 l 1,27,28
 661 733 661 733 661 708 c 0,29,4
 661 667 661 667 642 643 c 128,-1,5
483 78.5 m 128,-1,31
 550 145 550 145 578 240 c 128,-1,32
 606 335 606 335 606 427 c 0,33,34
 606 546 606 546 553 608.5 c 128,-1,35
 500 671 500 671 404 671 c 0,36,37
 300 671 300 671 233 604.5 c 128,-1,38
 166 538 166 538 136 442.5 c 128,-1,39
 106 347 106 347 106 256 c 0,40,41
 106 138 106 138 159.5 75 c 128,-1,42
 213 12 213 12 308 12 c 0,43,30
 416 12 416 12 483 78.5 c 128,-1,31
EndSplineSet
Substitution2: "'c2sc' Capitals to Small Capitals lookup 27 subtable" uni1EDD.sc
Substitution2: "'aalt' Access All Alternates lookup 0 subtable" uni1EDD.sc
Position2: "'cpsp' Capital Spacing lookup 0 subtable" dx=5 dy=0 dh=10 dv=0
EndChar

StartChar: uni1EDE
Encoding: 7902 7902 200
Width: 689
GlyphClass: 2
Flags: W
AnchorPoint: "Anchor-18" 0 0 basechar 0
AnchorPoint: "Anchor-17" 643 681 basechar 0
AnchorPoint: "Anchor-16" 445 957 basechar 0
AnchorPoint: "Anchor-15" 393 0 basechar 0
AnchorPoint: "Anchor-14" 308 0 basechar 0
LayerCount: 2
Fore
SplineSet
414 933.5 m 128,-1,1
 402 930 402 930 384 922 c 1,2,-1
 376 939 l 1,3,4
 409 957 409 957 444 957 c 0,5,6
 476 957 476 957 494 941 c 128,-1,7
 512 925 512 925 512 896 c 0,8,9
 512 866 512 866 491 847.5 c 128,-1,10
 470 829 470 829 433 824 c 1,11,-1
 428 782 l 1,12,-1
 406 782 l 1,13,-1
 413 839 l 1,14,15
 447 841 447 841 468 854.5 c 128,-1,16
 489 868 489 868 489 896 c 0,17,18
 489 937 489 937 444 937 c 0,19,0
 426 937 426 937 414 933.5 c 128,-1,1
642 643 m 128,-1,21
 623 619 623 619 580 611 c 1,22,23
 630 542 630 542 630 427 c 0,24,25
 630 328 630 328 598.5 228 c 128,-1,26
 567 128 567 128 494.5 59 c 128,-1,27
 422 -10 422 -10 308 -10 c 0,28,29
 203 -10 203 -10 143 59.5 c 128,-1,30
 83 129 83 129 83 257 c 0,31,32
 83 353 83 353 115.5 453 c 128,-1,33
 148 553 148 553 220.5 622 c 128,-1,34
 293 691 293 691 404 691 c 0,35,36
 509 691 509 691 568 626 c 1,37,38
 609 632 609 632 625 651.5 c 128,-1,39
 641 671 641 671 641 708 c 0,40,41
 641 739 641 739 634 759 c 1,42,-1
 652 764 l 1,43,44
 661 733 661 733 661 708 c 0,45,20
 661 667 661 667 642 643 c 128,-1,21
483 78.5 m 128,-1,47
 550 145 550 145 578 240 c 128,-1,48
 606 335 606 335 606 427 c 0,49,50
 606 546 606 546 553 608.5 c 128,-1,51
 500 671 500 671 404 671 c 0,52,53
 300 671 300 671 233 604.5 c 128,-1,54
 166 538 166 538 136 442.5 c 128,-1,55
 106 347 106 347 106 256 c 0,56,57
 106 138 106 138 159.5 75 c 128,-1,58
 213 12 213 12 308 12 c 0,59,46
 416 12 416 12 483 78.5 c 128,-1,47
EndSplineSet
Substitution2: "'c2sc' Capitals to Small Capitals lookup 27 subtable" uni1EDF.sc
Substitution2: "'aalt' Access All Alternates lookup 0 subtable" uni1EDF.sc
Position2: "'cpsp' Capital Spacing lookup 0 subtable" dx=5 dy=0 dh=10 dv=0
EndChar

StartChar: uni1EE0
Encoding: 7904 7904 201
Width: 689
GlyphClass: 2
Flags: W
AnchorPoint: "Anchor-18" 0 0 basechar 0
AnchorPoint: "Anchor-17" 643 681 basechar 0
AnchorPoint: "Anchor-16" 427 868 basechar 0
AnchorPoint: "Anchor-15" 393 0 basechar 0
AnchorPoint: "Anchor-14" 308 0 basechar 0
LayerCount: 2
Fore
SplineSet
336.5 839.5 m 128,-1,1
 324 832 324 832 303 811 c 1,2,-1
 290 821 l 1,3,4
 310 844 310 844 329 855.5 c 128,-1,5
 348 867 348 867 368 867 c 0,6,7
 382 867 382 867 393.5 862 c 128,-1,8
 405 857 405 857 425 846 c 0,9,10
 441 835 441 835 454 829.5 c 128,-1,11
 467 824 467 824 481 824 c 0,12,13
 497 824 497 824 512 833.5 c 128,-1,14
 527 843 527 843 545 865 c 1,15,-1
 559 856 l 1,16,17
 539 828 539 828 520.5 816 c 128,-1,18
 502 804 502 804 481 804 c 0,19,20
 465 804 465 804 452 809.5 c 128,-1,21
 439 815 439 815 418 827 c 0,22,23
 402 837 402 837 391 842 c 128,-1,24
 380 847 380 847 368 847 c 0,25,0
 349 847 349 847 336.5 839.5 c 128,-1,1
642 643 m 128,-1,27
 623 619 623 619 580 611 c 1,28,29
 630 542 630 542 630 427 c 0,30,31
 630 328 630 328 598.5 228 c 128,-1,32
 567 128 567 128 494.5 59 c 128,-1,33
 422 -10 422 -10 308 -10 c 0,34,35
 203 -10 203 -10 143 59.5 c 128,-1,36
 83 129 83 129 83 257 c 0,37,38
 83 353 83 353 115.5 453 c 128,-1,39
 148 553 148 553 220.5 622 c 128,-1,40
 293 691 293 691 404 691 c 0,41,42
 509 691 509 691 568 626 c 1,43,44
 609 632 609 632 625 651.5 c 128,-1,45
 641 671 641 671 641 708 c 0,46,47
 641 739 641 739 634 759 c 1,48,-1
 652 764 l 1,49,50
 661 733 661 733 661 708 c 0,51,26
 661 667 661 667 642 643 c 128,-1,27
483 78.5 m 128,-1,53
 550 145 550 145 578 240 c 128,-1,54
 606 335 606 335 606 427 c 0,55,56
 606 546 606 546 553 608.5 c 128,-1,57
 500 671 500 671 404 671 c 0,58,59
 300 671 300 671 233 604.5 c 128,-1,60
 166 538 166 538 136 442.5 c 128,-1,61
 106 347 106 347 106 256 c 0,62,63
 106 138 106 138 159.5 75 c 128,-1,64
 213 12 213 12 308 12 c 0,65,52
 416 12 416 12 483 78.5 c 128,-1,53
EndSplineSet
Substitution2: "'c2sc' Capitals to Small Capitals lookup 27 subtable" uni1EE1.sc
Substitution2: "'aalt' Access All Alternates lookup 0 subtable" uni1EE1.sc
Position2: "'cpsp' Capital Spacing lookup 0 subtable" dx=5 dy=0 dh=10 dv=0
EndChar

StartChar: uni01A2
Encoding: 418 418 203
Width: 882
GlyphClass: 2
Flags: W
AnchorPoint: "Anchor-18" 0 0 basechar 0
AnchorPoint: "Anchor-17" 0 0 basechar 0
AnchorPoint: "Anchor-16" 500 681 basechar 0
AnchorPoint: "Anchor-15" 0 0 basechar 0
AnchorPoint: "Anchor-14" 0 0 basechar 0
LayerCount: 2
Fore
SplineSet
778 664.5 m 128,-1,1
 804 638 804 638 804 591 c 0,2,3
 804 582 804 582 802 564 c 2,4,-1
 695 -192 l 1,5,-1
 673 -192 l 1,6,-1
 778 564 l 2,7,8
 781 581 781 581 781 595 c 0,9,10
 781 672 781 672 699 672 c 0,11,12
 662 672 662 672 629 661.5 c 128,-1,13
 596 651 596 651 561 632 c 1,14,15
 630 563 630 563 630 427 c 0,16,17
 630 328 630 328 598.5 228 c 128,-1,18
 567 128 567 128 494.5 59 c 128,-1,19
 422 -10 422 -10 308 -10 c 0,20,21
 203 -10 203 -10 143 59.5 c 128,-1,22
 83 129 83 129 83 257 c 0,23,24
 83 353 83 353 115.5 453 c 128,-1,25
 148 553 148 553 220.5 622 c 128,-1,26
 293 691 293 691 404 691 c 0,27,28
 492 691 492 691 547 645 c 1,29,30
 586 667 586 667 622.5 679 c 128,-1,31
 659 691 659 691 699 691 c 0,32,0
 752 691 752 691 778 664.5 c 128,-1,1
483 78.5 m 128,-1,34
 550 145 550 145 578 240 c 128,-1,35
 606 335 606 335 606 427 c 0,36,37
 606 546 606 546 553 608.5 c 128,-1,38
 500 671 500 671 404 671 c 0,39,40
 300 671 300 671 233 604.5 c 128,-1,41
 166 538 166 538 136 442.5 c 128,-1,42
 106 347 106 347 106 256 c 0,43,44
 106 138 106 138 159.5 75 c 128,-1,45
 213 12 213 12 308 12 c 0,46,33
 416 12 416 12 483 78.5 c 128,-1,34
EndSplineSet
Substitution2: "'c2sc' Capitals to Small Capitals lookup 27 subtable" uni01A3.sc
Substitution2: "'aalt' Access All Alternates lookup 0 subtable" uni01A3.sc
Position2: "'cpsp' Capital Spacing lookup 0 subtable" dx=5 dy=0 dh=10 dv=0
EndChar

StartChar: uniA7B6
Encoding: 42934 42934 208
Width: 840
GlyphClass: 2
Flags: W
AnchorPoint: "Anchor-18" 0 0 basechar 0
AnchorPoint: "Anchor-17" 0 0 basechar 0
AnchorPoint: "Anchor-16" 479 681 basechar 0
AnchorPoint: "Anchor-15" 0 0 basechar 0
AnchorPoint: "Anchor-14" 383 0 basechar 0
LayerCount: 2
Fore
SplineSet
119 36.5 m 128,-1,1
 80 83 80 83 80 184 c 0,2,3
 80 304 80 304 116.5 426.5 c 128,-1,4
 153 549 153 549 218 681 c 1,5,-1
 242 681 l 1,6,7
 103 403 103 403 103 184 c 0,8,9
 103 90 103 90 136.5 51 c 128,-1,10
 170 12 170 12 234 12 c 0,11,12
 299 12 299 12 341.5 55 c 128,-1,13
 384 98 384 98 399 201 c 2,14,-1
 426 396 l 1,15,-1
 450 396 l 1,16,-1
 423 199 l 2,17,18
 418 162 418 162 418 137 c 0,19,20
 418 76 418 76 443.5 44 c 128,-1,21
 469 12 469 12 530 12 c 0,22,23
 650 12 650 12 698.5 136 c 128,-1,24
 747 260 747 260 747 443 c 0,25,26
 747 544 747 544 718 681 c 1,27,-1
 741 681 l 1,28,29
 756 614 756 614 763.5 557.5 c 128,-1,30
 771 501 771 501 771 443 c 0,31,32
 771 249 771 249 716.5 119.5 c 128,-1,33
 662 -10 662 -10 531 -10 c 0,34,35
 464 -10 464 -10 433.5 24 c 128,-1,36
 403 58 403 58 401 127 c 1,37,38
 377 55 377 55 336.5 22.5 c 128,-1,39
 296 -10 296 -10 234 -10 c 0,40,0
 158 -10 158 -10 119 36.5 c 128,-1,1
EndSplineSet
Substitution2: "'c2sc' Capitals to Small Capitals lookup 27 subtable" uniA7B6.sc
Substitution2: "'aalt' Access All Alternates lookup 0 subtable" uniA7B6.sc
Position2: "'cpsp' Capital Spacing lookup 0 subtable" dx=5 dy=0 dh=10 dv=0
EndChar

StartChar: uni01EA
Encoding: 490 490 209
Width: 689
GlyphClass: 2
Flags: W
AnchorPoint: "Anchor-18" 0 0 basechar 0
AnchorPoint: "Anchor-17" 591 681 basechar 0
AnchorPoint: "Anchor-16" 403 681 basechar 0
AnchorPoint: "Anchor-15" 393 0 basechar 0
AnchorPoint: "Anchor-14" 308 0 basechar 0
LayerCount: 2
Fore
SplineSet
275.5 -58.5 m 128,-1,1
 241 -87 241 -87 241 -126 c 0,2,3
 241 -181 241 -181 304 -181 c 0,4,5
 328 -181 328 -181 359 -174 c 1,6,-1
 354 -196 l 1,7,8
 326 -203 326 -203 301 -203 c 0,9,10
 260 -203 260 -203 238.5 -184.5 c 128,-1,11
 217 -166 217 -166 217 -135 c 0,12,13
 217 -93 217 -93 244 -63.5 c 128,-1,14
 271 -34 271 -34 324 -10 c 1,15,-1
 308 -10 l 2,16,17
 203 -10 203 -10 143 59.5 c 128,-1,18
 83 129 83 129 83 257 c 0,19,20
 83 353 83 353 115.5 453 c 128,-1,21
 148 553 148 553 220.5 622 c 128,-1,22
 293 691 293 691 404 691 c 0,23,24
 510 691 510 691 570 623 c 128,-1,25
 630 555 630 555 630 427 c 0,26,27
 630 340 630 340 605 250 c 128,-1,28
 580 160 580 160 524 90 c 128,-1,29
 468 20 468 20 380 -2 c 1,30,0
 310 -30 310 -30 275.5 -58.5 c 128,-1,1
159.5 75 m 128,-1,32
 213 12 213 12 308 12 c 0,33,34
 416 12 416 12 483 78.5 c 128,-1,35
 550 145 550 145 578 240 c 128,-1,36
 606 335 606 335 606 427 c 0,37,38
 606 546 606 546 553 608.5 c 128,-1,39
 500 671 500 671 404 671 c 0,40,41
 300 671 300 671 233 604.5 c 128,-1,42
 166 538 166 538 136 442.5 c 128,-1,43
 106 347 106 347 106 256 c 0,44,31
 106 138 106 138 159.5 75 c 128,-1,32
EndSplineSet
Substitution2: "'c2sc' Capitals to Small Capitals lookup 27 subtable" uni01EB.sc
Substitution2: "'aalt' Access All Alternates lookup 0 subtable" uni01EB.sc
Position2: "'cpsp' Capital Spacing lookup 0 subtable" dx=5 dy=0 dh=10 dv=0
EndChar

StartChar: uni01EC
Encoding: 492 492 210
Width: 689
GlyphClass: 2
Flags: W
AnchorPoint: "Anchor-18" 0 0 basechar 0
AnchorPoint: "Anchor-17" 591 681 basechar 0
AnchorPoint: "Anchor-16" 425 832 basechar 0
AnchorPoint: "Anchor-15" 393 0 basechar 0
AnchorPoint: "Anchor-14" 308 0 basechar 0
LayerCount: 2
Fore
SplineSet
528 832 m 1,0,-1
 525 811 l 1,1,-1
 318 811 l 1,2,-1
 321 832 l 1,3,-1
 528 832 l 1,0,-1
275.5 -58.5 m 128,-1,5
 241 -87 241 -87 241 -126 c 0,6,7
 241 -181 241 -181 304 -181 c 0,8,9
 328 -181 328 -181 359 -174 c 1,10,-1
 354 -196 l 1,11,12
 326 -203 326 -203 301 -203 c 0,13,14
 260 -203 260 -203 238.5 -184.5 c 128,-1,15
 217 -166 217 -166 217 -135 c 0,16,17
 217 -93 217 -93 244 -63.5 c 128,-1,18
 271 -34 271 -34 324 -10 c 1,19,-1
 308 -10 l 2,20,21
 203 -10 203 -10 143 59.5 c 128,-1,22
 83 129 83 129 83 257 c 0,23,24
 83 353 83 353 115.5 453 c 128,-1,25
 148 553 148 553 220.5 622 c 128,-1,26
 293 691 293 691 404 691 c 0,27,28
 510 691 510 691 570 623 c 128,-1,29
 630 555 630 555 630 427 c 0,30,31
 630 340 630 340 605 250 c 128,-1,32
 580 160 580 160 524 90 c 128,-1,33
 468 20 468 20 380 -2 c 1,34,4
 310 -30 310 -30 275.5 -58.5 c 128,-1,5
159.5 75 m 128,-1,36
 213 12 213 12 308 12 c 0,37,38
 416 12 416 12 483 78.5 c 128,-1,39
 550 145 550 145 578 240 c 128,-1,40
 606 335 606 335 606 427 c 0,41,42
 606 546 606 546 553 608.5 c 128,-1,43
 500 671 500 671 404 671 c 0,44,45
 300 671 300 671 233 604.5 c 128,-1,46
 166 538 166 538 136 442.5 c 128,-1,47
 106 347 106 347 106 256 c 0,48,35
 106 138 106 138 159.5 75 c 128,-1,36
EndSplineSet
Substitution2: "'c2sc' Capitals to Small Capitals lookup 27 subtable" uni01ED.sc
Substitution2: "'aalt' Access All Alternates lookup 0 subtable" uni01ED.sc
Position2: "'cpsp' Capital Spacing lookup 0 subtable" dx=5 dy=0 dh=10 dv=0
EndChar

StartChar: uni0186
Encoding: 390 390 211
Width: 537
GlyphClass: 2
Flags: W
AnchorPoint: "Anchor-18" 0 0 basechar 0
AnchorPoint: "Anchor-17" 0 0 basechar 0
AnchorPoint: "Anchor-16" 278 681 basechar 0
AnchorPoint: "Anchor-15" 0 0 basechar 0
AnchorPoint: "Anchor-14" 182 0 basechar 0
LayerCount: 2
Fore
SplineSet
420.5 624.5 m 128,-1,1
 477 558 477 558 477 431 c 0,2,3
 478 318 478 318 441 216.5 c 128,-1,4
 404 115 404 115 333 52.5 c 128,-1,5
 262 -10 262 -10 166 -10 c 0,6,7
 110 -10 110 -10 71 6.5 c 128,-1,8
 32 23 32 23 -4 54 c 1,9,-1
 10 71 l 1,10,11
 46 41 46 41 79.5 26.5 c 128,-1,12
 113 12 113 12 165 12 c 0,13,14
 255 12 255 12 320.5 71.5 c 128,-1,15
 386 131 386 131 420 227.5 c 128,-1,16
 454 324 454 324 454 431 c 0,17,18
 454 551 454 551 404 610.5 c 128,-1,19
 354 670 354 670 268 670 c 0,20,21
 216 670 216 670 177.5 657 c 128,-1,22
 139 644 139 644 96 617 c 1,23,-1
 84 634 l 1,24,25
 126 662 126 662 169 676.5 c 128,-1,26
 212 691 212 691 270 691 c 0,27,0
 364 691 364 691 420.5 624.5 c 128,-1,1
EndSplineSet
Substitution2: "'c2sc' Capitals to Small Capitals lookup 27 subtable" uni0254.sc
Substitution2: "'aalt' Access All Alternates lookup 0 subtable" uni0254.sc
Position2: "'cpsp' Capital Spacing lookup 0 subtable" dx=5 dy=0 dh=10 dv=0
EndChar

StartChar: Oslash
Encoding: 216 216 212
Width: 689
GlyphClass: 2
Flags: W
AnchorPoint: "Anchor-18" 0 0 basechar 0
AnchorPoint: "Anchor-17" 0 0 basechar 0
AnchorPoint: "Anchor-16" 405 681 basechar 0
AnchorPoint: "Anchor-15" 0 0 basechar 0
AnchorPoint: "Anchor-14" 308 0 basechar 0
LayerCount: 2
Fore
SplineSet
598.5 581 m 128,-1,1
 630 519 630 519 630 427 c 0,2,3
 630 328 630 328 598.5 228 c 128,-1,4
 567 128 567 128 494.5 59 c 128,-1,5
 422 -10 422 -10 308 -10 c 0,6,7
 259 -10 259 -10 220 5 c 1,8,-1
 170 -111 l 1,9,-1
 150 -104 l 1,10,-1
 202 13 l 1,11,12
 145 42 145 42 114 104 c 128,-1,13
 83 166 83 166 83 257 c 0,14,15
 83 353 83 353 115.5 453 c 128,-1,16
 148 553 148 553 220.5 622 c 128,-1,17
 293 691 293 691 404 691 c 0,18,19
 450 691 450 691 490 677 c 1,20,-1
 542 798 l 1,21,-1
 563 792 l 1,22,-1
 508 670 l 1,23,0
 567 643 567 643 598.5 581 c 128,-1,1
133.5 115.5 m 128,-1,25
 161 59 161 59 213 33 c 1,26,-1
 483 658 l 1,27,28
 450 671 450 671 404 671 c 0,29,30
 300 671 300 671 233 604.5 c 128,-1,31
 166 538 166 538 136 442 c 128,-1,32
 106 346 106 346 106 255 c 0,33,24
 106 172 106 172 133.5 115.5 c 128,-1,25
483 78.5 m 128,-1,35
 550 145 550 145 578 240 c 128,-1,36
 606 335 606 335 606 428 c 0,37,38
 606 513 606 513 578.5 569.5 c 128,-1,39
 551 626 551 626 499 651 c 1,40,-1
 228 26 l 1,41,42
 265 12 265 12 308 12 c 0,43,34
 416 12 416 12 483 78.5 c 128,-1,35
EndSplineSet
Substitution2: "'c2sc' Capitals to Small Capitals lookup 27 subtable" oslash.sc
Substitution2: "'aalt' Access All Alternates lookup 0 subtable" oslash.sc
Position2: "'cpsp' Capital Spacing lookup 0 subtable" dx=5 dy=0 dh=10 dv=0
EndChar

StartChar: uni022C
Encoding: 556 556 216
Width: 689
GlyphClass: 2
Flags: W
AnchorPoint: "Anchor-18" 0 0 basechar 0
AnchorPoint: "Anchor-17" 591 681 basechar 0
AnchorPoint: "Anchor-16" 433 899 basechar 0
AnchorPoint: "Anchor-15" 393 0 basechar 0
AnchorPoint: "Anchor-14" 308 0 basechar 0
LayerCount: 2
Fore
SplineSet
533 878 m 1,0,-1
 326 878 l 1,1,-1
 329 899 l 1,2,-1
 536 899 l 1,3,-1
 533 878 l 1,0,-1
447 762.5 m 128,-1,5
 434 768 434 768 413 780 c 0,6,7
 397 790 397 790 386 795 c 128,-1,8
 375 800 375 800 363 800 c 0,9,10
 344 800 344 800 331.5 792.5 c 128,-1,11
 319 785 319 785 298 764 c 1,12,-1
 285 774 l 1,13,14
 305 797 305 797 324 808.5 c 128,-1,15
 343 820 343 820 363 820 c 0,16,17
 377 820 377 820 388.5 815 c 128,-1,18
 400 810 400 810 420 799 c 0,19,20
 436 788 436 788 449 782.5 c 128,-1,21
 462 777 462 777 476 777 c 0,22,23
 492 777 492 777 507 786.5 c 128,-1,24
 522 796 522 796 540 818 c 1,25,-1
 554 809 l 1,26,27
 534 781 534 781 515.5 769 c 128,-1,28
 497 757 497 757 476 757 c 0,29,4
 460 757 460 757 447 762.5 c 128,-1,5
570 623 m 128,-1,31
 630 555 630 555 630 427 c 0,32,33
 630 328 630 328 598.5 228 c 128,-1,34
 567 128 567 128 494.5 59 c 128,-1,35
 422 -10 422 -10 308 -10 c 0,36,37
 203 -10 203 -10 143 59.5 c 128,-1,38
 83 129 83 129 83 257 c 0,39,40
 83 353 83 353 115.5 453 c 128,-1,41
 148 553 148 553 220.5 622 c 128,-1,42
 293 691 293 691 404 691 c 0,43,30
 510 691 510 691 570 623 c 128,-1,31
233 604.5 m 128,-1,45
 166 538 166 538 136 442.5 c 128,-1,46
 106 347 106 347 106 256 c 0,47,48
 106 138 106 138 159.5 75 c 128,-1,49
 213 12 213 12 308 12 c 0,50,51
 416 12 416 12 483 78.5 c 128,-1,52
 550 145 550 145 578 240 c 128,-1,53
 606 335 606 335 606 427 c 0,54,55
 606 546 606 546 553 608.5 c 128,-1,56
 500 671 500 671 404 671 c 0,57,44
 300 671 300 671 233 604.5 c 128,-1,45
EndSplineSet
Substitution2: "'c2sc' Capitals to Small Capitals lookup 27 subtable" uni022D.sc
Substitution2: "'aalt' Access All Alternates lookup 0 subtable" uni022D.sc
Position2: "'cpsp' Capital Spacing lookup 0 subtable" dx=5 dy=0 dh=10 dv=0
EndChar

StartChar: OE
Encoding: 338 338 217
Width: 844
GlyphClass: 2
Flags: W
AnchorPoint: "Anchor-18" 0 0 basechar 0
AnchorPoint: "Anchor-17" 0 0 basechar 0
AnchorPoint: "Anchor-16" 482 681 basechar 0
AnchorPoint: "Anchor-15" 0 0 basechar 0
AnchorPoint: "Anchor-14" 386 0 basechar 0
LayerCount: 2
Fore
SplineSet
848 660 m 1,0,-1
 502 660 l 1,1,2
 553 631 553 631 579.5 573 c 128,-1,3
 606 515 606 515 606 432 c 0,4,5
 606 403 606 403 603 370 c 1,6,-1
 766 370 l 1,7,-1
 764 349 l 1,8,-1
 600 349 l 1,9,10
 586 242 586 242 540 151.5 c 128,-1,11
 494 61 494 61 413 21 c 1,12,-1
 768 21 l 1,13,-1
 765 0 l 1,14,-1
 362 0 l 1,15,16
 327 -10 327 -10 295 -10 c 0,17,18
 197 -10 197 -10 139.5 59.5 c 128,-1,19
 82 129 82 129 82 255 c 0,20,21
 82 349 82 349 114.5 450 c 128,-1,22
 147 551 147 551 216.5 621 c 128,-1,23
 286 691 286 691 390 691 c 0,24,25
 430 691 430 691 459 681 c 1,26,-1
 853 681 l 1,27,-1
 848 660 l 1,0,-1
532.5 609 m 128,-1,29
 481 671 481 671 390 671 c 0,30,31
 292 671 292 671 228 604 c 128,-1,32
 164 537 164 537 134.5 440 c 128,-1,33
 105 343 105 343 105 253 c 0,34,35
 105 137 105 137 156 74.5 c 128,-1,36
 207 12 207 12 295 12 c 0,37,38
 398 12 398 12 463 81 c 128,-1,39
 528 150 528 150 556 247 c 128,-1,40
 584 344 584 344 584 433 c 0,41,28
 584 547 584 547 532.5 609 c 128,-1,29
EndSplineSet
Substitution2: "'c2sc' Capitals to Small Capitals lookup 27 subtable" oe.sc
Substitution2: "'aalt' Access All Alternates lookup 0 subtable" oe.sc
Position2: "'cpsp' Capital Spacing lookup 0 subtable" dx=5 dy=0 dh=10 dv=0
EndChar

StartChar: P
Encoding: 80 80 218
Width: 558
GlyphClass: 2
Flags: W
AnchorPoint: "Anchor-18" 0 0 basechar 0
AnchorPoint: "Anchor-17" 0 0 basechar 0
AnchorPoint: "Anchor-16" 339 681 basechar 0
AnchorPoint: "Anchor-15" 0 0 basechar 0
AnchorPoint: "Anchor-14" 243 0 basechar 0
LayerCount: 2
Fore
SplineSet
480.5 641.5 m 128,-1,1
 535 602 535 602 535 519 c 0,2,3
 535 417 535 417 471.5 349.5 c 128,-1,4
 408 282 408 282 260 282 c 2,5,-1
 149 282 l 1,6,-1
 109 0 l 1,7,-1
 86 0 l 1,8,-1
 182 681 l 1,9,-1
 319 681 l 2,10,0
 426 681 426 681 480.5 641.5 c 128,-1,1
454.5 364 m 128,-1,12
 511 425 511 425 511 519 c 0,13,14
 511 594 511 594 463 627 c 128,-1,15
 415 660 415 660 317 660 c 2,16,-1
 202 660 l 1,17,-1
 152 303 l 1,18,-1
 263 303 l 2,19,11
 398 303 398 303 454.5 364 c 128,-1,12
EndSplineSet
Substitution2: "'c2sc' Capitals to Small Capitals lookup 27 subtable" p.sc
Substitution2: "'aalt' Access All Alternates lookup 0 subtable" p.sc
Position2: "'cpsp' Capital Spacing lookup 0 subtable" dx=5 dy=0 dh=10 dv=0
EndChar

StartChar: uni01A4
Encoding: 420 420 221
Width: 602
GlyphClass: 2
Flags: W
AnchorPoint: "Anchor-18" 0 0 basechar 0
AnchorPoint: "Anchor-17" 0 0 basechar 0
AnchorPoint: "Anchor-16" 382 681 basechar 0
AnchorPoint: "Anchor-15" 0 0 basechar 0
AnchorPoint: "Anchor-14" 286 0 basechar 0
LayerCount: 2
Fore
SplineSet
523.5 641.5 m 128,-1,1
 578 602 578 602 578 519 c 0,2,3
 578 417 578 417 514.5 349.5 c 128,-1,4
 451 282 451 282 303 282 c 2,5,-1
 192 282 l 1,6,-1
 152 0 l 1,7,-1
 129 0 l 1,8,-1
 222 661 l 1,9,-1
 190 661 l 2,10,11
 140 661 140 661 115 635.5 c 128,-1,12
 90 610 90 610 90 569 c 0,13,14
 90 550 90 550 94 537 c 128,-1,15
 98 524 98 524 106 507 c 1,16,-1
 87 498 l 1,17,18
 77 517 77 517 72.5 532 c 128,-1,19
 68 547 68 547 68 569 c 0,20,21
 68 619 68 619 100.5 650 c 128,-1,22
 133 681 133 681 193 681 c 2,23,-1
 362 681 l 2,24,0
 469 681 469 681 523.5 641.5 c 128,-1,1
497.5 364 m 128,-1,26
 554 425 554 425 554 519 c 0,27,28
 554 594 554 594 506 627 c 128,-1,29
 458 660 458 660 360 660 c 2,30,-1
 245 660 l 1,31,-1
 195 303 l 1,32,-1
 306 303 l 2,33,25
 441 303 441 303 497.5 364 c 128,-1,26
EndSplineSet
Substitution2: "'c2sc' Capitals to Small Capitals lookup 27 subtable" uni01A5.sc
Substitution2: "'aalt' Access All Alternates lookup 0 subtable" uni01A5.sc
Position2: "'cpsp' Capital Spacing lookup 0 subtable" dx=5 dy=0 dh=10 dv=0
EndChar

StartChar: Thorn
Encoding: 222 222 222
Width: 558
GlyphClass: 2
Flags: W
AnchorPoint: "Anchor-18" 0 0 basechar 0
AnchorPoint: "Anchor-17" 0 0 basechar 0
AnchorPoint: "Anchor-16" 339 681 basechar 0
AnchorPoint: "Anchor-15" 0 0 basechar 0
AnchorPoint: "Anchor-14" 243 0 basechar 0
LayerCount: 2
Fore
SplineSet
463 514 m 128,-1,1
 517 474 517 474 517 384 c 0,2,3
 517 285 517 285 453 216 c 128,-1,4
 389 147 389 147 241 147 c 2,5,-1
 130 147 l 1,6,-1
 109 0 l 1,7,-1
 86 0 l 1,8,-1
 182 681 l 1,9,-1
 205 681 l 1,10,-1
 187 554 l 1,11,-1
 302 554 l 2,12,0
 409 554 409 554 463 514 c 128,-1,1
436 230.5 m 128,-1,14
 494 293 494 293 494 384 c 0,15,16
 494 465 494 465 446.5 499 c 128,-1,17
 399 533 399 533 300 533 c 2,18,-1
 184 533 l 1,19,-1
 133 168 l 1,20,-1
 245 168 l 2,21,13
 378 168 378 168 436 230.5 c 128,-1,14
EndSplineSet
Substitution2: "'c2sc' Capitals to Small Capitals lookup 27 subtable" thorn.sc
Substitution2: "'aalt' Access All Alternates lookup 0 subtable" thorn.sc
Position2: "'cpsp' Capital Spacing lookup 0 subtable" dx=5 dy=0 dh=10 dv=0
EndChar

StartChar: Q
Encoding: 81 81 223
Width: 674
GlyphClass: 2
Flags: W
AnchorPoint: "Anchor-18" 0 0 basechar 0
AnchorPoint: "Anchor-17" 0 0 basechar 0
AnchorPoint: "Anchor-16" 396 681 basechar 0
AnchorPoint: "Anchor-15" 0 0 basechar 0
AnchorPoint: "Anchor-14" 301 0 basechar 0
LayerCount: 2
Fore
SplineSet
605.5 251.5 m 128,-1,1
 581 162 581 162 525 93 c 128,-1,2
 469 24 469 24 382 4 c 1,3,4
 447 2 447 2 498 -13.5 c 128,-1,5
 549 -29 549 -29 585 -64 c 1,6,-1
 568 -82 l 1,7,8
 525 -40 525 -40 466.5 -24.5 c 128,-1,9
 408 -9 408 -9 311 -10 c 2,10,-1
 308 -10 l 2,11,12
 203 -10 203 -10 143 59.5 c 128,-1,13
 83 129 83 129 83 257 c 0,14,15
 83 353 83 353 115.5 453 c 128,-1,16
 148 553 148 553 220.5 622 c 128,-1,17
 293 691 293 691 404 691 c 0,18,19
 510 691 510 691 570 623 c 128,-1,20
 630 555 630 555 630 427 c 0,21,0
 630 341 630 341 605.5 251.5 c 128,-1,1
160 75 m 128,-1,23
 214 12 214 12 308 12 c 0,24,25
 416 12 416 12 483 78.5 c 128,-1,26
 550 145 550 145 578 240 c 128,-1,27
 606 335 606 335 606 428 c 0,28,29
 606 546 606 546 553 608.5 c 128,-1,30
 500 671 500 671 404 671 c 0,31,32
 300 671 300 671 233 604.5 c 128,-1,33
 166 538 166 538 136 442 c 128,-1,34
 106 346 106 346 106 255 c 0,35,22
 106 138 106 138 160 75 c 128,-1,23
EndSplineSet
Substitution2: "'c2sc' Capitals to Small Capitals lookup 27 subtable" q.sc
Substitution2: "'aalt' Access All Alternates lookup 0 subtable" q.sc
Position2: "'cpsp' Capital Spacing lookup 0 subtable" dx=5 dy=0 dh=10 dv=0
EndChar

StartChar: uni024A
Encoding: 586 586 224
Width: 653
GlyphClass: 2
Flags: W
AnchorPoint: "Anchor-18" 0 0 basechar 0
AnchorPoint: "Anchor-17" 0 0 basechar 0
AnchorPoint: "Anchor-16" 383 681 basechar 0
AnchorPoint: "Anchor-15" 0 0 basechar 0
AnchorPoint: "Anchor-14" 0 0 basechar 0
LayerCount: 2
Fore
SplineSet
630 -168 m 1,0,1
 589 -197 589 -197 538 -197 c 0,2,3
 499 -197 499 -197 476.5 -175 c 128,-1,4
 454 -153 454 -153 454 -111 c 0,5,6
 454 -103 454 -103 456 -85 c 2,7,-1
 467 0 l 1,8,-1
 477 74 l 1,9,10
 401 -10 401 -10 291 -10 c 0,11,12
 196 -10 196 -10 139 57.5 c 128,-1,13
 82 125 82 125 82 249 c 0,14,15
 82 358 82 358 119 460 c 128,-1,16
 156 562 156 562 225 626.5 c 128,-1,17
 294 691 294 691 386 691 c 0,18,19
 493 691 493 691 553 608 c 1,20,-1
 565 681 l 1,21,-1
 584 681 l 1,22,-1
 490 0 l 1,23,-1
 478 -86 l 2,24,25
 477 -94 477 -94 477 -108 c 0,26,27
 477 -176 477 -176 538 -176 c 0,28,29
 582 -176 582 -176 620 -151 c 1,30,-1
 630 -168 l 1,0,1
482 104 m 1,32,-1
 549 582 l 1,33,34
 491 670 491 670 386 670 c 0,35,36
 299 670 299 670 235 607.5 c 128,-1,37
 171 545 171 545 138 447.5 c 128,-1,38
 105 350 105 350 105 248 c 0,39,40
 105 134 105 134 156 73 c 128,-1,41
 207 12 207 12 291 12 c 0,42,31
 405 12 405 12 482 104 c 1,32,-1
EndSplineSet
Substitution2: "'c2sc' Capitals to Small Capitals lookup 27 subtable" uni024B.sc
Substitution2: "'aalt' Access All Alternates lookup 0 subtable" uni024B.sc
Position2: "'cpsp' Capital Spacing lookup 0 subtable" dx=5 dy=0 dh=10 dv=0
EndChar

StartChar: R
Encoding: 82 82 225
Width: 572
GlyphClass: 2
Flags: W
AnchorPoint: "Anchor-18" 0 0 basechar 0
AnchorPoint: "Anchor-17" 0 0 basechar 0
AnchorPoint: "Anchor-16" 346 681 basechar 0
AnchorPoint: "Anchor-15" 0 0 basechar 0
AnchorPoint: "Anchor-14" 267 0 basechar 0
LayerCount: 2
Fore
SplineSet
486 397 m 128,-1,1
 439 339 439 339 345 326 c 1,2,-1
 491 0 l 1,3,-1
 466 0 l 1,4,-1
 321 324 l 1,5,-1
 155 324 l 1,6,-1
 109 0 l 1,7,-1
 86 0 l 1,8,-1
 182 681 l 1,9,-1
 336 681 l 2,10,11
 533 681 533 681 533 531 c 0,12,0
 533 455 533 455 486 397 c 128,-1,1
302 345 m 2,13,14
 374 345 374 345 420.5 372 c 128,-1,15
 467 399 467 399 488 441 c 128,-1,16
 509 483 509 483 509 531 c 0,17,18
 509 595 509 595 467.5 627.5 c 128,-1,19
 426 660 426 660 333 660 c 2,20,-1
 202 660 l 1,21,-1
 158 345 l 1,22,-1
 302 345 l 2,13,14
EndSplineSet
Substitution2: "'c2sc' Capitals to Small Capitals lookup 27 subtable" r.sc
Substitution2: "'aalt' Access All Alternates lookup 0 subtable" r.sc
Position2: "'cpsp' Capital Spacing lookup 0 subtable" dx=5 dy=0 dh=10 dv=0
EndChar

StartChar: uni024C
Encoding: 588 588 232
Width: 578
GlyphClass: 2
Flags: W
AnchorPoint: "Anchor-18" 0 0 basechar 0
AnchorPoint: "Anchor-17" 0 0 basechar 0
AnchorPoint: "Anchor-16" 352 681 basechar 0
AnchorPoint: "Anchor-15" 0 0 basechar 0
AnchorPoint: "Anchor-14" 273 0 basechar 0
LayerCount: 2
Fore
SplineSet
492 397 m 128,-1,1
 445 339 445 339 351 326 c 1,2,-1
 497 0 l 1,3,-1
 472 0 l 1,4,-1
 327 324 l 1,5,-1
 161 324 l 1,6,-1
 115 0 l 1,7,-1
 92 0 l 1,8,-1
 138 324 l 1,9,-1
 46 324 l 1,10,-1
 49 345 l 1,11,-1
 141 345 l 1,12,-1
 188 681 l 1,13,-1
 342 681 l 2,14,15
 539 681 539 681 539 531 c 0,16,0
 539 455 539 455 492 397 c 128,-1,1
426.5 372 m 128,-1,18
 473 399 473 399 494 441 c 128,-1,19
 515 483 515 483 515 531 c 0,20,21
 515 595 515 595 473.5 627.5 c 128,-1,22
 432 660 432 660 339 660 c 2,23,-1
 208 660 l 1,24,-1
 164 345 l 1,25,-1
 308 345 l 2,26,17
 380 345 380 345 426.5 372 c 128,-1,18
EndSplineSet
Substitution2: "'c2sc' Capitals to Small Capitals lookup 27 subtable" uni024D.sc
Substitution2: "'aalt' Access All Alternates lookup 0 subtable" uni024D.sc
Position2: "'cpsp' Capital Spacing lookup 0 subtable" dx=5 dy=0 dh=10 dv=0
EndChar

StartChar: uni2C64
Encoding: 11364 11364 233
Width: 572
GlyphClass: 2
Flags: W
AnchorPoint: "Anchor-18" 0 0 basechar 0
AnchorPoint: "Anchor-17" 0 0 basechar 0
AnchorPoint: "Anchor-16" 346 681 basechar 0
AnchorPoint: "Anchor-15" 0 0 basechar 0
AnchorPoint: "Anchor-14" 267 0 basechar 0
LayerCount: 2
Fore
SplineSet
486 397 m 128,-1,1
 439 339 439 339 345 326 c 1,2,-1
 491 0 l 1,3,-1
 466 0 l 1,4,-1
 321 324 l 1,5,-1
 155 324 l 1,6,-1
 109 0 l 1,7,-1
 97 -86 l 2,8,9
 96 -94 96 -94 96 -108 c 0,10,11
 96 -176 96 -176 157 -176 c 0,12,13
 201 -176 201 -176 239 -151 c 1,14,-1
 249 -168 l 1,15,16
 208 -197 208 -197 157 -197 c 0,17,18
 118 -197 118 -197 95.5 -175 c 128,-1,19
 73 -153 73 -153 73 -111 c 0,20,21
 73 -103 73 -103 75 -85 c 2,22,-1
 86 0 l 1,23,-1
 182 681 l 1,24,-1
 336 681 l 2,25,26
 533 681 533 681 533 531 c 0,27,0
 533 455 533 455 486 397 c 128,-1,1
302 345 m 2,28,29
 374 345 374 345 420.5 372 c 128,-1,30
 467 399 467 399 488 441 c 128,-1,31
 509 483 509 483 509 531 c 0,32,33
 509 595 509 595 467.5 627.5 c 128,-1,34
 426 660 426 660 333 660 c 2,35,-1
 202 660 l 1,36,-1
 158 345 l 1,37,-1
 302 345 l 2,28,29
EndSplineSet
Substitution2: "'ss01' Style Set 1 lookup 34 subtable" uni2C64.ss01
Substitution2: "'salt' Stylistic Alternatives lookup 33 subtable" uni2C64.ss01
Substitution2: "'c2sc' Capitals to Small Capitals lookup 27 subtable" uni2C64.sc
AlternateSubs2: "'aalt' Access All Alternates lookup 1 subtable" uni2C64.sc uni2C64.ss01
Position2: "'cpsp' Capital Spacing lookup 0 subtable" dx=5 dy=0 dh=10 dv=0
EndChar

StartChar: S
Encoding: 83 83 234
Width: 536
GlyphClass: 2
Flags: W
AnchorPoint: "Anchor-18" 0 0 basechar 0
AnchorPoint: "Anchor-17" 0 0 basechar 0
AnchorPoint: "Anchor-16" 327 681 basechar 0
AnchorPoint: "Anchor-15" 0 0 basechar 0
AnchorPoint: "Anchor-14" 224 0 basechar 0
LayerCount: 2
Fore
SplineSet
420.5 673 m 128,-1,1
 461 655 461 655 495 621 c 1,2,-1
 481 606 l 1,3,4
 448 640 448 640 411 655.5 c 128,-1,5
 374 671 374 671 324 671 c 0,6,7
 266 671 266 671 224.5 650.5 c 128,-1,8
 183 630 183 630 161.5 595.5 c 128,-1,9
 140 561 140 561 140 521 c 0,10,11
 140 466 140 466 173.5 435.5 c 128,-1,12
 207 405 207 405 290 379 c 0,13,14
 378 350 378 350 418 309.5 c 128,-1,15
 458 269 458 269 458 200 c 0,16,17
 458 151 458 151 433 102.5 c 128,-1,18
 408 54 408 54 354.5 22 c 128,-1,19
 301 -10 301 -10 222 -10 c 0,20,21
 158 -10 158 -10 112 11 c 128,-1,22
 66 32 66 32 28 73 c 1,23,-1
 43 87 l 1,24,25
 78 50 78 50 120 31 c 128,-1,26
 162 12 162 12 221 12 c 0,27,28
 296 12 296 12 344 41.5 c 128,-1,29
 392 71 392 71 413.5 114 c 128,-1,30
 435 157 435 157 435 200 c 0,31,32
 435 261 435 261 399 296.5 c 128,-1,33
 363 332 363 332 281 359 c 0,34,35
 190 389 190 389 153.5 424.5 c 128,-1,36
 117 460 117 460 117 521 c 0,37,38
 117 565 117 565 140.5 604 c 128,-1,39
 164 643 164 643 211 667 c 128,-1,40
 258 691 258 691 324 691 c 0,41,0
 380 691 380 691 420.5 673 c 128,-1,1
EndSplineSet
Substitution2: "'c2sc' Capitals to Small Capitals lookup 27 subtable" s.sc
Substitution2: "'aalt' Access All Alternates lookup 0 subtable" s.sc
Position2: "'cpsp' Capital Spacing lookup 0 subtable" dx=5 dy=0 dh=10 dv=0
EndChar

StartChar: uniA78B
Encoding: 42891 42891 236
Width: 190
GlyphClass: 2
Flags: W
LayerCount: 2
Fore
SplineSet
101 361 m 1,0,-1
 142 681 l 1,1,-1
 166 681 l 1,2,-1
 119 361 l 1,3,-1
 101 361 l 1,0,-1
EndSplineSet
Position2: "'cpsp' Capital Spacing lookup 0 subtable" dx=5 dy=0 dh=10 dv=0
EndChar

StartChar: Scedilla
Encoding: 350 350 238
Width: 536
GlyphClass: 2
Flags: W
AnchorPoint: "Anchor-18" 0 0 basechar 0
AnchorPoint: "Anchor-17" 0 0 basechar 0
AnchorPoint: "Anchor-16" 327 681 basechar 0
AnchorPoint: "Anchor-15" 0 0 basechar 0
AnchorPoint: "Anchor-14" 224 -212 basechar 0
LayerCount: 2
Fore
SplineSet
420.5 673 m 128,-1,1
 461 655 461 655 495 621 c 1,2,-1
 481 606 l 1,3,4
 448 640 448 640 411 655.5 c 128,-1,5
 374 671 374 671 324 671 c 0,6,7
 266 671 266 671 224.5 650.5 c 128,-1,8
 183 630 183 630 161.5 595.5 c 128,-1,9
 140 561 140 561 140 521 c 0,10,11
 140 466 140 466 173.5 435.5 c 128,-1,12
 207 405 207 405 290 379 c 0,13,14
 378 350 378 350 418 309.5 c 128,-1,15
 458 269 458 269 458 200 c 0,16,17
 458 151 458 151 433.5 103.5 c 128,-1,18
 409 56 409 56 358 24 c 128,-1,19
 307 -8 307 -8 230 -10 c 1,20,-1
 218 -74 l 1,21,22
 261 -77 261 -77 281.5 -92.5 c 128,-1,23
 302 -108 302 -108 302 -138 c 0,24,25
 302 -172 302 -172 276 -192 c 128,-1,26
 250 -212 250 -212 209 -212 c 0,27,28
 169 -212 169 -212 142 -194 c 1,29,-1
 152 -178 l 1,30,31
 175 -192 175 -192 209 -192 c 0,32,33
 241 -192 241 -192 260 -178 c 128,-1,34
 279 -164 279 -164 279 -138 c 0,35,36
 279 -113 279 -113 260 -102.5 c 128,-1,37
 241 -92 241 -92 196 -91 c 1,38,-1
 212 -10 l 1,39,40
 152 -9 152 -9 108.5 12.5 c 128,-1,41
 65 34 65 34 28 73 c 1,42,-1
 43 87 l 1,43,44
 78 50 78 50 120 31 c 128,-1,45
 162 12 162 12 221 12 c 0,46,47
 296 12 296 12 344 41.5 c 128,-1,48
 392 71 392 71 413.5 114 c 128,-1,49
 435 157 435 157 435 200 c 0,50,51
 435 261 435 261 399 296.5 c 128,-1,52
 363 332 363 332 281 359 c 0,53,54
 190 389 190 389 153.5 424.5 c 128,-1,55
 117 460 117 460 117 521 c 0,56,57
 117 565 117 565 140.5 604 c 128,-1,58
 164 643 164 643 211 667 c 128,-1,59
 258 691 258 691 324 691 c 0,60,0
 380 691 380 691 420.5 673 c 128,-1,1
EndSplineSet
Substitution2: "'c2sc' Capitals to Small Capitals lookup 27 subtable" scedilla.sc
Substitution2: "'locl' Localized Forms in Latin lookup 5 subtable" Scommaaccent
Substitution2: "'locl' Localized Forms in Latin lookup 4 subtable" Scommaaccent
AlternateSubs2: "'aalt' Access All Alternates lookup 1 subtable" Scommaaccent scedilla.sc
Position2: "'cpsp' Capital Spacing lookup 0 subtable" dx=5 dy=0 dh=10 dv=0
EndChar

StartChar: uni1E9E
Encoding: 7838 7838 243
Width: 637
GlyphClass: 2
Flags: W
LayerCount: 2
Fore
SplineSet
490 674.5 m 128,-1,1
 540 658 540 658 589 625 c 1,2,-1
 587 608 l 1,3,-1
 349 382 l 1,4,5
 458 370 458 370 512.5 327 c 128,-1,6
 567 284 567 284 567 207 c 0,7,8
 567 146 567 146 540 96.5 c 128,-1,9
 513 47 513 47 464.5 18.5 c 128,-1,10
 416 -10 416 -10 352 -10 c 0,11,12
 287 -10 287 -10 241 12 c 1,13,-1
 252 30 l 1,14,15
 295 11 295 11 352 11 c 0,16,17
 410 11 410 11 453.5 36.5 c 128,-1,18
 497 62 497 62 520 107 c 128,-1,19
 543 152 543 152 543 207 c 0,20,21
 543 279 543 279 490 316 c 128,-1,22
 437 353 437 353 322 364 c 1,23,-1
 324 385 l 1,24,-1
 563 616 l 1,25,26
 521 642 521 642 477.5 656 c 128,-1,27
 434 670 434 670 381 670 c 0,28,29
 296 670 296 670 243 625.5 c 128,-1,30
 190 581 190 581 178 492 c 2,31,-1
 109 0 l 1,32,-1
 86 0 l 1,33,-1
 156 496 l 2,34,35
 169 590 169 590 228 640.5 c 128,-1,36
 287 691 287 691 381 691 c 0,37,0
 440 691 440 691 490 674.5 c 128,-1,1
EndSplineSet
Substitution2: "'c2sc' Capitals to Small Capitals lookup 27 subtable" germandbls.sc
Substitution2: "'aalt' Access All Alternates lookup 0 subtable" germandbls.sc
Position2: "'cpsp' Capital Spacing lookup 0 subtable" dx=5 dy=0 dh=10 dv=0
EndChar

StartChar: T
Encoding: 84 84 245
Width: 476
GlyphClass: 2
Flags: W
AnchorPoint: "Anchor-18" 250 346 basechar 0
AnchorPoint: "Anchor-17" 0 0 basechar 0
AnchorPoint: "Anchor-16" 297 681 basechar 0
AnchorPoint: "Anchor-15" 0 0 basechar 0
AnchorPoint: "Anchor-14" 201 0 basechar 0
LayerCount: 2
Fore
SplineSet
522 681 m 1,0,-1
 515 659 l 1,1,-1
 305 659 l 1,2,-1
 212 0 l 1,3,-1
 190 0 l 1,4,-1
 283 659 l 1,5,-1
 73 659 l 1,6,-1
 75 681 l 1,7,-1
 522 681 l 1,0,-1
EndSplineSet
Substitution2: "'c2sc' Capitals to Small Capitals lookup 27 subtable" t.sc
Substitution2: "'aalt' Access All Alternates lookup 0 subtable" t.sc
Position2: "'cpsp' Capital Spacing lookup 0 subtable" dx=5 dy=0 dh=10 dv=0
EndChar

StartChar: Tbar
Encoding: 358 358 246
Width: 476
GlyphClass: 2
Flags: W
AnchorPoint: "Anchor-18" 250 346 basechar 0
AnchorPoint: "Anchor-17" 0 0 basechar 0
AnchorPoint: "Anchor-16" 297 681 basechar 0
AnchorPoint: "Anchor-15" 0 0 basechar 0
AnchorPoint: "Anchor-14" 201 0 basechar 0
LayerCount: 2
Fore
SplineSet
515 659 m 1,0,-1
 305 659 l 1,1,-1
 266 380 l 1,2,-1
 388 380 l 1,3,-1
 386 360 l 1,4,-1
 263 360 l 1,5,-1
 212 0 l 1,6,-1
 190 0 l 1,7,-1
 241 360 l 1,8,-1
 118 360 l 1,9,-1
 121 380 l 1,10,-1
 244 380 l 1,11,-1
 283 659 l 1,12,-1
 73 659 l 1,13,-1
 75 681 l 1,14,-1
 522 681 l 1,15,-1
 515 659 l 1,0,-1
EndSplineSet
Substitution2: "'c2sc' Capitals to Small Capitals lookup 27 subtable" tbar.sc
Substitution2: "'aalt' Access All Alternates lookup 0 subtable" tbar.sc
Position2: "'cpsp' Capital Spacing lookup 0 subtable" dx=5 dy=0 dh=10 dv=0
EndChar

StartChar: uni0162
Encoding: 354 354 248
Width: 476
GlyphClass: 2
Flags: W
AnchorPoint: "Anchor-18" 250 346 basechar 0
AnchorPoint: "Anchor-17" 0 0 basechar 0
AnchorPoint: "Anchor-16" 297 681 basechar 0
AnchorPoint: "Anchor-15" 0 0 basechar 0
AnchorPoint: "Anchor-14" 201 0 basechar 0
LayerCount: 2
Fore
SplineSet
522 681 m 1,0,-1
 515 659 l 1,1,-1
 305 659 l 1,2,-1
 212 0 l 1,3,-1
 199 -74 l 1,4,5
 241 -76 241 -76 261.5 -90.5 c 128,-1,6
 282 -105 282 -105 282 -135 c 0,7,8
 282 -168 282 -168 254.5 -190 c 128,-1,9
 227 -212 227 -212 188 -212 c 0,10,11
 150 -212 150 -212 121 -194 c 1,12,-1
 132 -177 l 1,13,14
 154 -192 154 -192 188 -192 c 0,15,16
 219 -192 219 -192 238.5 -176 c 128,-1,17
 258 -160 258 -160 258 -135 c 0,18,19
 258 -112 258 -112 239.5 -101.5 c 128,-1,20
 221 -91 221 -91 177 -90 c 1,21,-1
 195 0 l 1,22,-1
 190 0 l 1,23,-1
 283 659 l 1,24,-1
 73 659 l 1,25,-1
 75 681 l 1,26,-1
 522 681 l 1,0,-1
EndSplineSet
Substitution2: "'c2sc' Capitals to Small Capitals lookup 27 subtable" uni0163.sc
Substitution2: "'locl' Localized Forms in Latin lookup 5 subtable" uni021A
Substitution2: "'locl' Localized Forms in Latin lookup 4 subtable" uni021A
AlternateSubs2: "'aalt' Access All Alternates lookup 1 subtable" uni021A uni0163.sc
Position2: "'cpsp' Capital Spacing lookup 0 subtable" dx=5 dy=0 dh=10 dv=0
EndChar

StartChar: uni023E
Encoding: 574 574 251
Width: 476
GlyphClass: 2
Flags: W
AnchorPoint: "Anchor-18" 0 0 basechar 0
AnchorPoint: "Anchor-17" 0 0 basechar 0
AnchorPoint: "Anchor-16" 297 681 basechar 0
AnchorPoint: "Anchor-15" 0 0 basechar 0
AnchorPoint: "Anchor-14" 201 0 basechar 0
LayerCount: 2
Fore
SplineSet
515 659 m 1,0,-1
 387 659 l 1,1,-1
 261 346 l 1,2,-1
 212 0 l 1,3,-1
 190 0 l 1,4,-1
 227 262 l 1,5,-1
 95 -66 l 1,6,-1
 78 -62 l 1,7,-1
 237 332 l 1,8,-1
 283 659 l 1,9,-1
 73 659 l 1,10,-1
 75 681 l 1,11,-1
 377 681 l 1,12,-1
 400 737 l 1,13,-1
 416 732 l 1,14,-1
 395 681 l 1,15,-1
 522 681 l 1,16,-1
 515 659 l 1,0,-1
271 416 m 1,17,-1
 369 659 l 1,18,-1
 305 659 l 1,19,-1
 271 416 l 1,17,-1
EndSplineSet
Substitution2: "'c2sc' Capitals to Small Capitals lookup 27 subtable" uni2C66.sc
Substitution2: "'aalt' Access All Alternates lookup 0 subtable" uni2C66.sc
Position2: "'cpsp' Capital Spacing lookup 0 subtable" dx=5 dy=0 dh=10 dv=0
EndChar

StartChar: uni01AC
Encoding: 428 428 254
Width: 497
GlyphClass: 2
Flags: W
AnchorPoint: "Anchor-18" 0 0 basechar 0
AnchorPoint: "Anchor-17" 0 0 basechar 0
AnchorPoint: "Anchor-16" 308 681 basechar 0
AnchorPoint: "Anchor-15" 0 0 basechar 0
AnchorPoint: "Anchor-14" 223 0 basechar 0
LayerCount: 2
Fore
SplineSet
536 659 m 1,0,-1
 326 659 l 1,1,-1
 234 0 l 1,2,-1
 211 0 l 1,3,-1
 304 659 l 1,4,-1
 190 659 l 2,5,6
 140 659 140 659 115 634.5 c 128,-1,7
 90 610 90 610 90 569 c 0,8,9
 90 550 90 550 94 537 c 128,-1,10
 98 524 98 524 106 507 c 1,11,-1
 87 498 l 1,12,13
 77 517 77 517 72.5 532 c 128,-1,14
 68 547 68 547 68 569 c 0,15,16
 68 619 68 619 100.5 650 c 128,-1,17
 133 681 133 681 191 681 c 2,18,-1
 543 681 l 1,19,-1
 536 659 l 1,0,-1
EndSplineSet
Substitution2: "'c2sc' Capitals to Small Capitals lookup 27 subtable" uni01AD.sc
Substitution2: "'aalt' Access All Alternates lookup 0 subtable" uni01AD.sc
Position2: "'cpsp' Capital Spacing lookup 0 subtable" dx=5 dy=0 dh=10 dv=0
EndChar

StartChar: uni0184
Encoding: 388 388 257
Width: 551
GlyphClass: 2
Flags: W
AnchorPoint: "Anchor-18" 0 0 basechar 0
AnchorPoint: "Anchor-17" 0 0 basechar 0
AnchorPoint: "Anchor-16" 335 681 basechar 0
AnchorPoint: "Anchor-15" 0 0 basechar 0
AnchorPoint: "Anchor-14" 239 0 basechar 0
LayerCount: 2
Fore
SplineSet
445.5 366 m 128,-1,1
 497 324 497 324 497 240 c 0,2,3
 497 180 497 180 471.5 125.5 c 128,-1,4
 446 71 446 71 389 35.5 c 128,-1,5
 332 0 332 0 241 0 c 2,6,-1
 86 0 l 1,7,-1
 169 587 l 1,8,-1
 140 609 l 1,9,10
 171 636 171 636 186 681 c 1,11,-1
 205 681 l 1,12,-1
 167 408 l 1,13,-1
 296 408 l 2,14,0
 394 408 394 408 445.5 366 c 128,-1,1
381.5 55.5 m 128,-1,16
 432 90 432 90 453 139.5 c 128,-1,17
 474 189 474 189 474 239 c 0,18,19
 474 387 474 387 296 387 c 2,20,-1
 164 387 l 1,21,-1
 112 21 l 1,22,-1
 249 21 l 2,23,15
 331 21 331 21 381.5 55.5 c 128,-1,16
EndSplineSet
Substitution2: "'c2sc' Capitals to Small Capitals lookup 27 subtable" uni0185.sc
Substitution2: "'aalt' Access All Alternates lookup 0 subtable" uni0185.sc
Position2: "'cpsp' Capital Spacing lookup 0 subtable" dx=5 dy=0 dh=10 dv=0
EndChar

StartChar: uni01A7
Encoding: 423 423 258
Width: 529
GlyphClass: 2
Flags: W
AnchorPoint: "Anchor-18" 0 0 basechar 0
AnchorPoint: "Anchor-17" 0 0 basechar 0
AnchorPoint: "Anchor-16" 324 681 basechar 0
AnchorPoint: "Anchor-15" 0 0 basechar 0
AnchorPoint: "Anchor-14" 228 0 basechar 0
LayerCount: 2
Fore
SplineSet
455 654 m 128,-1,1
 496 617 496 617 496 556 c 0,2,3
 496 501 496 501 472 464.5 c 128,-1,4
 448 428 448 428 402.5 404 c 128,-1,5
 357 380 357 380 284 358 c 0,6,7
 175 325 175 325 126.5 279 c 128,-1,8
 78 233 78 233 78 150 c 0,9,10
 78 85 78 85 120 48.5 c 128,-1,11
 162 12 162 12 232 12 c 0,12,13
 294 12 294 12 341.5 31.5 c 128,-1,14
 389 51 389 51 435 87 c 1,15,-1
 448 71 l 1,16,17
 400 31 400 31 348 10.5 c 128,-1,18
 296 -10 296 -10 231 -10 c 0,19,20
 153 -10 153 -10 104 33.5 c 128,-1,21
 55 77 55 77 55 150 c 0,22,23
 55 240 55 240 108.5 292 c 128,-1,24
 162 344 162 344 277 379 c 0,25,26
 347 399 347 399 388.5 420.5 c 128,-1,27
 430 442 430 442 451.5 474 c 128,-1,28
 473 506 473 506 473 556 c 0,29,30
 473 609 473 609 438.5 639.5 c 128,-1,31
 404 670 404 670 340 670 c 0,32,33
 285 670 285 670 243 654.5 c 128,-1,34
 201 639 201 639 153 606 c 1,35,-1
 140 622 l 1,36,37
 189 657 189 657 234.5 674 c 128,-1,38
 280 691 280 691 340 691 c 0,39,0
 414 691 414 691 455 654 c 128,-1,1
EndSplineSet
Substitution2: "'c2sc' Capitals to Small Capitals lookup 27 subtable" uni01A8.sc
Substitution2: "'aalt' Access All Alternates lookup 0 subtable" uni01A8.sc
Position2: "'cpsp' Capital Spacing lookup 0 subtable" dx=5 dy=0 dh=10 dv=0
EndChar

StartChar: uni01AE
Encoding: 430 430 259
Width: 476
GlyphClass: 2
Flags: W
AnchorPoint: "Anchor-18" 250 346 basechar 0
AnchorPoint: "Anchor-17" 0 0 basechar 0
AnchorPoint: "Anchor-16" 297 681 basechar 0
AnchorPoint: "Anchor-15" 0 0 basechar 0
AnchorPoint: "Anchor-14" 201 0 basechar 0
LayerCount: 2
Fore
SplineSet
305 659 m 1,0,-1
 212 0 l 1,1,-1
 213 0 l 1,2,-1
 201 -86 l 2,3,4
 200 -94 200 -94 200 -108 c 0,5,6
 200 -176 200 -176 261 -176 c 0,7,8
 305 -176 305 -176 343 -151 c 1,9,-1
 353 -168 l 1,10,11
 312 -197 312 -197 261 -197 c 0,12,13
 222 -197 222 -197 199.5 -175 c 128,-1,14
 177 -153 177 -153 177 -111 c 0,15,16
 177 -103 177 -103 179 -85 c 2,17,-1
 190 0 l 1,18,-1
 283 659 l 1,19,-1
 73 659 l 1,20,-1
 75 681 l 1,21,-1
 522 681 l 1,22,-1
 515 659 l 1,23,-1
 305 659 l 1,0,-1
EndSplineSet
Substitution2: "'c2sc' Capitals to Small Capitals lookup 27 subtable" uni0288.sc
Substitution2: "'aalt' Access All Alternates lookup 0 subtable" uni0288.sc
Position2: "'cpsp' Capital Spacing lookup 0 subtable" dx=5 dy=0 dh=10 dv=0
EndChar

StartChar: U
Encoding: 85 85 260
Width: 641
GlyphClass: 2
Flags: W
AnchorPoint: "Anchor-18" 0 0 basechar 0
AnchorPoint: "Anchor-17" 597 681 basechar 0
AnchorPoint: "Anchor-16" 380 681 basechar 0
AnchorPoint: "Anchor-15" 368 0 basechar 0
AnchorPoint: "Anchor-14" 285 0 basechar 0
LayerCount: 2
Fore
SplineSet
521 207 m 2,0,1
 507 107 507 107 448 48.5 c 128,-1,2
 389 -10 389 -10 285 -10 c 0,3,4
 192 -10 192 -10 147 35.5 c 128,-1,5
 102 81 102 81 102 160 c 0,6,7
 102 174 102 174 106 208 c 2,8,-1
 172 681 l 1,9,-1
 195 681 l 1,10,-1
 129 209 l 2,11,12
 126 185 126 185 126 163 c 0,13,14
 126 91 126 91 164.5 51.5 c 128,-1,15
 203 12 203 12 285 12 c 0,16,17
 380 12 380 12 433 65.5 c 128,-1,18
 486 119 486 119 498 210 c 2,19,-1
 564 681 l 1,20,-1
 587 681 l 1,21,-1
 521 207 l 2,0,1
EndSplineSet
Substitution2: "'c2sc' Capitals to Small Capitals lookup 27 subtable" u.sc
Substitution2: "'aalt' Access All Alternates lookup 0 subtable" u.sc
Position2: "'cpsp' Capital Spacing lookup 0 subtable" dx=5 dy=0 dh=10 dv=0
EndChar

StartChar: uni0244
Encoding: 580 580 262
Width: 661
GlyphClass: 2
Flags: W
AnchorPoint: "Anchor-18" 0 0 basechar 0
AnchorPoint: "Anchor-17" 610 681 basechar 0
AnchorPoint: "Anchor-16" 393 681 basechar 0
AnchorPoint: "Anchor-15" 381 0 basechar 0
AnchorPoint: "Anchor-14" 298 0 basechar 0
LayerCount: 2
Fore
SplineSet
636 520 m 1,0,-1
 578 520 l 1,1,-1
 534 207 l 2,2,3
 520 107 520 107 461 48.5 c 128,-1,4
 402 -10 402 -10 298 -10 c 0,5,6
 205 -10 205 -10 160 35.5 c 128,-1,7
 115 81 115 81 115 160 c 0,8,9
 115 174 115 174 119 208 c 2,10,-1
 163 520 l 1,11,-1
 102 520 l 1,12,-1
 105 538 l 1,13,-1
 165 538 l 1,14,-1
 185 681 l 1,15,-1
 208 681 l 1,16,-1
 188 538 l 1,17,-1
 557 538 l 1,18,-1
 577 681 l 1,19,-1
 600 681 l 1,20,-1
 580 538 l 1,21,-1
 639 538 l 1,22,-1
 636 520 l 1,0,-1
554 520 m 1,23,-1
 185 520 l 1,24,-1
 142 209 l 2,25,26
 139 185 139 185 139 163 c 0,27,28
 139 91 139 91 177.5 51.5 c 128,-1,29
 216 12 216 12 298 12 c 0,30,31
 393 12 393 12 446 65.5 c 128,-1,32
 499 119 499 119 511 210 c 2,33,-1
 554 520 l 1,23,-1
EndSplineSet
Substitution2: "'c2sc' Capitals to Small Capitals lookup 27 subtable" uni0289.sc
Substitution2: "'aalt' Access All Alternates lookup 0 subtable" uni0289.sc
Position2: "'cpsp' Capital Spacing lookup 0 subtable" dx=5 dy=0 dh=10 dv=0
EndChar

StartChar: Uhorn
Encoding: 431 431 275
Width: 641
GlyphClass: 2
Flags: W
AnchorPoint: "Anchor-18" 0 0 basechar 0
AnchorPoint: "Anchor-17" 649 681 basechar 0
AnchorPoint: "Anchor-16" 380 681 basechar 0
AnchorPoint: "Anchor-15" 368 0 basechar 0
AnchorPoint: "Anchor-14" 285 0 basechar 0
LayerCount: 2
Fore
SplineSet
645.5 640 m 128,-1,1
 624 616 624 616 577 609 c 1,2,-1
 521 207 l 2,3,4
 507 107 507 107 448 48.5 c 128,-1,5
 389 -10 389 -10 285 -10 c 0,6,7
 192 -10 192 -10 147 35.5 c 128,-1,8
 102 81 102 81 102 160 c 0,9,10
 102 174 102 174 106 208 c 2,11,-1
 172 681 l 1,12,-1
 195 681 l 1,13,-1
 129 209 l 2,14,15
 126 185 126 185 126 163 c 0,16,17
 126 91 126 91 164.5 51.5 c 128,-1,18
 203 12 203 12 285 12 c 0,19,20
 380 12 380 12 433 65.5 c 128,-1,21
 486 119 486 119 498 210 c 2,22,-1
 564 681 l 1,23,-1
 587 681 l 1,24,-1
 579 626 l 1,25,26
 617 633 617 633 632 653 c 128,-1,27
 647 673 647 673 647 708 c 0,28,29
 647 739 647 739 640 759 c 1,30,-1
 658 764 l 1,31,32
 667 733 667 733 667 708 c 0,33,0
 667 664 667 664 645.5 640 c 128,-1,1
EndSplineSet
Substitution2: "'c2sc' Capitals to Small Capitals lookup 27 subtable" uhorn.sc
Substitution2: "'aalt' Access All Alternates lookup 0 subtable" uhorn.sc
Position2: "'cpsp' Capital Spacing lookup 0 subtable" dx=5 dy=0 dh=10 dv=0
EndChar

StartChar: uni1EE8
Encoding: 7912 7912 276
Width: 641
GlyphClass: 2
Flags: W
AnchorPoint: "Anchor-18" 0 0 basechar 0
AnchorPoint: "Anchor-17" 649 681 basechar 0
AnchorPoint: "Anchor-16" 400 861 basechar 0
AnchorPoint: "Anchor-15" 368 0 basechar 0
AnchorPoint: "Anchor-14" 285 0 basechar 0
LayerCount: 2
Fore
SplineSet
485 836 m 1,0,-1
 296 764 l 1,1,-1
 290 779 l 1,2,-1
 476 861 l 1,3,-1
 485 836 l 1,0,-1
645.5 640 m 128,-1,5
 624 616 624 616 577 609 c 1,6,-1
 521 207 l 2,7,8
 507 107 507 107 448 48.5 c 128,-1,9
 389 -10 389 -10 285 -10 c 0,10,11
 192 -10 192 -10 147 35.5 c 128,-1,12
 102 81 102 81 102 160 c 0,13,14
 102 174 102 174 106 208 c 2,15,-1
 172 681 l 1,16,-1
 195 681 l 1,17,-1
 129 209 l 2,18,19
 126 185 126 185 126 163 c 0,20,21
 126 91 126 91 164.5 51.5 c 128,-1,22
 203 12 203 12 285 12 c 0,23,24
 380 12 380 12 433 65.5 c 128,-1,25
 486 119 486 119 498 210 c 2,26,-1
 564 681 l 1,27,-1
 587 681 l 1,28,-1
 579 626 l 1,29,30
 617 633 617 633 632 653 c 128,-1,31
 647 673 647 673 647 708 c 0,32,33
 647 739 647 739 640 759 c 1,34,-1
 658 764 l 1,35,36
 667 733 667 733 667 708 c 0,37,4
 667 664 667 664 645.5 640 c 128,-1,5
EndSplineSet
Substitution2: "'c2sc' Capitals to Small Capitals lookup 27 subtable" uni1EE9.sc
Substitution2: "'aalt' Access All Alternates lookup 0 subtable" uni1EE9.sc
Position2: "'cpsp' Capital Spacing lookup 0 subtable" dx=5 dy=0 dh=10 dv=0
EndChar

StartChar: uni1EF0
Encoding: 7920 7920 277
Width: 641
GlyphClass: 2
Flags: W
AnchorPoint: "Anchor-18" 0 0 basechar 0
AnchorPoint: "Anchor-17" 649 681 basechar 0
AnchorPoint: "Anchor-16" 380 681 basechar 0
AnchorPoint: "Anchor-15" 368 0 basechar 0
AnchorPoint: "Anchor-14" 269 -138 basechar 0
LayerCount: 2
Fore
SplineSet
645.5 640 m 128,-1,1
 624 616 624 616 577 609 c 1,2,-1
 521 207 l 2,3,4
 507 107 507 107 448 48.5 c 128,-1,5
 389 -10 389 -10 285 -10 c 0,6,7
 192 -10 192 -10 147 35.5 c 128,-1,8
 102 81 102 81 102 160 c 0,9,10
 102 174 102 174 106 208 c 2,11,-1
 172 681 l 1,12,-1
 195 681 l 1,13,-1
 129 209 l 2,14,15
 126 185 126 185 126 163 c 0,16,17
 126 91 126 91 164.5 51.5 c 128,-1,18
 203 12 203 12 285 12 c 0,19,20
 380 12 380 12 433 65.5 c 128,-1,21
 486 119 486 119 498 210 c 2,22,-1
 564 681 l 1,23,-1
 587 681 l 1,24,-1
 579 626 l 1,25,26
 617 633 617 633 632 653 c 128,-1,27
 647 673 647 673 647 708 c 0,28,29
 647 739 647 739 640 759 c 1,30,-1
 658 764 l 1,31,32
 667 733 667 733 667 708 c 0,33,0
 667 664 667 664 645.5 640 c 128,-1,1
284 -103.5 m 128,-1,35
 289 -108 289 -108 289 -116 c 0,36,37
 289 -125 289 -125 283 -131.5 c 128,-1,38
 277 -138 277 -138 268 -138 c 256,39,40
 259 -138 259 -138 254 -133 c 128,-1,41
 249 -128 249 -128 249 -120 c 256,42,43
 249 -112 249 -112 255.5 -105.5 c 128,-1,44
 262 -99 262 -99 271 -99 c 0,45,34
 279 -99 279 -99 284 -103.5 c 128,-1,35
EndSplineSet
Substitution2: "'c2sc' Capitals to Small Capitals lookup 27 subtable" uni1EF1.sc
Substitution2: "'aalt' Access All Alternates lookup 0 subtable" uni1EF1.sc
Position2: "'cpsp' Capital Spacing lookup 0 subtable" dx=5 dy=0 dh=10 dv=0
EndChar

StartChar: uni1EEA
Encoding: 7914 7914 278
Width: 641
GlyphClass: 2
Flags: W
AnchorPoint: "Anchor-18" 0 0 basechar 0
AnchorPoint: "Anchor-17" 649 681 basechar 0
AnchorPoint: "Anchor-16" 401 861 basechar 0
AnchorPoint: "Anchor-15" 368 0 basechar 0
AnchorPoint: "Anchor-14" 285 0 basechar 0
LayerCount: 2
Fore
SplineSet
487 779 m 1,0,-1
 479 764 l 1,1,-1
 312 836 l 1,2,-1
 324 860 l 1,3,-1
 487 779 l 1,0,-1
645.5 640 m 128,-1,5
 624 616 624 616 577 609 c 1,6,-1
 521 207 l 2,7,8
 507 107 507 107 448 48.5 c 128,-1,9
 389 -10 389 -10 285 -10 c 0,10,11
 192 -10 192 -10 147 35.5 c 128,-1,12
 102 81 102 81 102 160 c 0,13,14
 102 174 102 174 106 208 c 2,15,-1
 172 681 l 1,16,-1
 195 681 l 1,17,-1
 129 209 l 2,18,19
 126 185 126 185 126 163 c 0,20,21
 126 91 126 91 164.5 51.5 c 128,-1,22
 203 12 203 12 285 12 c 0,23,24
 380 12 380 12 433 65.5 c 128,-1,25
 486 119 486 119 498 210 c 2,26,-1
 564 681 l 1,27,-1
 587 681 l 1,28,-1
 579 626 l 1,29,30
 617 633 617 633 632 653 c 128,-1,31
 647 673 647 673 647 708 c 0,32,33
 647 739 647 739 640 759 c 1,34,-1
 658 764 l 1,35,36
 667 733 667 733 667 708 c 0,37,4
 667 664 667 664 645.5 640 c 128,-1,5
EndSplineSet
Substitution2: "'c2sc' Capitals to Small Capitals lookup 27 subtable" uni1EEB.sc
Substitution2: "'aalt' Access All Alternates lookup 0 subtable" uni1EEB.sc
Position2: "'cpsp' Capital Spacing lookup 0 subtable" dx=5 dy=0 dh=10 dv=0
EndChar

StartChar: uni1EEC
Encoding: 7916 7916 279
Width: 641
GlyphClass: 2
Flags: W
AnchorPoint: "Anchor-18" 0 0 basechar 0
AnchorPoint: "Anchor-17" 649 681 basechar 0
AnchorPoint: "Anchor-16" 422 957 basechar 0
AnchorPoint: "Anchor-15" 368 0 basechar 0
AnchorPoint: "Anchor-14" 285 0 basechar 0
LayerCount: 2
Fore
SplineSet
391 933.5 m 128,-1,1
 379 930 379 930 361 922 c 1,2,-1
 353 939 l 1,3,4
 386 957 386 957 421 957 c 0,5,6
 453 957 453 957 471 941 c 128,-1,7
 489 925 489 925 489 896 c 0,8,9
 489 866 489 866 468 847.5 c 128,-1,10
 447 829 447 829 410 824 c 1,11,-1
 405 782 l 1,12,-1
 383 782 l 1,13,-1
 390 839 l 1,14,15
 424 841 424 841 445 854.5 c 128,-1,16
 466 868 466 868 466 896 c 0,17,18
 466 937 466 937 421 937 c 0,19,0
 403 937 403 937 391 933.5 c 128,-1,1
645.5 640 m 128,-1,21
 624 616 624 616 577 609 c 1,22,-1
 521 207 l 2,23,24
 507 107 507 107 448 48.5 c 128,-1,25
 389 -10 389 -10 285 -10 c 0,26,27
 192 -10 192 -10 147 35.5 c 128,-1,28
 102 81 102 81 102 160 c 0,29,30
 102 174 102 174 106 208 c 2,31,-1
 172 681 l 1,32,-1
 195 681 l 1,33,-1
 129 209 l 2,34,35
 126 185 126 185 126 163 c 0,36,37
 126 91 126 91 164.5 51.5 c 128,-1,38
 203 12 203 12 285 12 c 0,39,40
 380 12 380 12 433 65.5 c 128,-1,41
 486 119 486 119 498 210 c 2,42,-1
 564 681 l 1,43,-1
 587 681 l 1,44,-1
 579 626 l 1,45,46
 617 633 617 633 632 653 c 128,-1,47
 647 673 647 673 647 708 c 0,48,49
 647 739 647 739 640 759 c 1,50,-1
 658 764 l 1,51,52
 667 733 667 733 667 708 c 0,53,20
 667 664 667 664 645.5 640 c 128,-1,21
EndSplineSet
Substitution2: "'c2sc' Capitals to Small Capitals lookup 27 subtable" uni1EED.sc
Substitution2: "'aalt' Access All Alternates lookup 0 subtable" uni1EED.sc
Position2: "'cpsp' Capital Spacing lookup 0 subtable" dx=5 dy=0 dh=10 dv=0
EndChar

StartChar: uni1EEE
Encoding: 7918 7918 280
Width: 641
GlyphClass: 2
Flags: W
AnchorPoint: "Anchor-18" 0 0 basechar 0
AnchorPoint: "Anchor-17" 649 681 basechar 0
AnchorPoint: "Anchor-16" 404 868 basechar 0
AnchorPoint: "Anchor-15" 368 0 basechar 0
AnchorPoint: "Anchor-14" 285 0 basechar 0
LayerCount: 2
Fore
SplineSet
313.5 839.5 m 128,-1,1
 301 832 301 832 280 811 c 1,2,-1
 267 821 l 1,3,4
 287 844 287 844 306 855.5 c 128,-1,5
 325 867 325 867 345 867 c 0,6,7
 359 867 359 867 370.5 862 c 128,-1,8
 382 857 382 857 402 846 c 0,9,10
 418 835 418 835 431 829.5 c 128,-1,11
 444 824 444 824 458 824 c 0,12,13
 474 824 474 824 489 833.5 c 128,-1,14
 504 843 504 843 522 865 c 1,15,-1
 536 856 l 1,16,17
 516 828 516 828 497.5 816 c 128,-1,18
 479 804 479 804 458 804 c 0,19,20
 442 804 442 804 429 809.5 c 128,-1,21
 416 815 416 815 395 827 c 0,22,23
 379 837 379 837 368 842 c 128,-1,24
 357 847 357 847 345 847 c 0,25,0
 326 847 326 847 313.5 839.5 c 128,-1,1
645.5 640 m 128,-1,27
 624 616 624 616 577 609 c 1,28,-1
 521 207 l 2,29,30
 507 107 507 107 448 48.5 c 128,-1,31
 389 -10 389 -10 285 -10 c 0,32,33
 192 -10 192 -10 147 35.5 c 128,-1,34
 102 81 102 81 102 160 c 0,35,36
 102 174 102 174 106 208 c 2,37,-1
 172 681 l 1,38,-1
 195 681 l 1,39,-1
 129 209 l 2,40,41
 126 185 126 185 126 163 c 0,42,43
 126 91 126 91 164.5 51.5 c 128,-1,44
 203 12 203 12 285 12 c 0,45,46
 380 12 380 12 433 65.5 c 128,-1,47
 486 119 486 119 498 210 c 2,48,-1
 564 681 l 1,49,-1
 587 681 l 1,50,-1
 579 626 l 1,51,52
 617 633 617 633 632 653 c 128,-1,53
 647 673 647 673 647 708 c 0,54,55
 647 739 647 739 640 759 c 1,56,-1
 658 764 l 1,57,58
 667 733 667 733 667 708 c 0,59,26
 667 664 667 664 645.5 640 c 128,-1,27
EndSplineSet
Substitution2: "'c2sc' Capitals to Small Capitals lookup 27 subtable" uni1EEF.sc
Substitution2: "'aalt' Access All Alternates lookup 0 subtable" uni1EEF.sc
Position2: "'cpsp' Capital Spacing lookup 0 subtable" dx=5 dy=0 dh=10 dv=0
EndChar

StartChar: Uogonek
Encoding: 370 370 284
Width: 641
GlyphClass: 2
Flags: W
AnchorPoint: "Anchor-18" 0 0 basechar 0
AnchorPoint: "Anchor-17" 597 681 basechar 0
AnchorPoint: "Anchor-16" 380 681 basechar 0
AnchorPoint: "Anchor-15" 368 0 basechar 0
AnchorPoint: "Anchor-14" 285 0 basechar 0
LayerCount: 2
Fore
SplineSet
587 681 m 1,0,-1
 521 207 l 2,1,2
 509 125 509 125 467 70 c 128,-1,3
 425 15 425 15 352 -2 c 1,4,5
 293 -29 293 -29 263 -55.5 c 128,-1,6
 233 -82 233 -82 233 -121 c 0,7,8
 233 -149 233 -149 252 -165 c 128,-1,9
 271 -181 271 -181 305 -181 c 0,10,11
 329 -181 329 -181 358 -174 c 1,12,-1
 356 -196 l 1,13,14
 327 -203 327 -203 302 -203 c 0,15,16
 256 -203 256 -203 232.5 -180.5 c 128,-1,17
 209 -158 209 -158 209 -121 c 0,18,19
 209 -86 209 -86 233.5 -59 c 128,-1,20
 258 -32 258 -32 305 -9 c 1,21,22
 299 -10 299 -10 285 -10 c 0,23,24
 192 -10 192 -10 147 35.5 c 128,-1,25
 102 81 102 81 102 160 c 0,26,27
 102 174 102 174 106 208 c 2,28,-1
 172 681 l 1,29,-1
 195 681 l 1,30,-1
 129 209 l 2,31,32
 126 185 126 185 126 163 c 0,33,34
 126 91 126 91 164.5 51.5 c 128,-1,35
 203 12 203 12 285 12 c 0,36,37
 380 12 380 12 433 65.5 c 128,-1,38
 486 119 486 119 498 210 c 2,39,-1
 564 681 l 1,40,-1
 587 681 l 1,0,-1
EndSplineSet
Substitution2: "'c2sc' Capitals to Small Capitals lookup 27 subtable" uogonek.sc
Substitution2: "'aalt' Access All Alternates lookup 0 subtable" uogonek.sc
Position2: "'cpsp' Capital Spacing lookup 0 subtable" dx=5 dy=0 dh=10 dv=0
EndChar

StartChar: uni01B1
Encoding: 433 433 285
Width: 690
GlyphClass: 2
Flags: W
AnchorPoint: "Anchor-18" 0 0 basechar 0
AnchorPoint: "Anchor-17" 0 0 basechar 0
AnchorPoint: "Anchor-16" 404 681 basechar 0
AnchorPoint: "Anchor-15" 0 0 basechar 0
AnchorPoint: "Anchor-14" 308 0 basechar 0
LayerCount: 2
Fore
SplineSet
143.5 59.5 m 128,-1,1
 83 129 83 129 83 251 c 0,2,3
 83 382 83 382 136.5 491 c 128,-1,4
 190 600 190 600 287 661 c 1,5,-1
 160 661 l 1,6,-1
 163 681 l 1,7,-1
 324 681 l 1,8,-1
 322 661 l 1,9,10
 217 601 217 601 161.5 490 c 128,-1,11
 106 379 106 379 106 249 c 0,12,13
 106 136 106 136 160 73.5 c 128,-1,14
 214 11 214 11 310 11 c 0,15,16
 402 11 402 11 468.5 65.5 c 128,-1,17
 535 120 535 120 569.5 211 c 128,-1,18
 604 302 604 302 604 408 c 0,19,20
 604 577 604 577 486 661 c 1,21,-1
 488 681 l 1,22,-1
 649 681 l 1,23,-1
 646 660 l 1,24,-1
 518 660 l 1,25,26
 628 575 628 575 628 410 c 0,27,28
 628 295 628 295 590 199.5 c 128,-1,29
 552 104 552 104 480 47 c 128,-1,30
 408 -10 408 -10 310 -10 c 0,31,0
 204 -10 204 -10 143.5 59.5 c 128,-1,1
EndSplineSet
Substitution2: "'c2sc' Capitals to Small Capitals lookup 27 subtable" uni01B1.sc
Substitution2: "'aalt' Access All Alternates lookup 0 subtable" uni01B1.sc
Position2: "'cpsp' Capital Spacing lookup 0 subtable" dx=5 dy=0 dh=10 dv=0
EndChar

StartChar: V
Encoding: 86 86 289
Width: 534
GlyphClass: 2
Flags: W
AnchorPoint: "Anchor-18" 0 0 basechar 0
AnchorPoint: "Anchor-17" 0 0 basechar 0
AnchorPoint: "Anchor-16" 326 681 basechar 0
AnchorPoint: "Anchor-15" 0 0 basechar 0
AnchorPoint: "Anchor-14" 231 0 basechar 0
LayerCount: 2
Fore
SplineSet
565 681 m 1,0,-1
 244 0 l 1,1,-1
 216 0 l 1,2,-1
 87 681 l 1,3,-1
 110 681 l 1,4,-1
 233 21 l 1,5,-1
 541 681 l 1,6,-1
 565 681 l 1,0,-1
EndSplineSet
Substitution2: "'c2sc' Capitals to Small Capitals lookup 27 subtable" v.sc
Substitution2: "'aalt' Access All Alternates lookup 0 subtable" v.sc
Position2: "'cpsp' Capital Spacing lookup 0 subtable" dx=5 dy=0 dh=10 dv=0
EndChar

StartChar: uni01B2
Encoding: 434 434 290
Width: 631
GlyphClass: 2
Flags: W
AnchorPoint: "Anchor-18" 0 0 basechar 0
AnchorPoint: "Anchor-17" 0 0 basechar 0
AnchorPoint: "Anchor-16" 355 681 basechar 0
AnchorPoint: "Anchor-15" 0 0 basechar 0
AnchorPoint: "Anchor-14" 259 0 basechar 0
LayerCount: 2
Fore
SplineSet
560.5 674 m 128,-1,1
 578 657 578 657 578 623 c 0,2,3
 578 617 578 617 576 601 c 2,4,-1
 532 287 l 2,5,6
 511 141 511 141 437 65.5 c 128,-1,7
 363 -10 363 -10 259 -10 c 0,8,9
 184 -10 184 -10 141.5 30.5 c 128,-1,10
 99 71 99 71 99 143 c 0,11,12
 99 161 99 161 102 180 c 2,13,-1
 172 681 l 1,14,-1
 195 681 l 1,15,-1
 125 181 l 2,16,17
 122 162 122 162 122 144 c 0,18,19
 122 80 122 80 158 46 c 128,-1,20
 194 12 194 12 259 12 c 0,21,22
 355 12 355 12 422.5 82.5 c 128,-1,23
 490 153 490 153 509 290 c 2,24,-1
 553 601 l 2,25,26
 555 617 555 617 555 623 c 0,27,28
 555 672 555 672 510 672 c 0,29,30
 486 672 486 672 462 661 c 1,31,-1
 454 677 l 1,32,33
 482 691 482 691 512 691 c 0,34,0
 543 691 543 691 560.5 674 c 128,-1,1
EndSplineSet
Substitution2: "'c2sc' Capitals to Small Capitals lookup 27 subtable" uni028B.sc
Substitution2: "'aalt' Access All Alternates lookup 0 subtable" uni028B.sc
Position2: "'cpsp' Capital Spacing lookup 0 subtable" dx=5 dy=0 dh=10 dv=0
EndChar

StartChar: W
Encoding: 87 87 292
Width: 790
GlyphClass: 2
Flags: W
AnchorPoint: "Anchor-18" 0 0 basechar 0
AnchorPoint: "Anchor-17" 0 0 basechar 0
AnchorPoint: "Anchor-16" 454 681 basechar 0
AnchorPoint: "Anchor-15" 0 0 basechar 0
AnchorPoint: "Anchor-14" 359 0 basechar 0
LayerCount: 2
Fore
SplineSet
811 681 m 1,0,-1
 556 0 l 1,1,-1
 530 0 l 1,2,-1
 451 659 l 1,3,-1
 187 0 l 1,4,-1
 160 0 l 1,5,-1
 97 681 l 1,6,-1
 120 681 l 1,7,-1
 178 26 l 1,8,-1
 440 681 l 1,9,-1
 468 681 l 1,10,-1
 546 24 l 1,11,-1
 788 681 l 1,12,-1
 811 681 l 1,0,-1
EndSplineSet
Substitution2: "'c2sc' Capitals to Small Capitals lookup 27 subtable" w.sc
Substitution2: "'aalt' Access All Alternates lookup 0 subtable" w.sc
Position2: "'cpsp' Capital Spacing lookup 0 subtable" dx=5 dy=0 dh=10 dv=0
EndChar

StartChar: uni2C72
Encoding: 11378 11378 297
Width: 825
GlyphClass: 2
Flags: W
AnchorPoint: "Anchor-18" 0 0 basechar 0
AnchorPoint: "Anchor-17" 0 0 basechar 0
AnchorPoint: "Anchor-16" 454 681 basechar 0
AnchorPoint: "Anchor-15" 0 0 basechar 0
AnchorPoint: "Anchor-14" 358 0 basechar 0
LayerCount: 2
Fore
SplineSet
187 0 m 1,0,-1
 451 659 l 1,1,-1
 530 0 l 1,2,-1
 556 0 l 1,3,-1
 782 611 l 2,4,5
 794 643 794 643 811.5 657.5 c 128,-1,6
 829 672 829 672 856 672 c 0,7,8
 877 672 877 672 893.5 663 c 128,-1,9
 910 654 910 654 927 637 c 1,10,-1
 940 651 l 1,11,12
 902 691 902 691 856 691 c 0,13,14
 823 691 823 691 800.5 674.5 c 128,-1,15
 778 658 778 658 763 619 c 2,16,-1
 546 24 l 1,17,-1
 468 681 l 1,18,-1
 440 681 l 1,19,-1
 178 26 l 1,20,-1
 120 681 l 1,21,-1
 97 681 l 1,22,-1
 160 0 l 1,23,-1
 187 0 l 1,0,-1
EndSplineSet
Substitution2: "'c2sc' Capitals to Small Capitals lookup 27 subtable" uni2C73.sc
Substitution2: "'aalt' Access All Alternates lookup 0 subtable" uni2C73.sc
Position2: "'cpsp' Capital Spacing lookup 0 subtable" dx=5 dy=0 dh=10 dv=0
EndChar

StartChar: uni01F7
Encoding: 503 503 298
Width: 558
GlyphClass: 2
Flags: W
AnchorPoint: "Anchor-18" 0 0 basechar 0
AnchorPoint: "Anchor-17" 0 0 basechar 0
AnchorPoint: "Anchor-16" 339 681 basechar 0
AnchorPoint: "Anchor-15" 0 0 basechar 0
AnchorPoint: "Anchor-14" 243 0 basechar 0
LayerCount: 2
Fore
SplineSet
497.5 651.5 m 128,-1,1
 539 612 539 612 539 543 c 0,2,3
 539 433 539 433 465.5 369.5 c 128,-1,4
 392 306 392 306 258 262 c 2,5,-1
 141 224 l 1,6,-1
 109 0 l 1,7,-1
 86 0 l 1,8,-1
 182 681 l 1,9,-1
 205 681 l 1,10,-1
 196 618 l 1,11,12
 236 651 236 651 282 671 c 128,-1,13
 328 691 328 691 386 691 c 0,14,0
 456 691 456 691 497.5 651.5 c 128,-1,1
449 383.5 m 128,-1,16
 515 442 515 442 515 543 c 0,17,18
 515 604 515 604 480.5 637 c 128,-1,19
 446 670 446 670 386 670 c 0,20,21
 327 670 327 670 280.5 649 c 128,-1,22
 234 628 234 628 193 593 c 1,23,-1
 144 245 l 1,24,-1
 258 283 l 2,25,15
 383 325 383 325 449 383.5 c 128,-1,16
EndSplineSet
Substitution2: "'c2sc' Capitals to Small Capitals lookup 27 subtable" uni01BF.sc
Substitution2: "'aalt' Access All Alternates lookup 0 subtable" uni01BF.sc
Position2: "'cpsp' Capital Spacing lookup 0 subtable" dx=5 dy=0 dh=10 dv=0
EndChar

StartChar: X
Encoding: 88 88 299
Width: 486
GlyphClass: 2
Flags: W
AnchorPoint: "Anchor-18" 0 0 basechar 0
AnchorPoint: "Anchor-17" 0 0 basechar 0
AnchorPoint: "Anchor-16" 301 681 basechar 0
AnchorPoint: "Anchor-15" 0 0 basechar 0
AnchorPoint: "Anchor-14" 205 0 basechar 0
LayerCount: 2
Fore
SplineSet
496 681 m 1,0,-1
 270 370 l 1,1,-1
 432 0 l 1,2,-1
 408 0 l 1,3,-1
 254 353 l 1,4,-1
 5 0 l 1,5,-1
 -20 0 l 1,6,-1
 241 370 l 1,7,-1
 100 681 l 1,8,-1
 125 681 l 1,9,-1
 257 386 l 1,10,-1
 471 681 l 1,11,-1
 496 681 l 1,0,-1
EndSplineSet
Substitution2: "'c2sc' Capitals to Small Capitals lookup 27 subtable" x.sc
Substitution2: "'aalt' Access All Alternates lookup 0 subtable" x.sc
Position2: "'cpsp' Capital Spacing lookup 0 subtable" dx=5 dy=0 dh=10 dv=0
EndChar

StartChar: Y
Encoding: 89 89 300
Width: 494
GlyphClass: 2
Flags: W
AnchorPoint: "Anchor-18" 0 0 basechar 0
AnchorPoint: "Anchor-17" 0 0 basechar 0
AnchorPoint: "Anchor-16" 303 681 basechar 0
AnchorPoint: "Anchor-15" 0 0 basechar 0
AnchorPoint: "Anchor-14" 212 0 basechar 0
LayerCount: 2
Fore
SplineSet
532 681 m 1,0,-1
 261 271 l 1,1,-1
 223 0 l 1,2,-1
 200 0 l 1,3,-1
 238 270 l 1,4,-1
 80 681 l 1,5,-1
 105 681 l 1,6,-1
 251 293 l 1,7,-1
 505 681 l 1,8,-1
 532 681 l 1,0,-1
EndSplineSet
Substitution2: "'c2sc' Capitals to Small Capitals lookup 27 subtable" y.sc
Substitution2: "'aalt' Access All Alternates lookup 0 subtable" y.sc
Position2: "'cpsp' Capital Spacing lookup 0 subtable" dx=5 dy=0 dh=10 dv=0
EndChar

StartChar: uni01B3
Encoding: 435 435 306
Width: 520
GlyphClass: 2
Flags: W
AnchorPoint: "Anchor-18" 0 0 basechar 0
AnchorPoint: "Anchor-17" 0 0 basechar 0
AnchorPoint: "Anchor-16" 319 681 basechar 0
AnchorPoint: "Anchor-15" 0 0 basechar 0
AnchorPoint: "Anchor-14" 212 0 basechar 0
LayerCount: 2
Fore
SplineSet
238 270 m 1,0,-1
 80 681 l 1,1,-1
 105 681 l 1,2,-1
 252 293 l 1,3,-1
 452 621 l 2,4,5
 474 659 474 659 497.5 675 c 128,-1,6
 521 691 521 691 554 691 c 0,7,8
 600 691 600 691 638 651 c 1,9,-1
 625 637 l 1,10,11
 590 672 590 672 554 672 c 0,12,13
 527 672 527 672 508.5 658.5 c 128,-1,14
 490 645 490 645 470 611 c 2,15,-1
 261 270 l 1,16,-1
 223 0 l 1,17,-1
 200 0 l 1,18,-1
 238 270 l 1,0,-1
EndSplineSet
Substitution2: "'c2sc' Capitals to Small Capitals lookup 27 subtable" uni01B4.sc
Substitution2: "'aalt' Access All Alternates lookup 0 subtable" uni01B4.sc
Position2: "'cpsp' Capital Spacing lookup 0 subtable" dx=5 dy=0 dh=10 dv=0
EndChar

StartChar: uni01A6
Encoding: 422 422 309
Width: 572
GlyphClass: 2
Flags: W
AnchorPoint: "Anchor-18" 0 0 basechar 0
AnchorPoint: "Anchor-17" 0 0 basechar 0
AnchorPoint: "Anchor-16" 346 681 basechar 0
AnchorPoint: "Anchor-15" 0 0 basechar 0
AnchorPoint: "Anchor-14" 0 0 basechar 0
LayerCount: 2
Fore
SplineSet
469 267.5 m 128,-1,1
 424 210 424 210 326 194 c 1,2,-1
 473 -133 l 1,3,-1
 448 -133 l 1,4,-1
 303 191 l 1,5,-1
 136 191 l 1,6,-1
 109 0 l 1,7,-1
 86 0 l 1,8,-1
 182 681 l 1,9,-1
 205 681 l 1,10,-1
 186 549 l 1,11,-1
 312 549 l 2,12,13
 416 549 416 549 465 511.5 c 128,-1,14
 514 474 514 474 514 400 c 0,15,0
 514 325 514 325 469 267.5 c 128,-1,1
283 212 m 2,16,17
 356 212 356 212 403 240 c 128,-1,18
 450 268 450 268 470.5 311 c 128,-1,19
 491 354 491 354 491 401 c 0,20,21
 491 464 491 464 449.5 495.5 c 128,-1,22
 408 527 408 527 315 527 c 2,23,-1
 183 527 l 1,24,-1
 139 212 l 1,25,-1
 283 212 l 2,16,17
EndSplineSet
Substitution2: "'c2sc' Capitals to Small Capitals lookup 27 subtable" uni0280.sc
Substitution2: "'aalt' Access All Alternates lookup 0 subtable" uni0280.sc
Position2: "'cpsp' Capital Spacing lookup 0 subtable" dx=5 dy=0 dh=10 dv=0
EndChar

StartChar: uni024E
Encoding: 590 590 310
Width: 498
GlyphClass: 2
Flags: W
AnchorPoint: "Anchor-18" 0 0 basechar 0
AnchorPoint: "Anchor-17" 0 0 basechar 0
AnchorPoint: "Anchor-16" 308 681 basechar 0
AnchorPoint: "Anchor-15" 0 0 basechar 0
AnchorPoint: "Anchor-14" 212 0 basechar 0
LayerCount: 2
Fore
SplineSet
534 681 m 1,0,-1
 470 584 l 1,1,-1
 522 584 l 1,2,-1
 519 567 l 1,3,-1
 459 567 l 1,4,-1
 264 271 l 1,5,-1
 225 0 l 1,6,-1
 203 0 l 1,7,-1
 240 270 l 1,8,-1
 127 567 l 1,9,-1
 65 567 l 1,10,-1
 68 584 l 1,11,-1
 120 584 l 1,12,-1
 83 681 l 1,13,-1
 108 681 l 1,14,-1
 144 584 l 1,15,-1
 444 584 l 1,16,-1
 508 681 l 1,17,-1
 534 681 l 1,0,-1
253 293 m 1,18,-1
 433 567 l 1,19,-1
 151 567 l 1,20,-1
 253 293 l 1,18,-1
EndSplineSet
Substitution2: "'c2sc' Capitals to Small Capitals lookup 27 subtable" uni024F.sc
Substitution2: "'aalt' Access All Alternates lookup 0 subtable" uni024F.sc
Position2: "'cpsp' Capital Spacing lookup 0 subtable" dx=5 dy=0 dh=10 dv=0
EndChar

StartChar: Z
Encoding: 90 90 312
Width: 509
GlyphClass: 2
Flags: W
AnchorPoint: "Anchor-18" 0 0 basechar 0
AnchorPoint: "Anchor-17" 0 0 basechar 0
AnchorPoint: "Anchor-16" 314 681 basechar 0
AnchorPoint: "Anchor-15" 0 0 basechar 0
AnchorPoint: "Anchor-14" 207 0 basechar 0
LayerCount: 2
Fore
SplineSet
5 0 m 1,0,-1
 8 21 l 1,1,-1
 487 660 l 1,2,-1
 135 660 l 1,3,-1
 138 681 l 1,4,-1
 518 681 l 1,5,-1
 516 662 l 1,6,-1
 36 22 l 1,7,-1
 412 22 l 1,8,-1
 406 0 l 1,9,-1
 5 0 l 1,0,-1
EndSplineSet
Substitution2: "'c2sc' Capitals to Small Capitals lookup 27 subtable" z.sc
Substitution2: "'aalt' Access All Alternates lookup 0 subtable" z.sc
Position2: "'cpsp' Capital Spacing lookup 0 subtable" dx=5 dy=0 dh=10 dv=0
EndChar

StartChar: uni0224
Encoding: 548 548 317
Width: 509
GlyphClass: 2
Flags: W
AnchorPoint: "Anchor-18" 0 0 basechar 0
AnchorPoint: "Anchor-17" 0 0 basechar 0
AnchorPoint: "Anchor-16" 314 681 basechar 0
AnchorPoint: "Anchor-15" 0 0 basechar 0
AnchorPoint: "Anchor-14" 0 0 basechar 0
LayerCount: 2
Fore
SplineSet
516 662 m 1,0,-1
 36 22 l 1,1,-1
 411 22 l 1,2,-1
 408 0 l 1,3,-1
 396 -87 l 2,4,5
 388 -141 388 -141 357.5 -169 c 128,-1,6
 327 -197 327 -197 283 -197 c 0,7,8
 236 -197 236 -197 199 -166 c 1,9,-1
 211 -151 l 1,10,11
 226 -163 226 -163 242.5 -169.5 c 128,-1,12
 259 -176 259 -176 283 -176 c 0,13,14
 317 -176 317 -176 341.5 -154 c 128,-1,15
 366 -132 366 -132 373 -84 c 2,16,-1
 385 0 l 1,17,-1
 5 0 l 1,18,-1
 8 21 l 1,19,-1
 487 660 l 1,20,-1
 135 660 l 1,21,-1
 138 681 l 1,22,-1
 518 681 l 1,23,-1
 516 662 l 1,0,-1
EndSplineSet
Substitution2: "'c2sc' Capitals to Small Capitals lookup 27 subtable" uni0225.sc
Substitution2: "'aalt' Access All Alternates lookup 0 subtable" uni0225.sc
Position2: "'cpsp' Capital Spacing lookup 0 subtable" dx=5 dy=0 dh=10 dv=0
EndChar

StartChar: uni01B5
Encoding: 437 437 318
Width: 509
GlyphClass: 2
Flags: W
AnchorPoint: "Anchor-18" 0 0 basechar 0
AnchorPoint: "Anchor-17" 0 0 basechar 0
AnchorPoint: "Anchor-16" 314 681 basechar 0
AnchorPoint: "Anchor-15" 0 0 basechar 0
AnchorPoint: "Anchor-14" 218 0 basechar 0
LayerCount: 2
Fore
SplineSet
518 681 m 1,0,-1
 516 662 l 1,1,-1
 284 353 l 1,2,-1
 396 353 l 1,3,-1
 393 332 l 1,4,-1
 269 332 l 1,5,-1
 36 22 l 1,6,-1
 412 22 l 1,7,-1
 406 0 l 1,8,-1
 5 0 l 1,9,-1
 8 21 l 1,10,-1
 241 332 l 1,11,-1
 125 332 l 1,12,-1
 128 353 l 1,13,-1
 257 353 l 1,14,-1
 487 660 l 1,15,-1
 135 660 l 1,16,-1
 138 681 l 1,17,-1
 518 681 l 1,0,-1
EndSplineSet
Substitution2: "'c2sc' Capitals to Small Capitals lookup 27 subtable" uni01B6.sc
Substitution2: "'aalt' Access All Alternates lookup 0 subtable" uni01B6.sc
Position2: "'cpsp' Capital Spacing lookup 0 subtable" dx=5 dy=0 dh=10 dv=0
EndChar

StartChar: Eng.ss01
Encoding: 65542 -1 324
Width: 651
GlyphClass: 2
Flags: W
AnchorPoint: "Anchor-18" 0 0 basechar 0
AnchorPoint: "Anchor-17" 0 0 basechar 0
AnchorPoint: "Anchor-16" 383 681 basechar 0
AnchorPoint: "Anchor-15" 0 0 basechar 0
AnchorPoint: "Anchor-14" 0 0 basechar 0
LayerCount: 2
Fore
SplineSet
534 653.5 m 128,-1,1
 572 616 572 616 572 544 c 0,2,3
 572 531 572 531 568 497 c 2,4,-1
 498 0 l 1,5,-1
 486 -87 l 2,6,7
 478 -141 478 -141 447.5 -169 c 128,-1,8
 417 -197 417 -197 373 -197 c 0,9,10
 345 -197 345 -197 325.5 -188.5 c 128,-1,11
 306 -180 306 -180 288 -166 c 1,12,-1
 301 -151 l 1,13,14
 316 -163 316 -163 332.5 -169.5 c 128,-1,15
 349 -176 349 -176 373 -176 c 0,16,17
 407 -176 407 -176 431.5 -154 c 128,-1,18
 456 -132 456 -132 463 -84 c 2,19,-1
 475 0 l 1,20,-1
 476 0 l 1,21,-1
 545 495 l 2,22,23
 548 521 548 521 548 541 c 0,24,25
 548 606 548 606 516.5 638 c 128,-1,26
 485 670 485 670 426 670 c 0,27,28
 356 670 356 670 297.5 635 c 128,-1,29
 239 600 239 600 184 538 c 1,30,-1
 109 0 l 1,31,-1
 86 0 l 1,32,-1
 182 681 l 1,33,-1
 202 681 l 1,34,-1
 188 568 l 1,35,36
 297 691 297 691 427 691 c 0,37,0
 496 691 496 691 534 653.5 c 128,-1,1
EndSplineSet
Position2: "'cpsp' Capital Spacing lookup 0 subtable" dx=5 dy=0 dh=10 dv=0
EndChar

StartChar: uni019D.ss01
Encoding: 65543 -1 325
Width: 651
GlyphClass: 2
Flags: W
AnchorPoint: "Anchor-18" 0 0 basechar 0
AnchorPoint: "Anchor-17" 0 0 basechar 0
AnchorPoint: "Anchor-16" 383 681 basechar 0
AnchorPoint: "Anchor-15" 0 0 basechar 0
AnchorPoint: "Anchor-14" 0 0 basechar 0
LayerCount: 2
Fore
SplineSet
533 653 m 128,-1,1
 571 615 571 615 571 542 c 0,2,3
 571 521 571 521 568 497 c 2,4,-1
 498 0 l 1,5,-1
 476 0 l 1,6,-1
 545 495 l 2,7,8
 548 519 548 519 548 540 c 0,9,10
 548 605 548 605 516 637.5 c 128,-1,11
 484 670 484 670 426 670 c 0,12,13
 356 670 356 670 297.5 635 c 128,-1,14
 239 600 239 600 184 538 c 1,15,-1
 109 0 l 1,16,-1
 97 -87 l 2,17,18
 89 -141 89 -141 58.5 -169 c 128,-1,19
 28 -197 28 -197 -16 -197 c 0,20,21
 -44 -197 -44 -197 -63.5 -188.5 c 128,-1,22
 -83 -180 -83 -180 -101 -166 c 1,23,-1
 -88 -151 l 1,24,25
 -73 -163 -73 -163 -56.5 -169.5 c 128,-1,26
 -40 -176 -40 -176 -16 -176 c 0,27,28
 18 -176 18 -176 42.5 -154 c 128,-1,29
 67 -132 67 -132 74 -84 c 2,30,-1
 86 0 l 1,31,-1
 182 681 l 1,32,-1
 202 681 l 1,33,-1
 188 570 l 1,34,35
 299 691 299 691 427 691 c 0,36,0
 495 691 495 691 533 653 c 128,-1,1
EndSplineSet
Position2: "'cpsp' Capital Spacing lookup 0 subtable" dx=5 dy=0 dh=10 dv=0
EndChar

StartChar: uni2C64.ss01
Encoding: 65544 -1 326
Width: 386
GlyphClass: 2
Flags: W
AnchorPoint: "Anchor-18" 0 0 basechar 0
AnchorPoint: "Anchor-17" 0 0 basechar 0
AnchorPoint: "Anchor-16" 252 681 basechar 0
AnchorPoint: "Anchor-15" 0 0 basechar 0
AnchorPoint: "Anchor-14" 0 0 basechar 0
LayerCount: 2
Fore
SplineSet
432 682 m 1,1,-1
 426 662 l 1,2,3
 401 669 401 669 373 669 c 0,4,5
 309 669 309 669 263.5 631 c 128,-1,6
 218 593 218 593 181 510 c 1,7,-1
 109 0 l 1,8,-1
 97 -86 l 2,9,10
 96 -94 96 -94 96 -108 c 0,11,12
 96 -176 96 -176 157 -176 c 0,13,14
 201 -176 201 -176 239 -151 c 1,15,-1
 249 -168 l 1,16,17
 208 -197 208 -197 157 -197 c 0,18,19
 118 -197 118 -197 95.5 -175 c 128,-1,20
 73 -153 73 -153 73 -111 c 0,21,22
 73 -103 73 -103 75 -85 c 2,23,-1
 86 0 l 1,24,-1
 182 681 l 1,25,-1
 202 681 l 1,26,-1
 184 554 l 1,27,28
 218 625 218 625 263 658 c 128,-1,29
 308 691 308 691 373 691 c 0,30,0
 405 691 405 691 432 682 c 1,1,-1
EndSplineSet
Position2: "'cpsp' Capital Spacing lookup 0 subtable" dx=5 dy=0 dh=10 dv=0
EndChar

StartChar: uniA78D.ss02
Encoding: 65546 -1 328
Width: 569
GlyphClass: 2
Flags: W
AnchorPoint: "Anchor-18" 0 0 basechar 0
AnchorPoint: "Anchor-17" 0 0 basechar 0
AnchorPoint: "Anchor-16" 314 681 basechar 0
AnchorPoint: "Anchor-15" 0 0 basechar 0
AnchorPoint: "Anchor-14" 248 0 basechar 0
LayerCount: 2
Fore
SplineSet
410 0 m 1,0,-1
 387 0 l 1,1,-1
 426 272 l 1,2,-1
 65 272 l 1,3,-1
 122 681 l 1,4,-1
 145 681 l 1,5,-1
 91 293 l 1,6,-1
 429 293 l 1,7,-1
 483 681 l 1,8,-1
 505 681 l 1,9,-1
 410 0 l 1,0,-1
EndSplineSet
Position2: "'cpsp' Capital Spacing lookup 0 subtable" dx=5 dy=0 dh=10 dv=0
EndChar

StartChar: uni0299
Encoding: 665 665 329
Width: 508
GlyphClass: 2
Flags: W
AnchorPoint: "Anchor-18" 0 0 basechar 0
AnchorPoint: "Anchor-17" 0 0 basechar 0
AnchorPoint: "Anchor-16" 291 519 basechar 0
AnchorPoint: "Anchor-15" 0 0 basechar 0
AnchorPoint: "Anchor-14" 218 0 basechar 0
LayerCount: 2
Fore
SplineSet
420.5 251 m 128,-1,1
 450 225 450 225 450 176 c 0,2,3
 450 91 450 91 388 45.5 c 128,-1,4
 326 0 326 0 228 0 c 2,5,-1
 82 0 l 1,6,-1
 154 514 l 1,7,8
 235 529 235 529 301 529 c 0,9,10
 378 529 378 529 416 498 c 128,-1,11
 454 467 454 467 454 414 c 0,12,13
 454 360 454 360 421.5 325 c 128,-1,14
 389 290 389 290 337 281 c 1,15,0
 391 277 391 277 420.5 251 c 128,-1,1
146 290 m 1,16,-1
 296 290 l 2,17,18
 358 290 358 290 394.5 325 c 128,-1,19
 431 360 431 360 431 415 c 0,20,21
 431 459 431 459 399.5 484 c 128,-1,22
 368 509 368 509 301 509 c 256,23,24
 234 509 234 509 175 496 c 1,25,-1
 146 290 l 1,16,-1
372.5 61 m 128,-1,27
 427 101 427 101 427 176 c 0,28,29
 427 270 427 270 302 270 c 2,30,-1
 143 270 l 1,31,-1
 107 21 l 1,32,-1
 229 21 l 2,33,26
 318 21 318 21 372.5 61 c 128,-1,27
EndSplineSet
EndChar

StartChar: uni0262
Encoding: 610 610 330
Width: 550
GlyphClass: 2
Flags: W
AnchorPoint: "Anchor-18" 0 0 basechar 0
AnchorPoint: "Anchor-17" 0 0 basechar 0
AnchorPoint: "Anchor-16" 332 519 basechar 0
AnchorPoint: "Anchor-15" 0 0 basechar 0
AnchorPoint: "Anchor-14" 258 0 basechar 0
LayerCount: 2
Fore
SplineSet
407 518.5 m 128,-1,1
 441 506 441 506 471 481 c 1,2,-1
 456 466 l 1,3,4
 402 511 402 511 330 511 c 0,5,6
 257 511 257 511 202.5 468 c 128,-1,7
 148 425 148 425 119.5 353.5 c 128,-1,8
 91 282 91 282 91 200 c 0,9,10
 91 105 91 105 136 59 c 128,-1,11
 181 13 181 13 261 13 c 0,12,13
 337 13 337 13 401 45 c 1,14,-1
 429 252 l 1,15,-1
 305 252 l 1,16,-1
 305 272 l 1,17,-1
 456 272 l 1,18,-1
 423 33 l 1,19,20
 346 -8 346 -8 261 -8 c 0,21,22
 171 -8 171 -8 120 45 c 128,-1,23
 69 98 69 98 69 203 c 0,24,25
 69 290 69 290 101.5 365 c 128,-1,26
 134 440 134 440 193 485.5 c 128,-1,27
 252 531 252 531 329 531 c 0,28,0
 373 531 373 531 407 518.5 c 128,-1,1
EndSplineSet
EndChar

StartChar: uni029B
Encoding: 667 667 331
Width: 549
GlyphClass: 2
Flags: W
AnchorPoint: "Anchor-18" 0 0 basechar 0
AnchorPoint: "Anchor-17" 0 0 basechar 0
AnchorPoint: "Anchor-16" 341 732 basechar 0
AnchorPoint: "Anchor-15" 0 0 basechar 0
AnchorPoint: "Anchor-14" 262 0 basechar 0
LayerCount: 2
Fore
SplineSet
629 728.5 m 128,-1,1
 649 720 649 720 666 706 c 1,2,-1
 654 692 l 1,3,4
 638 704 638 704 621 710.5 c 128,-1,5
 604 717 604 717 580 717 c 0,6,7
 545 717 545 717 520.5 694.5 c 128,-1,8
 496 672 496 672 490 624 c 2,9,-1
 471 481 l 1,10,-1
 458 468 l 1,11,12
 400 511 400 511 330 511 c 0,13,14
 257 511 257 511 202.5 468 c 128,-1,15
 148 425 148 425 119.5 353.5 c 128,-1,16
 91 282 91 282 91 200 c 0,17,18
 91 105 91 105 136 59 c 128,-1,19
 181 13 181 13 262 13 c 0,20,21
 337 13 337 13 401 45 c 1,22,-1
 429 252 l 1,23,-1
 305 252 l 1,24,-1
 305 272 l 1,25,-1
 456 272 l 1,26,-1
 423 33 l 1,27,28
 346 -8 346 -8 262 -8 c 0,29,30
 171 -8 171 -8 120 45 c 128,-1,31
 69 98 69 98 69 203 c 0,32,33
 69 290 69 290 101.5 365 c 128,-1,34
 134 440 134 440 193 485.5 c 128,-1,35
 252 531 252 531 329 531 c 0,36,37
 400 531 400 531 450 495 c 1,38,-1
 469 627 l 2,39,40
 476 681 476 681 506 709 c 128,-1,41
 536 737 536 737 580 737 c 0,42,0
 609 737 609 737 629 728.5 c 128,-1,1
EndSplineSet
EndChar

StartChar: uni026A
Encoding: 618 618 333
Width: 300
GlyphClass: 2
Flags: W
AnchorPoint: "Anchor-18" 0 0 basechar 0
AnchorPoint: "Anchor-17" 0 0 basechar 0
AnchorPoint: "Anchor-16" 187 519 basechar 0
AnchorPoint: "Anchor-15" 0 0 basechar 0
AnchorPoint: "Anchor-14" 113 0 basechar 0
LayerCount: 2
Fore
SplineSet
305 501 m 1,0,-1
 194 501 l 1,1,-1
 127 18 l 1,2,-1
 238 18 l 1,3,-1
 235 0 l 1,4,-1
 -8 0 l 1,5,-1
 -6 18 l 1,6,-1
 105 18 l 1,7,-1
 172 501 l 1,8,-1
 62 501 l 1,9,-1
 65 519 l 1,10,-1
 308 519 l 1,11,-1
 305 501 l 1,0,-1
EndSplineSet
EndChar

StartChar: uni029F
Encoding: 671 671 334
Width: 399
GlyphClass: 2
Flags: W
AnchorPoint: "Anchor-18" 0 0 basechar 0
AnchorPoint: "Anchor-17" 0 0 basechar 0
AnchorPoint: "Anchor-16" 166 519 basechar 0
AnchorPoint: "Anchor-15" 0 0 basechar 0
AnchorPoint: "Anchor-14" 214 0 basechar 0
LayerCount: 2
Fore
SplineSet
177 519 m 1,0,-1
 106 21 l 1,1,-1
 352 21 l 1,2,-1
 345 0 l 1,3,-1
 81 0 l 1,4,-1
 155 519 l 1,5,-1
 177 519 l 1,0,-1
EndSplineSet
EndChar

StartChar: uni0274
Encoding: 628 628 335
Width: 583
GlyphClass: 2
Flags: W
AnchorPoint: "Anchor-18" 0 0 basechar 0
AnchorPoint: "Anchor-17" 0 0 basechar 0
AnchorPoint: "Anchor-16" 329 519 basechar 0
AnchorPoint: "Anchor-15" 0 0 basechar 0
AnchorPoint: "Anchor-14" 255 0 basechar 0
LayerCount: 2
Fore
SplineSet
428 0 m 1,0,-1
 400 0 l 1,1,-1
 170 497 l 1,2,3
 164 431 164 431 150 335 c 2,4,-1
 102 0 l 1,5,-1
 81 0 l 1,6,-1
 155 519 l 1,7,-1
 183 519 l 1,8,-1
 413 22 l 1,9,-1
 417 56 l 1,10,-1
 432 179 l 1,11,-1
 481 519 l 1,12,-1
 502 519 l 1,13,-1
 428 0 l 1,0,-1
EndSplineSet
EndChar

StartChar: uni0276
Encoding: 630 630 336
Width: 715
GlyphClass: 2
Flags: W
AnchorPoint: "Anchor-18" 0 0 basechar 0
AnchorPoint: "Anchor-17" 0 0 basechar 0
AnchorPoint: "Anchor-16" 425 519 basechar 0
AnchorPoint: "Anchor-15" 0 0 basechar 0
AnchorPoint: "Anchor-14" 351 0 basechar 0
LayerCount: 2
Fore
SplineSet
690 499 m 1,0,-1
 418 499 l 1,1,2
 452 479 452 479 473 434 c 128,-1,3
 494 389 494 389 494 326 c 0,4,5
 494 298 494 298 493 285 c 1,6,-1
 625 285 l 1,7,-1
 622 265 l 1,8,-1
 491 265 l 1,9,10
 481 184 481 184 445 117.5 c 128,-1,11
 409 51 409 51 351 21 c 1,12,-1
 632 21 l 1,13,-1
 629 0 l 1,14,-1
 309 0 l 1,15,16
 277 -10 277 -10 243 -10 c 0,17,18
 161 -10 161 -10 115 44 c 128,-1,19
 69 98 69 98 69 196 c 0,20,21
 69 271 69 271 94 347.5 c 128,-1,22
 119 424 119 424 175 476.5 c 128,-1,23
 231 529 231 529 318 529 c 0,24,25
 356 529 356 529 383 519 c 1,26,-1
 696 519 l 1,27,-1
 690 499 l 1,0,-1
431.5 460.5 m 128,-1,29
 392 509 392 509 318 509 c 0,30,31
 238 509 238 509 187 458.5 c 128,-1,32
 136 408 136 408 113.5 336 c 128,-1,33
 91 264 91 264 91 195 c 0,34,35
 91 107 91 107 131 59 c 128,-1,36
 171 11 171 11 244 11 c 0,37,38
 324 11 324 11 375 60 c 128,-1,39
 426 109 426 109 448.5 181.5 c 128,-1,40
 471 254 471 254 471 327 c 0,41,28
 471 412 471 412 431.5 460.5 c 128,-1,29
EndSplineSet
EndChar

StartChar: uni0280
Encoding: 640 640 337
Width: 508
GlyphClass: 2
Flags: W
AnchorPoint: "Anchor-18" 0 0 basechar 0
AnchorPoint: "Anchor-17" 0 0 basechar 0
AnchorPoint: "Anchor-16" 291 519 basechar 0
AnchorPoint: "Anchor-15" 0 0 basechar 0
AnchorPoint: "Anchor-14" 238 0 basechar 0
LayerCount: 2
Fore
SplineSet
406.5 286.5 m 128,-1,1
 363 247 363 247 293 236 c 1,2,-1
 415 0 l 1,3,-1
 391 0 l 1,4,-1
 271 234 l 1,5,-1
 136 234 l 1,6,-1
 103 0 l 1,7,-1
 81 0 l 1,8,-1
 155 519 l 1,9,-1
 275 519 l 2,10,11
 450 519 450 519 450 395 c 0,12,0
 450 326 450 326 406.5 286.5 c 128,-1,1
250 254 m 2,13,14
 330 254 330 254 378.5 290.5 c 128,-1,15
 427 327 427 327 427 395 c 0,16,17
 427 447 427 447 390 473 c 128,-1,18
 353 499 353 499 271 499 c 2,19,-1
 174 499 l 1,20,-1
 139 254 l 1,21,-1
 250 254 l 2,13,14
EndSplineSet
Substitution2: "'smcp' Lowercase to Small Capitals lookup 28 subtable" uni0280.sc
Substitution2: "'aalt' Access All Alternates lookup 0 subtable" uni0280.sc
EndChar

StartChar: uni0281
Encoding: 641 641 338
Width: 508
GlyphClass: 2
Flags: W
LayerCount: 2
Fore
SplineSet
385 244.5 m 128,-1,1
 416 215 416 215 416 164 c 0,2,3
 416 81 416 81 358 40.5 c 128,-1,4
 300 0 300 0 200 0 c 2,5,-1
 81 0 l 1,6,-1
 155 519 l 1,7,-1
 177 519 l 1,8,-1
 144 285 l 1,9,-1
 279 285 l 1,10,-1
 463 519 l 1,11,-1
 489 519 l 1,12,-1
 301 283 l 1,13,0
 354 274 354 274 385 244.5 c 128,-1,1
394 165 m 0,15,16
 394 215 394 215 358.5 240 c 128,-1,17
 323 265 323 265 261 265 c 2,18,-1
 141 265 l 1,19,-1
 106 21 l 1,20,-1
 199 21 l 2,21,14
 394 21 394 21 394 165 c 0,15,16
EndSplineSet
EndChar

StartChar: uni028F
Encoding: 655 655 339
Width: 418
GlyphClass: 2
Flags: W
AnchorPoint: "Anchor-18" 0 0 basechar 0
AnchorPoint: "Anchor-17" 0 0 basechar 0
AnchorPoint: "Anchor-16" 246 519 basechar 0
AnchorPoint: "Anchor-15" 0 0 basechar 0
AnchorPoint: "Anchor-14" 173 0 basechar 0
LayerCount: 2
Fore
SplineSet
432 519 m 1,0,-1
 215 212 l 1,1,-1
 185 0 l 1,2,-1
 163 0 l 1,3,-1
 193 211 l 1,4,-1
 60 519 l 1,5,-1
 82 519 l 1,6,-1
 205 231 l 1,7,-1
 406 519 l 1,8,-1
 432 519 l 1,0,-1
EndSplineSet
EndChar

StartChar: a
Encoding: 97 97 340
Width: 548
GlyphClass: 2
Flags: W
AnchorPoint: "Anchor-18" 0 0 basechar 0
AnchorPoint: "Anchor-17" 0 0 basechar 0
AnchorPoint: "Anchor-16" 337 519 basechar 0
AnchorPoint: "Anchor-15" 453 -10 basechar 0
AnchorPoint: "Anchor-14" 264 0 basechar 0
LayerCount: 2
Fore
SplineSet
406 518.5 m 128,-1,1
 440 508 440 508 473 488 c 1,2,-1
 419 112 l 2,3,4
 415 80 415 80 415 68 c 0,5,6
 415 45 415 45 423 30 c 128,-1,7
 431 15 431 15 451 7 c 1,8,-1
 444 -10 l 1,9,10
 419 0 419 0 407 18.5 c 128,-1,11
 395 37 395 37 395 68 c 0,12,13
 395 75 395 75 397 97 c 1,14,15
 366 47 366 47 322 18.5 c 128,-1,16
 278 -10 278 -10 228 -10 c 0,17,18
 153 -10 153 -10 110.5 43.5 c 128,-1,19
 68 97 68 97 68 190 c 0,20,21
 68 268 68 268 94.5 346 c 128,-1,22
 121 424 121 424 179.5 476.5 c 128,-1,23
 238 529 238 529 328 529 c 0,24,0
 372 529 372 529 406 518.5 c 128,-1,1
192.5 460 m 128,-1,26
 139 410 139 410 114.5 336.5 c 128,-1,27
 90 263 90 263 90 191 c 0,28,29
 90 106 90 106 126 58.5 c 128,-1,30
 162 11 162 11 228 11 c 0,31,32
 330 11 330 11 400 135 c 1,33,-1
 449 477 l 1,34,35
 396 510 396 510 328 510 c 0,36,25
 246 510 246 510 192.5 460 c 128,-1,26
EndSplineSet
Substitution2: "Single Substitution lookup 44 subtable" ordfeminine
Substitution2: "'smcp' Lowercase to Small Capitals lookup 28 subtable" a.sc
AlternateSubs2: "'aalt' Access All Alternates lookup 1 subtable" ordfeminine a.sc
EndChar

StartChar: uni1EAF
Encoding: 7855 7855 343
Width: 548
GlyphClass: 2
Flags: W
AnchorPoint: "Anchor-18" 0 0 basechar 0
AnchorPoint: "Anchor-17" 0 0 basechar 0
AnchorPoint: "Anchor-16" 358 675 basechar 0
AnchorPoint: "Anchor-15" 453 -10 basechar 0
AnchorPoint: "Anchor-14" 0 0 basechar 0
LayerCount: 2
Fore
SplineSet
449 816 m 1,0,-1
 465 797 l 1,1,-1
 347 687 l 1,2,-1
 336 699 l 1,3,-1
 449 816 l 1,0,-1
278 617.5 m 128,-1,5
 251 640 251 640 247 672 c 1,6,-1
 264 674 l 1,7,8
 269 648 269 648 291 632 c 128,-1,9
 313 616 313 616 347 616 c 0,10,11
 382 616 382 616 408 632 c 128,-1,12
 434 648 434 648 447 675 c 1,13,-1
 464 670 l 1,14,15
 452 638 452 638 420.5 616.5 c 128,-1,16
 389 595 389 595 347 595 c 256,17,4
 305 595 305 595 278 617.5 c 128,-1,5
406 518.5 m 128,-1,19
 440 508 440 508 473 488 c 1,20,-1
 419 112 l 2,21,22
 415 80 415 80 415 68 c 0,23,24
 415 45 415 45 423 30 c 128,-1,25
 431 15 431 15 451 7 c 1,26,-1
 444 -10 l 1,27,28
 419 0 419 0 407 18.5 c 128,-1,29
 395 37 395 37 395 68 c 0,30,31
 395 75 395 75 397 97 c 1,32,33
 366 47 366 47 322 18.5 c 128,-1,34
 278 -10 278 -10 228 -10 c 0,35,36
 153 -10 153 -10 110.5 43.5 c 128,-1,37
 68 97 68 97 68 190 c 0,38,39
 68 268 68 268 94.5 346 c 128,-1,40
 121 424 121 424 179.5 476.5 c 128,-1,41
 238 529 238 529 328 529 c 0,42,18
 372 529 372 529 406 518.5 c 128,-1,19
192.5 460 m 128,-1,44
 139 410 139 410 114.5 336.5 c 128,-1,45
 90 263 90 263 90 191 c 0,46,47
 90 106 90 106 126 58.5 c 128,-1,48
 162 11 162 11 228 11 c 0,49,50
 330 11 330 11 400 135 c 1,51,-1
 449 477 l 1,52,53
 396 510 396 510 328 510 c 0,54,43
 246 510 246 510 192.5 460 c 128,-1,44
EndSplineSet
Substitution2: "'smcp' Lowercase to Small Capitals lookup 28 subtable" uni1EAF.sc
Substitution2: "'aalt' Access All Alternates lookup 0 subtable" uni1EAF.sc
EndChar

StartChar: uni1EB1
Encoding: 7857 7857 345
Width: 548
GlyphClass: 2
Flags: W
AnchorPoint: "Anchor-18" 0 0 basechar 0
AnchorPoint: "Anchor-17" 0 0 basechar 0
AnchorPoint: "Anchor-16" 358 675 basechar 0
AnchorPoint: "Anchor-15" 453 -10 basechar 0
AnchorPoint: "Anchor-14" 0 0 basechar 0
LayerCount: 2
Fore
SplineSet
282 816 m 1,0,-1
 363 697 l 1,1,-1
 349 687 l 1,2,-1
 262 800 l 1,3,-1
 282 816 l 1,0,-1
278 617.5 m 128,-1,5
 251 640 251 640 247 672 c 1,6,-1
 264 674 l 1,7,8
 269 648 269 648 291 632 c 128,-1,9
 313 616 313 616 347 616 c 0,10,11
 382 616 382 616 408 632 c 128,-1,12
 434 648 434 648 447 675 c 1,13,-1
 464 670 l 1,14,15
 452 638 452 638 420.5 616.5 c 128,-1,16
 389 595 389 595 347 595 c 256,17,4
 305 595 305 595 278 617.5 c 128,-1,5
406 518.5 m 128,-1,19
 440 508 440 508 473 488 c 1,20,-1
 419 112 l 2,21,22
 415 80 415 80 415 68 c 0,23,24
 415 45 415 45 423 30 c 128,-1,25
 431 15 431 15 451 7 c 1,26,-1
 444 -10 l 1,27,28
 419 0 419 0 407 18.5 c 128,-1,29
 395 37 395 37 395 68 c 0,30,31
 395 75 395 75 397 97 c 1,32,33
 366 47 366 47 322 18.5 c 128,-1,34
 278 -10 278 -10 228 -10 c 0,35,36
 153 -10 153 -10 110.5 43.5 c 128,-1,37
 68 97 68 97 68 190 c 0,38,39
 68 268 68 268 94.5 346 c 128,-1,40
 121 424 121 424 179.5 476.5 c 128,-1,41
 238 529 238 529 328 529 c 0,42,18
 372 529 372 529 406 518.5 c 128,-1,19
192.5 460 m 128,-1,44
 139 410 139 410 114.5 336.5 c 128,-1,45
 90 263 90 263 90 191 c 0,46,47
 90 106 90 106 126 58.5 c 128,-1,48
 162 11 162 11 228 11 c 0,49,50
 330 11 330 11 400 135 c 1,51,-1
 449 477 l 1,52,53
 396 510 396 510 328 510 c 0,54,43
 246 510 246 510 192.5 460 c 128,-1,44
EndSplineSet
Substitution2: "'smcp' Lowercase to Small Capitals lookup 28 subtable" uni1EB1.sc
Substitution2: "'aalt' Access All Alternates lookup 0 subtable" uni1EB1.sc
EndChar

StartChar: uni1EB5
Encoding: 7861 7861 347
Width: 548
GlyphClass: 2
Flags: W
AnchorPoint: "Anchor-18" 0 0 basechar 0
AnchorPoint: "Anchor-17" 0 0 basechar 0
AnchorPoint: "Anchor-16" 370 785 basechar 0
AnchorPoint: "Anchor-15" 453 -10 basechar 0
AnchorPoint: "Anchor-14" 0 0 basechar 0
LayerCount: 2
Fore
SplineSet
395 726.5 m 128,-1,1
 382 732 382 732 361 744 c 0,2,3
 345 754 345 754 334 759 c 128,-1,4
 323 764 323 764 311 764 c 0,5,6
 292 764 292 764 279.5 756.5 c 128,-1,7
 267 749 267 749 246 728 c 1,8,-1
 233 738 l 1,9,10
 253 761 253 761 272 772.5 c 128,-1,11
 291 784 291 784 311 784 c 0,12,13
 325 784 325 784 336.5 779 c 128,-1,14
 348 774 348 774 368 763 c 0,15,16
 384 752 384 752 397 746.5 c 128,-1,17
 410 741 410 741 424 741 c 0,18,19
 440 741 440 741 455 750.5 c 128,-1,20
 470 760 470 760 488 782 c 1,21,-1
 502 773 l 1,22,23
 482 745 482 745 463.5 733 c 128,-1,24
 445 721 445 721 424 721 c 0,25,0
 408 721 408 721 395 726.5 c 128,-1,1
280 617.5 m 128,-1,27
 253 640 253 640 249 672 c 1,28,-1
 266 674 l 1,29,30
 271 648 271 648 293 632 c 128,-1,31
 315 616 315 616 349 616 c 0,32,33
 384 616 384 616 410 632 c 128,-1,34
 436 648 436 648 449 675 c 1,35,-1
 466 670 l 1,36,37
 454 638 454 638 422.5 616.5 c 128,-1,38
 391 595 391 595 349 595 c 256,39,26
 307 595 307 595 280 617.5 c 128,-1,27
406 518.5 m 128,-1,41
 440 508 440 508 473 488 c 1,42,-1
 419 112 l 2,43,44
 415 80 415 80 415 68 c 0,45,46
 415 45 415 45 423 30 c 128,-1,47
 431 15 431 15 451 7 c 1,48,-1
 444 -10 l 1,49,50
 419 0 419 0 407 18.5 c 128,-1,51
 395 37 395 37 395 68 c 0,52,53
 395 75 395 75 397 97 c 1,54,55
 366 47 366 47 322 18.5 c 128,-1,56
 278 -10 278 -10 228 -10 c 0,57,58
 153 -10 153 -10 110.5 43.5 c 128,-1,59
 68 97 68 97 68 190 c 0,60,61
 68 268 68 268 94.5 346 c 128,-1,62
 121 424 121 424 179.5 476.5 c 128,-1,63
 238 529 238 529 328 529 c 0,64,40
 372 529 372 529 406 518.5 c 128,-1,41
192.5 460 m 128,-1,66
 139 410 139 410 114.5 336.5 c 128,-1,67
 90 263 90 263 90 191 c 0,68,69
 90 106 90 106 126 58.5 c 128,-1,70
 162 11 162 11 228 11 c 0,71,72
 330 11 330 11 400 135 c 1,73,-1
 449 477 l 1,74,75
 396 510 396 510 328 510 c 0,76,65
 246 510 246 510 192.5 460 c 128,-1,66
EndSplineSet
Substitution2: "'smcp' Lowercase to Small Capitals lookup 28 subtable" uni1EB5.sc
Substitution2: "'aalt' Access All Alternates lookup 0 subtable" uni1EB5.sc
EndChar

StartChar: uni1EA5
Encoding: 7845 7845 350
Width: 548
GlyphClass: 2
Flags: W
AnchorPoint: "Anchor-18" 0 0 basechar 0
AnchorPoint: "Anchor-17" 416 541 basechar 0
AnchorPoint: "Anchor-16" 356 689 basechar 0
AnchorPoint: "Anchor-15" 453 -10 basechar 0
AnchorPoint: "Anchor-14" 0 0 basechar 0
LayerCount: 2
Fore
SplineSet
538 802 m 1,0,-1
 554 783 l 1,1,-1
 436 673 l 1,2,-1
 425 685 l 1,3,-1
 538 802 l 1,0,-1
228 586 m 1,4,-1
 218 600 l 1,5,-1
 350 689 l 1,6,-1
 362 689 l 1,7,-1
 469 599 l 1,8,-1
 457 586 l 1,9,-1
 355 665 l 1,10,-1
 228 586 l 1,4,-1
406 518.5 m 128,-1,12
 440 508 440 508 473 488 c 1,13,-1
 419 112 l 2,14,15
 415 80 415 80 415 68 c 0,16,17
 415 45 415 45 423 30 c 128,-1,18
 431 15 431 15 451 7 c 1,19,-1
 444 -10 l 1,20,21
 419 0 419 0 407 18.5 c 128,-1,22
 395 37 395 37 395 68 c 0,23,24
 395 75 395 75 397 97 c 1,25,26
 366 47 366 47 322 18.5 c 128,-1,27
 278 -10 278 -10 228 -10 c 0,28,29
 153 -10 153 -10 110.5 43.5 c 128,-1,30
 68 97 68 97 68 190 c 0,31,32
 68 268 68 268 94.5 346 c 128,-1,33
 121 424 121 424 179.5 476.5 c 128,-1,34
 238 529 238 529 328 529 c 0,35,11
 372 529 372 529 406 518.5 c 128,-1,12
192.5 460 m 128,-1,37
 139 410 139 410 114.5 336.5 c 128,-1,38
 90 263 90 263 90 191 c 0,39,40
 90 106 90 106 126 58.5 c 128,-1,41
 162 11 162 11 228 11 c 0,42,43
 330 11 330 11 400 135 c 1,44,-1
 449 477 l 1,45,46
 396 510 396 510 328 510 c 0,47,36
 246 510 246 510 192.5 460 c 128,-1,37
EndSplineSet
Substitution2: "'smcp' Lowercase to Small Capitals lookup 28 subtable" uni1EA5.sc
Substitution2: "'aalt' Access All Alternates lookup 0 subtable" uni1EA5.sc
EndChar

StartChar: uni1EA7
Encoding: 7847 7847 352
Width: 548
GlyphClass: 2
Flags: W
AnchorPoint: "Anchor-18" 0 0 basechar 0
AnchorPoint: "Anchor-17" 415 541 basechar 0
AnchorPoint: "Anchor-16" 355 689 basechar 0
AnchorPoint: "Anchor-15" 453 -10 basechar 0
AnchorPoint: "Anchor-14" 0 0 basechar 0
LayerCount: 2
Fore
SplineSet
196 802 m 1,0,-1
 277 683 l 1,1,-1
 263 673 l 1,2,-1
 176 786 l 1,3,-1
 196 802 l 1,0,-1
227 586 m 1,4,-1
 217 600 l 1,5,-1
 349 689 l 1,6,-1
 361 689 l 1,7,-1
 468 599 l 1,8,-1
 456 586 l 1,9,-1
 354 665 l 1,10,-1
 227 586 l 1,4,-1
406 518.5 m 128,-1,12
 440 508 440 508 473 488 c 1,13,-1
 419 112 l 2,14,15
 415 80 415 80 415 68 c 0,16,17
 415 45 415 45 423 30 c 128,-1,18
 431 15 431 15 451 7 c 1,19,-1
 444 -10 l 1,20,21
 419 0 419 0 407 18.5 c 128,-1,22
 395 37 395 37 395 68 c 0,23,24
 395 75 395 75 397 97 c 1,25,26
 366 47 366 47 322 18.5 c 128,-1,27
 278 -10 278 -10 228 -10 c 0,28,29
 153 -10 153 -10 110.5 43.5 c 128,-1,30
 68 97 68 97 68 190 c 0,31,32
 68 268 68 268 94.5 346 c 128,-1,33
 121 424 121 424 179.5 476.5 c 128,-1,34
 238 529 238 529 328 529 c 0,35,11
 372 529 372 529 406 518.5 c 128,-1,12
192.5 460 m 128,-1,37
 139 410 139 410 114.5 336.5 c 128,-1,38
 90 263 90 263 90 191 c 0,39,40
 90 106 90 106 126 58.5 c 128,-1,41
 162 11 162 11 228 11 c 0,42,43
 330 11 330 11 400 135 c 1,44,-1
 449 477 l 1,45,46
 396 510 396 510 328 510 c 0,47,36
 246 510 246 510 192.5 460 c 128,-1,37
EndSplineSet
Substitution2: "'smcp' Lowercase to Small Capitals lookup 28 subtable" uni1EA7.sc
Substitution2: "'aalt' Access All Alternates lookup 0 subtable" uni1EA7.sc
EndChar

StartChar: uni1EAB
Encoding: 7851 7851 354
Width: 548
GlyphClass: 2
Flags: W
AnchorPoint: "Anchor-18" 0 0 basechar 0
AnchorPoint: "Anchor-17" 415 532 basechar 0
AnchorPoint: "Anchor-16" 366 784 basechar 0
AnchorPoint: "Anchor-15" 453 -10 basechar 0
AnchorPoint: "Anchor-14" 0 0 basechar 0
LayerCount: 2
Fore
SplineSet
391 725.5 m 128,-1,1
 378 731 378 731 357 743 c 0,2,3
 341 753 341 753 330 758 c 128,-1,4
 319 763 319 763 307 763 c 0,5,6
 288 763 288 763 275.5 755.5 c 128,-1,7
 263 748 263 748 242 727 c 1,8,-1
 229 737 l 1,9,10
 249 760 249 760 268 771.5 c 128,-1,11
 287 783 287 783 307 783 c 0,12,13
 321 783 321 783 332.5 778 c 128,-1,14
 344 773 344 773 364 762 c 0,15,16
 380 751 380 751 393 745.5 c 128,-1,17
 406 740 406 740 420 740 c 0,18,19
 436 740 436 740 451 749.5 c 128,-1,20
 466 759 466 759 484 781 c 1,21,-1
 498 772 l 1,22,23
 478 744 478 744 459.5 732 c 128,-1,24
 441 720 441 720 420 720 c 0,25,0
 404 720 404 720 391 725.5 c 128,-1,1
227 577 m 1,26,-1
 217 591 l 1,27,-1
 349 680 l 1,28,-1
 361 680 l 1,29,-1
 468 590 l 1,30,-1
 456 577 l 1,31,-1
 354 656 l 1,32,-1
 227 577 l 1,26,-1
406 518.5 m 128,-1,34
 440 508 440 508 473 488 c 1,35,-1
 419 112 l 2,36,37
 415 80 415 80 415 68 c 0,38,39
 415 45 415 45 423 30 c 128,-1,40
 431 15 431 15 451 7 c 1,41,-1
 444 -10 l 1,42,43
 419 0 419 0 407 18.5 c 128,-1,44
 395 37 395 37 395 68 c 0,45,46
 395 75 395 75 397 97 c 1,47,48
 366 47 366 47 322 18.5 c 128,-1,49
 278 -10 278 -10 228 -10 c 0,50,51
 153 -10 153 -10 110.5 43.5 c 128,-1,52
 68 97 68 97 68 190 c 0,53,54
 68 268 68 268 94.5 346 c 128,-1,55
 121 424 121 424 179.5 476.5 c 128,-1,56
 238 529 238 529 328 529 c 0,57,33
 372 529 372 529 406 518.5 c 128,-1,34
192.5 460 m 128,-1,59
 139 410 139 410 114.5 336.5 c 128,-1,60
 90 263 90 263 90 191 c 0,61,62
 90 106 90 106 126 58.5 c 128,-1,63
 162 11 162 11 228 11 c 0,64,65
 330 11 330 11 400 135 c 1,66,-1
 449 477 l 1,67,68
 396 510 396 510 328 510 c 0,69,58
 246 510 246 510 192.5 460 c 128,-1,59
EndSplineSet
Substitution2: "'smcp' Lowercase to Small Capitals lookup 28 subtable" uni1EAB.sc
Substitution2: "'aalt' Access All Alternates lookup 0 subtable" uni1EAB.sc
EndChar

StartChar: uni0251
Encoding: 593 593 364
Width: 547
GlyphClass: 2
Flags: W
AnchorPoint: "Anchor-18" 0 0 basechar 0
AnchorPoint: "Anchor-17" 0 0 basechar 0
AnchorPoint: "Anchor-16" 312 519 basechar 0
AnchorPoint: "Anchor-15" 0 0 basechar 0
AnchorPoint: "Anchor-14" 238 0 basechar 0
LayerCount: 2
Fore
SplineSet
413 68 m 0,1,2
 413 45 413 45 421 30 c 128,-1,3
 429 15 429 15 449 7 c 1,4,-1
 443 -10 l 1,5,6
 417 0 417 0 405 19 c 128,-1,7
 393 38 393 38 393 69 c 0,8,9
 393 77 393 77 395 97 c 1,10,11
 364 46 364 46 320.5 18 c 128,-1,12
 277 -10 277 -10 226 -10 c 0,13,14
 152 -10 152 -10 110 43.5 c 128,-1,15
 68 97 68 97 68 190 c 0,16,17
 68 266 68 266 95.5 345 c 128,-1,18
 123 424 123 424 178.5 476.5 c 128,-1,19
 234 529 234 529 311 529 c 0,20,21
 413 529 413 529 445 433 c 1,22,-1
 461 519 l 1,23,-1
 478 519 l 1,24,-1
 417 112 l 2,25,0
 413 80 413 80 413 68 c 0,1,2
400 135 m 1,27,-1
 439 397 l 1,28,29
 423 456 423 456 390.5 482.5 c 128,-1,30
 358 509 358 509 310 509 c 0,31,32
 240 509 240 509 190 459 c 128,-1,33
 140 409 140 409 115 335 c 128,-1,34
 90 261 90 261 90 191 c 0,35,36
 90 107 90 107 126 59 c 128,-1,37
 162 11 162 11 227 11 c 0,38,26
 329 11 329 11 400 135 c 1,27,-1
EndSplineSet
Substitution2: "'smcp' Lowercase to Small Capitals lookup 28 subtable" uni0251.sc
Substitution2: "'aalt' Access All Alternates lookup 0 subtable" uni0251.sc
EndChar

StartChar: uni0252
Encoding: 594 594 365
Width: 547
GlyphClass: 2
Flags: W
AnchorPoint: "Anchor-18" 0 0 basechar 0
AnchorPoint: "Anchor-17" 0 0 basechar 0
AnchorPoint: "Anchor-16" 311 519 basechar 0
AnchorPoint: "Anchor-15" 0 0 basechar 0
AnchorPoint: "Anchor-14" 238 0 basechar 0
LayerCount: 2
Fore
SplineSet
437 475.5 m 128,-1,1
 479 422 479 422 479 329 c 0,2,3
 479 253 479 253 451.5 174 c 128,-1,4
 424 95 424 95 368.5 42.5 c 128,-1,5
 313 -10 313 -10 236 -10 c 0,6,7
 134 -10 134 -10 102 86 c 1,8,-1
 86 0 l 1,9,-1
 69 0 l 1,10,-1
 130 407 l 2,11,12
 134 439 134 439 134 451 c 0,13,14
 134 474 134 474 126 489 c 128,-1,15
 118 504 118 504 98 512 c 1,16,-1
 104 529 l 1,17,18
 130 519 130 519 142 500 c 128,-1,19
 154 481 154 481 154 450 c 0,20,21
 154 442 154 442 152 422 c 1,22,23
 183 473 183 473 226.5 501 c 128,-1,24
 270 529 270 529 321 529 c 0,25,0
 395 529 395 529 437 475.5 c 128,-1,1
357 60 m 128,-1,27
 407 110 407 110 432 184 c 128,-1,28
 457 258 457 258 457 328 c 0,29,30
 457 412 457 412 421 460 c 128,-1,31
 385 508 385 508 320 508 c 0,32,33
 218 508 218 508 147 384 c 1,34,-1
 108 122 l 1,35,36
 124 63 124 63 156.5 36.5 c 128,-1,37
 189 10 189 10 237 10 c 0,38,26
 307 10 307 10 357 60 c 128,-1,27
EndSplineSet
EndChar

StartChar: aogonek
Encoding: 261 261 367
Width: 548
GlyphClass: 2
Flags: W
AnchorPoint: "Anchor-18" 0 0 basechar 0
AnchorPoint: "Anchor-17" 0 0 basechar 0
AnchorPoint: "Anchor-16" 337 519 basechar 0
AnchorPoint: "Anchor-15" 453 -10 basechar 0
AnchorPoint: "Anchor-14" 264 0 basechar 0
LayerCount: 2
Fore
SplineSet
415 68 m 0,1,2
 415 45 415 45 423 30 c 128,-1,3
 431 15 431 15 451 7 c 1,4,-1
 444 -10 l 1,5,6
 372 -39 372 -39 336.5 -67.5 c 128,-1,7
 301 -96 301 -96 301 -136 c 0,8,9
 301 -191 301 -191 364 -191 c 0,10,11
 388 -191 388 -191 419 -184 c 1,12,-1
 414 -206 l 1,13,14
 386 -213 386 -213 361 -213 c 0,15,16
 320 -213 320 -213 298.5 -194.5 c 128,-1,17
 277 -176 277 -176 277 -145 c 0,18,19
 277 -95 277 -95 314.5 -63 c 128,-1,20
 352 -31 352 -31 427 -1 c 1,21,22
 395 19 395 19 395 68 c 0,23,24
 395 86 395 86 397 97 c 1,25,26
 366 47 366 47 322 18.5 c 128,-1,27
 278 -10 278 -10 228 -10 c 0,28,29
 153 -10 153 -10 110.5 43.5 c 128,-1,30
 68 97 68 97 68 190 c 0,31,32
 68 268 68 268 94.5 346 c 128,-1,33
 121 424 121 424 179.5 476.5 c 128,-1,34
 238 529 238 529 328 529 c 0,35,36
 372 529 372 529 406 518.5 c 128,-1,37
 440 508 440 508 473 488 c 1,38,-1
 419 112 l 2,39,0
 415 80 415 80 415 68 c 0,1,2
400 135 m 1,41,-1
 449 477 l 1,42,43
 396 510 396 510 328 510 c 0,44,45
 246 510 246 510 192.5 460 c 128,-1,46
 139 410 139 410 114.5 336.5 c 128,-1,47
 90 263 90 263 90 191 c 0,48,49
 90 106 90 106 126 58.5 c 128,-1,50
 162 11 162 11 228 11 c 0,51,40
 330 11 330 11 400 135 c 1,41,-1
EndSplineSet
Substitution2: "'smcp' Lowercase to Small Capitals lookup 28 subtable" aogonek.sc
Substitution2: "'aalt' Access All Alternates lookup 0 subtable" aogonek.sc
EndChar

StartChar: uni2C65
Encoding: 11365 11365 370
Width: 548
GlyphClass: 2
Flags: W
AnchorPoint: "Anchor-18" 0 0 basechar 0
AnchorPoint: "Anchor-17" 0 0 basechar 0
AnchorPoint: "Anchor-16" 312 519 basechar 0
AnchorPoint: "Anchor-15" 0 0 basechar 0
AnchorPoint: "Anchor-14" 239 0 basechar 0
LayerCount: 2
Fore
SplineSet
415 68 m 0,1,2
 415 45 415 45 423 30 c 128,-1,3
 431 15 431 15 451 7 c 1,4,-1
 444 -10 l 1,5,6
 418 -1 418 -1 406.5 17.5 c 128,-1,7
 395 36 395 36 395 68 c 0,8,9
 395 77 395 77 397 97 c 1,10,11
 366 47 366 47 322 18.5 c 128,-1,12
 278 -10 278 -10 228 -10 c 0,13,14
 196 -10 196 -10 170 0 c 1,15,-1
 143 -66 l 1,16,-1
 128 -62 l 1,17,-1
 156 6 l 1,18,19
 114 28 114 28 91 75.5 c 128,-1,20
 68 123 68 123 68 190 c 0,21,22
 68 268 68 268 94.5 346 c 128,-1,23
 121 424 121 424 179.5 476.5 c 128,-1,24
 238 529 238 529 328 529 c 0,25,26
 352 529 352 529 371 526 c 1,27,-1
 396 586 l 1,28,-1
 412 582 l 1,29,-1
 387 523 l 1,30,31
 429 514 429 514 473 488 c 1,32,-1
 419 112 l 2,33,0
 415 80 415 80 415 68 c 0,1,2
109 87.5 m 128,-1,35
 128 45 128 45 164 26 c 1,36,-1
 364 508 l 1,37,38
 340 510 340 510 328 510 c 0,39,40
 246 510 246 510 192.5 460 c 128,-1,41
 139 410 139 410 114.5 336.5 c 128,-1,42
 90 263 90 263 90 191 c 0,43,34
 90 130 90 130 109 87.5 c 128,-1,35
449 477 m 1,44,45
 416 497 416 497 380 505 c 1,46,-1
 178 19 l 1,47,48
 202 11 202 11 228 11 c 0,49,50
 330 11 330 11 400 135 c 1,51,-1
 449 477 l 1,44,45
EndSplineSet
Substitution2: "'smcp' Lowercase to Small Capitals lookup 28 subtable" uni2C65.sc
Substitution2: "'aalt' Access All Alternates lookup 0 subtable" uni2C65.sc
EndChar

StartChar: uni0250
Encoding: 592 592 372
Width: 512
GlyphClass: 2
Flags: W
AnchorPoint: "Anchor-18" 0 0 basechar 0
AnchorPoint: "Anchor-17" 0 0 basechar 0
AnchorPoint: "Anchor-16" 296 519 basechar 0
AnchorPoint: "Anchor-15" 0 0 basechar 0
AnchorPoint: "Anchor-14" 222 0 basechar 0
LayerCount: 2
Fore
SplineSet
116 148 m 2,0,1
 113 127 113 127 113 109 c 0,2,3
 113 59 113 59 140 35 c 128,-1,4
 167 11 167 11 225 11 c 0,5,6
 264 11 264 11 299 19 c 128,-1,7
 334 27 334 27 374 43 c 1,8,-1
 381 24 l 1,9,10
 338 7 338 7 301.5 -1.5 c 128,-1,11
 265 -10 265 -10 225 -10 c 0,12,13
 157 -10 157 -10 123.5 19.5 c 128,-1,14
 90 49 90 49 90 109 c 0,15,16
 90 126 90 126 93 147 c 2,17,-1
 130 410 l 2,18,19
 134 440 134 440 134 451 c 0,20,21
 134 474 134 474 125.5 489 c 128,-1,22
 117 504 117 504 97 512 c 1,23,-1
 104 529 l 1,24,25
 154 511 154 511 154 451 c 0,26,27
 154 437 154 437 153 430 c 1,28,29
 190 480 190 480 233.5 504.5 c 128,-1,30
 277 529 277 529 332 529 c 0,31,32
 398 529 398 529 434.5 493.5 c 128,-1,33
 471 458 471 458 471 398 c 0,34,35
 471 310 471 310 407 260.5 c 128,-1,36
 343 211 343 211 243 211 c 2,37,-1
 124 211 l 1,38,-1
 116 148 l 2,0,1
127 231 m 1,39,-1
 242 231 l 2,40,41
 335 231 335 231 391.5 275 c 128,-1,42
 448 319 448 319 448 398 c 0,43,44
 448 451 448 451 418 479.5 c 128,-1,45
 388 508 388 508 332 508 c 0,46,47
 222 508 222 508 150 398 c 1,48,-1
 127 231 l 1,39,-1
EndSplineSet
EndChar

StartChar: ae
Encoding: 230 230 373
Width: 818
GlyphClass: 2
Flags: W
AnchorPoint: "Anchor-18" 0 0 basechar 0
AnchorPoint: "Anchor-17" 0 0 basechar 0
AnchorPoint: "Anchor-16" 444 519 basechar 0
AnchorPoint: "Anchor-15" 0 0 basechar 0
AnchorPoint: "Anchor-14" 372 0 basechar 0
LayerCount: 2
Fore
SplineSet
388.5 495.5 m 128,-1,1
 427 462 427 462 433 404 c 1,2,3
 444 429 444 429 471 458 c 128,-1,4
 498 487 498 487 540 508 c 128,-1,5
 582 529 582 529 634 529 c 0,6,7
 699 529 699 529 739 497 c 128,-1,8
 779 465 779 465 779 410 c 0,9,10
 779 323 779 323 682 274 c 128,-1,11
 585 225 585 225 398 214 c 1,12,13
 397 116 397 116 435.5 63.5 c 128,-1,14
 474 11 474 11 551 11 c 0,15,16
 596 11 596 11 631 24.5 c 128,-1,17
 666 38 666 38 707 67 c 1,18,-1
 718 51 l 1,19,20
 677 20 677 20 637.5 5 c 128,-1,21
 598 -10 598 -10 551 -10 c 0,22,23
 489 -10 489 -10 447 20.5 c 128,-1,24
 405 51 405 51 388 109 c 1,25,26
 339 45 339 45 289 17.5 c 128,-1,27
 239 -10 239 -10 181 -10 c 0,28,29
 116 -10 116 -10 78.5 26 c 128,-1,30
 41 62 41 62 41 123 c 0,31,32
 41 199 41 199 96.5 249 c 128,-1,33
 152 299 152 299 269 299 c 2,34,-1
 389 299 l 1,35,36
 401 348 401 348 416 380 c 1,37,38
 415 440 415 440 379.5 474.5 c 128,-1,39
 344 509 344 509 284 509 c 0,40,41
 219 509 219 509 137 477 c 1,42,-1
 130 495 l 1,43,44
 217 529 217 529 284 529 c 0,45,0
 350 529 350 529 388.5 495.5 c 128,-1,1
508.5 466 m 128,-1,47
 458 423 458 423 432 360.5 c 128,-1,48
 406 298 406 298 400 234 c 1,49,50
 578 244 578 244 667 289 c 128,-1,51
 756 334 756 334 756 410 c 0,52,53
 756 456 756 456 723.5 482.5 c 128,-1,54
 691 509 691 509 634 509 c 0,55,46
 559 509 559 509 508.5 466 c 128,-1,47
269 279 m 2,56,57
 161 279 161 279 112.5 235.5 c 128,-1,58
 64 192 64 192 64 123 c 0,59,60
 64 70 64 70 95 40.5 c 128,-1,61
 126 11 126 11 181 11 c 0,62,63
 238 11 238 11 286 39.5 c 128,-1,64
 334 68 334 68 382 131 c 1,65,66
 375 166 375 166 375 197 c 0,67,68
 375 237 375 237 384 279 c 1,69,-1
 269 279 l 2,56,57
EndSplineSet
Substitution2: "'smcp' Lowercase to Small Capitals lookup 28 subtable" ae.sc
Substitution2: "'aalt' Access All Alternates lookup 0 subtable" ae.sc
EndChar

StartChar: b
Encoding: 98 98 376
Width: 565
GlyphClass: 2
Flags: W
AnchorPoint: "Anchor-18" 0 0 basechar 0
AnchorPoint: "Anchor-17" 0 0 basechar 0
AnchorPoint: "Anchor-16" 356 732 basechar 0
AnchorPoint: "Anchor-15" 0 0 basechar 0
AnchorPoint: "Anchor-14" 246 0 basechar 0
LayerCount: 2
Fore
SplineSet
458.5 480.5 m 128,-1,1
 498 432 498 432 498 339 c 0,2,3
 498 261 498 261 473 181 c 128,-1,4
 448 101 448 101 391 45.5 c 128,-1,5
 334 -10 334 -10 245 -10 c 0,6,7
 202 -10 202 -10 166.5 -2.5 c 128,-1,8
 131 5 131 5 85 24 c 1,9,-1
 185 733 l 1,10,-1
 207 736 l 1,11,-1
 166 436 l 1,12,13
 245 529 245 529 345 529 c 0,14,0
 419 529 419 529 458.5 480.5 c 128,-1,1
247.5 483.5 m 128,-1,16
 205 458 205 458 161 408 c 1,17,-1
 110 39 l 1,18,19
 143 25 143 25 173.5 18 c 128,-1,20
 204 11 204 11 244 11 c 0,21,22
 327 11 327 11 379 64 c 128,-1,23
 431 117 431 117 453.5 192.5 c 128,-1,24
 476 268 476 268 476 339 c 0,25,26
 476 422 476 422 442.5 465.5 c 128,-1,27
 409 509 409 509 345 509 c 0,28,15
 290 509 290 509 247.5 483.5 c 128,-1,16
EndSplineSet
Substitution2: "'smcp' Lowercase to Small Capitals lookup 28 subtable" b.sc
Substitution2: "'aalt' Access All Alternates lookup 0 subtable" b.sc
EndChar

